ISO-10303-21;
HEADER;
/* Generated by software containing ST-Developer
 * from STEP Tools, Inc. (www.steptools.com) 
 */
/* OPTION: using custom renumber hook */

FILE_DESCRIPTION(
/* description */ ('STEP AP242 Edition 2',
'CAx-IF Rec.Pracs.---Representation and Presentation of Product Manufa
cturing Information (PMI)---4.0---2014-10-13',
'CAx-IF Rec.Pracs.---3D Tessellated Geometry---0.4---2014-09-14','2;1',
'CAx-IF Rec.Pracs.---User Defined Attributes---1.5---2016-08-15'),
/* implementation_level */ '2;1');

FILE_NAME(
/* name */ 'MP3_ESP32_C3 - MP3_COVER_Top',
/* time_stamp */ '2026-07-31T18:59:34Z',
/* author */ (''),
/* organization */ (''),
/* preprocessor_version */ 'ST-DEVELOPER v20',
/* originating_system */ 'ONSHAPE BY PTC INC, 1.218',
/* authorisation */ '  ');

FILE_SCHEMA (('AP242_MANAGED_MODEL_BASED_3D_ENGINEERING_MIM_LF { 1 0 10303 442 3 1 4 }'));
ENDSEC;

DATA;
#10=SHAPE_REPRESENTATION_RELATIONSHIP('','',#1477,#11);
#11=ADVANCED_BREP_SHAPE_REPRESENTATION('',(#1475),#2379);
#12=CYLINDRICAL_SURFACE('',#1499,0.00300000000000007);
#13=CYLINDRICAL_SURFACE('',#1501,0.00299999999999978);
#14=CYLINDRICAL_SURFACE('',#1503,0.00300000000000175);
#15=CYLINDRICAL_SURFACE('',#1506,0.003);
#16=CYLINDRICAL_SURFACE('',#1509,0.00300000000001309);
#17=CYLINDRICAL_SURFACE('',#1511,0.00300000000000012);
#18=CYLINDRICAL_SURFACE('',#1513,0.0030000000000003);
#19=CYLINDRICAL_SURFACE('',#1516,0.00299999999999558);
#20=CYLINDRICAL_SURFACE('',#1526,0.0028);
#21=CYLINDRICAL_SURFACE('',#1528,0.0028);
#22=CYLINDRICAL_SURFACE('',#1531,0.0028);
#23=CYLINDRICAL_SURFACE('',#1535,0.0028);
#24=CYLINDRICAL_SURFACE('',#1553,0.00420000000000409);
#25=CYLINDRICAL_SURFACE('',#1554,0.00419999999999895);
#26=CYLINDRICAL_SURFACE('',#1555,0.00420000000000409);
#27=CYLINDRICAL_SURFACE('',#1556,0.00419999999999895);
#28=CYLINDRICAL_SURFACE('',#1557,0.00420000000000037);
#29=CYLINDRICAL_SURFACE('',#1558,0.00420000000000842);
#30=CYLINDRICAL_SURFACE('',#1559,0.00420000000000037);
#31=CYLINDRICAL_SURFACE('',#1560,0.00420000000000842);
#32=CIRCLE('',#1489,0.00300000000000007);
#33=CIRCLE('',#1490,0.00420000000000842);
#34=CIRCLE('',#1491,0.0028);
#35=CIRCLE('',#1492,0.0028);
#36=CIRCLE('',#1493,0.00299999999999978);
#37=CIRCLE('',#1494,0.00420000000000037);
#38=CIRCLE('',#1495,0.00420000000000842);
#39=CIRCLE('',#1496,0.00300000000001309);
#40=CIRCLE('',#1497,0.00420000000000037);
#41=CIRCLE('',#1498,0.00300000000000012);
#42=CIRCLE('',#1500,0.00300000000000007);
#43=CIRCLE('',#1502,0.00299999999999978);
#44=CIRCLE('',#1504,0.00300000000000175);
#45=CIRCLE('',#1505,0.00300000000000175);
#46=CIRCLE('',#1507,0.003);
#47=CIRCLE('',#1508,0.003);
#48=CIRCLE('',#1510,0.00300000000001309);
#49=CIRCLE('',#1512,0.00300000000000012);
#50=CIRCLE('',#1514,0.0030000000000003);
#51=CIRCLE('',#1515,0.0030000000000003);
#52=CIRCLE('',#1517,0.00299999999999558);
#53=CIRCLE('',#1518,0.00299999999999558);
#54=CIRCLE('',#1527,0.0028);
#55=CIRCLE('',#1529,0.0028);
#56=CIRCLE('',#1530,0.0028);
#57=CIRCLE('',#1532,0.0028);
#58=CIRCLE('',#1533,0.0028);
#59=CIRCLE('',#1536,0.0028);
#60=CIRCLE('',#1538,0.00419999999999895);
#61=CIRCLE('',#1539,0.00420000000000409);
#62=CIRCLE('',#1540,0.00419999999999895);
#63=CIRCLE('',#1541,0.00420000000000409);
#64=CIRCLE('',#1543,0.00420000000000037);
#65=CIRCLE('',#1544,0.00420000000000842);
#66=CIRCLE('',#1545,0.00420000000000037);
#67=CIRCLE('',#1546,0.00420000000000842);
#68=CIRCLE('',#1549,0.00420000000000409);
#69=CIRCLE('',#1550,0.00419999999999895);
#70=CIRCLE('',#1551,0.00420000000000409);
#71=CIRCLE('',#1552,0.00419999999999895);
#72=ORIENTED_EDGE('',*,*,#468,.F.);
#73=ORIENTED_EDGE('',*,*,#469,.F.);
#74=ORIENTED_EDGE('',*,*,#470,.F.);
#75=ORIENTED_EDGE('',*,*,#471,.T.);
#76=ORIENTED_EDGE('',*,*,#472,.F.);
#77=ORIENTED_EDGE('',*,*,#473,.T.);
#78=ORIENTED_EDGE('',*,*,#474,.T.);
#79=ORIENTED_EDGE('',*,*,#475,.F.);
#80=ORIENTED_EDGE('',*,*,#476,.T.);
#81=ORIENTED_EDGE('',*,*,#477,.T.);
#82=ORIENTED_EDGE('',*,*,#478,.F.);
#83=ORIENTED_EDGE('',*,*,#479,.T.);
#84=ORIENTED_EDGE('',*,*,#480,.T.);
#85=ORIENTED_EDGE('',*,*,#481,.T.);
#86=ORIENTED_EDGE('',*,*,#482,.F.);
#87=ORIENTED_EDGE('',*,*,#483,.F.);
#88=ORIENTED_EDGE('',*,*,#484,.T.);
#89=ORIENTED_EDGE('',*,*,#485,.T.);
#90=ORIENTED_EDGE('',*,*,#486,.F.);
#91=ORIENTED_EDGE('',*,*,#487,.T.);
#92=ORIENTED_EDGE('',*,*,#488,.F.);
#93=ORIENTED_EDGE('',*,*,#489,.F.);
#94=ORIENTED_EDGE('',*,*,#487,.F.);
#95=ORIENTED_EDGE('',*,*,#490,.T.);
#96=ORIENTED_EDGE('',*,*,#491,.F.);
#97=ORIENTED_EDGE('',*,*,#492,.T.);
#98=ORIENTED_EDGE('',*,*,#493,.T.);
#99=ORIENTED_EDGE('',*,*,#494,.F.);
#100=ORIENTED_EDGE('',*,*,#495,.T.);
#101=ORIENTED_EDGE('',*,*,#496,.T.);
#102=ORIENTED_EDGE('',*,*,#497,.T.);
#103=ORIENTED_EDGE('',*,*,#498,.T.);
#104=ORIENTED_EDGE('',*,*,#499,.F.);
#105=ORIENTED_EDGE('',*,*,#500,.T.);
#106=ORIENTED_EDGE('',*,*,#501,.T.);
#107=ORIENTED_EDGE('',*,*,#502,.T.);
#108=ORIENTED_EDGE('',*,*,#503,.T.);
#109=ORIENTED_EDGE('',*,*,#504,.T.);
#110=ORIENTED_EDGE('',*,*,#505,.F.);
#111=ORIENTED_EDGE('',*,*,#506,.F.);
#112=ORIENTED_EDGE('',*,*,#507,.T.);
#113=ORIENTED_EDGE('',*,*,#508,.T.);
#114=ORIENTED_EDGE('',*,*,#509,.T.);
#115=ORIENTED_EDGE('',*,*,#510,.T.);
#116=ORIENTED_EDGE('',*,*,#511,.T.);
#117=ORIENTED_EDGE('',*,*,#512,.T.);
#118=ORIENTED_EDGE('',*,*,#513,.F.);
#119=ORIENTED_EDGE('',*,*,#502,.F.);
#120=ORIENTED_EDGE('',*,*,#514,.T.);
#121=ORIENTED_EDGE('',*,*,#515,.F.);
#122=ORIENTED_EDGE('',*,*,#516,.F.);
#123=ORIENTED_EDGE('',*,*,#497,.F.);
#124=ORIENTED_EDGE('',*,*,#517,.T.);
#125=ORIENTED_EDGE('',*,*,#518,.T.);
#126=ORIENTED_EDGE('',*,*,#519,.T.);
#127=ORIENTED_EDGE('',*,*,#520,.T.);
#128=ORIENTED_EDGE('',*,*,#503,.F.);
#129=ORIENTED_EDGE('',*,*,#521,.F.);
#130=ORIENTED_EDGE('',*,*,#522,.T.);
#131=ORIENTED_EDGE('',*,*,#523,.T.);
#132=ORIENTED_EDGE('',*,*,#507,.F.);
#133=ORIENTED_EDGE('',*,*,#524,.F.);
#134=ORIENTED_EDGE('',*,*,#525,.T.);
#135=ORIENTED_EDGE('',*,*,#526,.T.);
#136=ORIENTED_EDGE('',*,*,#527,.F.);
#137=ORIENTED_EDGE('',*,*,#528,.F.);
#138=ORIENTED_EDGE('',*,*,#529,.T.);
#139=ORIENTED_EDGE('',*,*,#530,.T.);
#140=ORIENTED_EDGE('',*,*,#531,.F.);
#141=ORIENTED_EDGE('',*,*,#532,.F.);
#142=ORIENTED_EDGE('',*,*,#533,.F.);
#143=ORIENTED_EDGE('',*,*,#534,.T.);
#144=ORIENTED_EDGE('',*,*,#535,.T.);
#145=ORIENTED_EDGE('',*,*,#510,.F.);
#146=ORIENTED_EDGE('',*,*,#536,.F.);
#147=ORIENTED_EDGE('',*,*,#537,.T.);
#148=ORIENTED_EDGE('',*,*,#538,.T.);
#149=ORIENTED_EDGE('',*,*,#512,.F.);
#150=ORIENTED_EDGE('',*,*,#539,.F.);
#151=ORIENTED_EDGE('',*,*,#540,.T.);
#152=ORIENTED_EDGE('',*,*,#541,.T.);
#153=ORIENTED_EDGE('',*,*,#542,.F.);
#154=ORIENTED_EDGE('',*,*,#543,.F.);
#155=ORIENTED_EDGE('',*,*,#544,.T.);
#156=ORIENTED_EDGE('',*,*,#545,.T.);
#157=ORIENTED_EDGE('',*,*,#546,.F.);
#158=ORIENTED_EDGE('',*,*,#501,.F.);
#159=ORIENTED_EDGE('',*,*,#547,.F.);
#160=ORIENTED_EDGE('',*,*,#548,.T.);
#161=ORIENTED_EDGE('',*,*,#549,.T.);
#162=ORIENTED_EDGE('',*,*,#550,.F.);
#163=ORIENTED_EDGE('',*,*,#551,.F.);
#164=ORIENTED_EDGE('',*,*,#552,.T.);
#165=ORIENTED_EDGE('',*,*,#547,.T.);
#166=ORIENTED_EDGE('',*,*,#553,.F.);
#167=ORIENTED_EDGE('',*,*,#554,.F.);
#168=ORIENTED_EDGE('',*,*,#555,.T.);
#169=ORIENTED_EDGE('',*,*,#551,.T.);
#170=ORIENTED_EDGE('',*,*,#556,.T.);
#171=ORIENTED_EDGE('',*,*,#557,.F.);
#172=ORIENTED_EDGE('',*,*,#558,.F.);
#173=ORIENTED_EDGE('',*,*,#554,.T.);
#174=ORIENTED_EDGE('',*,*,#498,.F.);
#175=ORIENTED_EDGE('',*,*,#559,.F.);
#176=ORIENTED_EDGE('',*,*,#560,.T.);
#177=ORIENTED_EDGE('',*,*,#557,.T.);
#178=ORIENTED_EDGE('',*,*,#516,.T.);
#179=ORIENTED_EDGE('',*,*,#561,.F.);
#180=ORIENTED_EDGE('',*,*,#562,.F.);
#181=ORIENTED_EDGE('',*,*,#559,.T.);
#182=ORIENTED_EDGE('',*,*,#515,.T.);
#183=ORIENTED_EDGE('',*,*,#563,.F.);
#184=ORIENTED_EDGE('',*,*,#564,.F.);
#185=ORIENTED_EDGE('',*,*,#561,.T.);
#186=ORIENTED_EDGE('',*,*,#565,.F.);
#187=ORIENTED_EDGE('',*,*,#506,.T.);
#188=ORIENTED_EDGE('',*,*,#566,.T.);
#189=ORIENTED_EDGE('',*,*,#567,.F.);
#190=ORIENTED_EDGE('',*,*,#568,.T.);
#191=ORIENTED_EDGE('',*,*,#569,.F.);
#192=ORIENTED_EDGE('',*,*,#514,.F.);
#193=ORIENTED_EDGE('',*,*,#549,.F.);
#194=ORIENTED_EDGE('',*,*,#570,.T.);
#195=ORIENTED_EDGE('',*,*,#563,.T.);
#196=ORIENTED_EDGE('',*,*,#571,.F.);
#197=ORIENTED_EDGE('',*,*,#505,.T.);
#198=ORIENTED_EDGE('',*,*,#572,.T.);
#199=ORIENTED_EDGE('',*,*,#552,.F.);
#200=ORIENTED_EDGE('',*,*,#555,.F.);
#201=ORIENTED_EDGE('',*,*,#558,.T.);
#202=ORIENTED_EDGE('',*,*,#573,.F.);
#203=ORIENTED_EDGE('',*,*,#574,.F.);
#204=ORIENTED_EDGE('',*,*,#575,.T.);
#205=ORIENTED_EDGE('',*,*,#576,.T.);
#206=ORIENTED_EDGE('',*,*,#540,.F.);
#207=ORIENTED_EDGE('',*,*,#577,.F.);
#208=ORIENTED_EDGE('',*,*,#544,.F.);
#209=ORIENTED_EDGE('',*,*,#578,.F.);
#210=ORIENTED_EDGE('',*,*,#579,.F.);
#211=ORIENTED_EDGE('',*,*,#525,.F.);
#212=ORIENTED_EDGE('',*,*,#529,.F.);
#213=ORIENTED_EDGE('',*,*,#580,.F.);
#214=ORIENTED_EDGE('',*,*,#568,.F.);
#215=ORIENTED_EDGE('',*,*,#566,.F.);
#216=ORIENTED_EDGE('',*,*,#474,.F.);
#217=ORIENTED_EDGE('',*,*,#581,.T.);
#218=ORIENTED_EDGE('',*,*,#582,.F.);
#219=ORIENTED_EDGE('',*,*,#583,.F.);
#220=ORIENTED_EDGE('',*,*,#584,.F.);
#221=ORIENTED_EDGE('',*,*,#585,.T.);
#222=ORIENTED_EDGE('',*,*,#586,.F.);
#223=ORIENTED_EDGE('',*,*,#587,.T.);
#224=ORIENTED_EDGE('',*,*,#588,.F.);
#225=ORIENTED_EDGE('',*,*,#589,.F.);
#226=ORIENTED_EDGE('',*,*,#590,.F.);
#227=ORIENTED_EDGE('',*,*,#471,.F.);
#228=ORIENTED_EDGE('',*,*,#591,.T.);
#229=ORIENTED_EDGE('',*,*,#482,.T.);
#230=ORIENTED_EDGE('',*,*,#592,.F.);
#231=ORIENTED_EDGE('',*,*,#593,.T.);
#232=ORIENTED_EDGE('',*,*,#594,.T.);
#233=ORIENTED_EDGE('',*,*,#595,.T.);
#234=ORIENTED_EDGE('',*,*,#478,.T.);
#235=ORIENTED_EDGE('',*,*,#596,.T.);
#236=ORIENTED_EDGE('',*,*,#597,.T.);
#237=ORIENTED_EDGE('',*,*,#562,.T.);
#238=ORIENTED_EDGE('',*,*,#564,.T.);
#239=ORIENTED_EDGE('',*,*,#570,.F.);
#240=ORIENTED_EDGE('',*,*,#598,.T.);
#241=ORIENTED_EDGE('',*,*,#490,.F.);
#242=ORIENTED_EDGE('',*,*,#486,.T.);
#243=ORIENTED_EDGE('',*,*,#599,.F.);
#244=ORIENTED_EDGE('',*,*,#522,.F.);
#245=ORIENTED_EDGE('',*,*,#600,.F.);
#246=ORIENTED_EDGE('',*,*,#571,.T.);
#247=ORIENTED_EDGE('',*,*,#565,.T.);
#248=ORIENTED_EDGE('',*,*,#601,.F.);
#249=ORIENTED_EDGE('',*,*,#519,.F.);
#250=ORIENTED_EDGE('',*,*,#537,.F.);
#251=ORIENTED_EDGE('',*,*,#602,.F.);
#252=ORIENTED_EDGE('',*,*,#534,.F.);
#253=ORIENTED_EDGE('',*,*,#603,.F.);
#254=ORIENTED_EDGE('',*,*,#597,.F.);
#255=ORIENTED_EDGE('',*,*,#548,.F.);
#256=ORIENTED_EDGE('',*,*,#572,.F.);
#257=ORIENTED_EDGE('',*,*,#560,.F.);
#258=ORIENTED_EDGE('',*,*,#604,.T.);
#259=ORIENTED_EDGE('',*,*,#605,.T.);
#260=ORIENTED_EDGE('',*,*,#606,.F.);
#261=ORIENTED_EDGE('',*,*,#607,.F.);
#262=ORIENTED_EDGE('',*,*,#608,.F.);
#263=ORIENTED_EDGE('',*,*,#609,.T.);
#264=ORIENTED_EDGE('',*,*,#495,.F.);
#265=ORIENTED_EDGE('',*,*,#556,.F.);
#266=ORIENTED_EDGE('',*,*,#553,.T.);
#267=ORIENTED_EDGE('',*,*,#550,.T.);
#268=ORIENTED_EDGE('',*,*,#500,.F.);
#269=ORIENTED_EDGE('',*,*,#610,.F.);
#270=ORIENTED_EDGE('',*,*,#611,.F.);
#271=ORIENTED_EDGE('',*,*,#612,.T.);
#272=ORIENTED_EDGE('',*,*,#493,.F.);
#273=ORIENTED_EDGE('',*,*,#613,.F.);
#274=ORIENTED_EDGE('',*,*,#614,.T.);
#275=ORIENTED_EDGE('',*,*,#546,.T.);
#276=ORIENTED_EDGE('',*,*,#615,.T.);
#277=ORIENTED_EDGE('',*,*,#542,.T.);
#278=ORIENTED_EDGE('',*,*,#531,.T.);
#279=ORIENTED_EDGE('',*,*,#616,.T.);
#280=ORIENTED_EDGE('',*,*,#527,.T.);
#281=ORIENTED_EDGE('',*,*,#617,.T.);
#282=ORIENTED_EDGE('',*,*,#569,.T.);
#283=ORIENTED_EDGE('',*,*,#567,.T.);
#284=ORIENTED_EDGE('',*,*,#545,.F.);
#285=ORIENTED_EDGE('',*,*,#578,.T.);
#286=ORIENTED_EDGE('',*,*,#543,.T.);
#287=ORIENTED_EDGE('',*,*,#614,.F.);
#288=ORIENTED_EDGE('',*,*,#541,.F.);
#289=ORIENTED_EDGE('',*,*,#577,.T.);
#290=ORIENTED_EDGE('',*,*,#539,.T.);
#291=ORIENTED_EDGE('',*,*,#615,.F.);
#292=ORIENTED_EDGE('',*,*,#580,.T.);
#293=ORIENTED_EDGE('',*,*,#532,.T.);
#294=ORIENTED_EDGE('',*,*,#616,.F.);
#295=ORIENTED_EDGE('',*,*,#530,.F.);
#296=ORIENTED_EDGE('',*,*,#579,.T.);
#297=ORIENTED_EDGE('',*,*,#528,.T.);
#298=ORIENTED_EDGE('',*,*,#617,.F.);
#299=ORIENTED_EDGE('',*,*,#526,.F.);
#300=ORIENTED_EDGE('',*,*,#538,.F.);
#301=ORIENTED_EDGE('',*,*,#602,.T.);
#302=ORIENTED_EDGE('',*,*,#536,.T.);
#303=ORIENTED_EDGE('',*,*,#511,.F.);
#304=ORIENTED_EDGE('',*,*,#535,.F.);
#305=ORIENTED_EDGE('',*,*,#603,.T.);
#306=ORIENTED_EDGE('',*,*,#533,.T.);
#307=ORIENTED_EDGE('',*,*,#509,.F.);
#308=ORIENTED_EDGE('',*,*,#600,.T.);
#309=ORIENTED_EDGE('',*,*,#524,.T.);
#310=ORIENTED_EDGE('',*,*,#508,.F.);
#311=ORIENTED_EDGE('',*,*,#523,.F.);
#312=ORIENTED_EDGE('',*,*,#601,.T.);
#313=ORIENTED_EDGE('',*,*,#521,.T.);
#314=ORIENTED_EDGE('',*,*,#504,.F.);
#315=ORIENTED_EDGE('',*,*,#520,.F.);
#316=ORIENTED_EDGE('',*,*,#618,.F.);
#317=ORIENTED_EDGE('',*,*,#619,.T.);
#318=ORIENTED_EDGE('',*,*,#584,.T.);
#319=ORIENTED_EDGE('',*,*,#620,.T.);
#320=ORIENTED_EDGE('',*,*,#621,.F.);
#321=ORIENTED_EDGE('',*,*,#622,.T.);
#322=ORIENTED_EDGE('',*,*,#620,.F.);
#323=ORIENTED_EDGE('',*,*,#587,.F.);
#324=ORIENTED_EDGE('',*,*,#623,.F.);
#325=ORIENTED_EDGE('',*,*,#624,.T.);
#326=ORIENTED_EDGE('',*,*,#479,.F.);
#327=ORIENTED_EDGE('',*,*,#595,.F.);
#328=ORIENTED_EDGE('',*,*,#625,.F.);
#329=ORIENTED_EDGE('',*,*,#626,.T.);
#330=ORIENTED_EDGE('',*,*,#588,.T.);
#331=ORIENTED_EDGE('',*,*,#470,.T.);
#332=ORIENTED_EDGE('',*,*,#627,.F.);
#333=ORIENTED_EDGE('',*,*,#576,.F.);
#334=ORIENTED_EDGE('',*,*,#628,.T.);
#335=ORIENTED_EDGE('',*,*,#606,.T.);
#336=ORIENTED_EDGE('',*,*,#629,.T.);
#337=ORIENTED_EDGE('',*,*,#607,.T.);
#338=ORIENTED_EDGE('',*,*,#628,.F.);
#339=ORIENTED_EDGE('',*,*,#575,.F.);
#340=ORIENTED_EDGE('',*,*,#574,.T.);
#341=ORIENTED_EDGE('',*,*,#630,.T.);
#342=ORIENTED_EDGE('',*,*,#604,.F.);
#343=ORIENTED_EDGE('',*,*,#629,.F.);
#344=ORIENTED_EDGE('',*,*,#631,.F.);
#345=ORIENTED_EDGE('',*,*,#632,.T.);
#346=ORIENTED_EDGE('',*,*,#610,.T.);
#347=ORIENTED_EDGE('',*,*,#499,.T.);
#348=ORIENTED_EDGE('',*,*,#513,.T.);
#349=ORIENTED_EDGE('',*,*,#633,.F.);
#350=ORIENTED_EDGE('',*,*,#609,.F.);
#351=ORIENTED_EDGE('',*,*,#634,.T.);
#352=ORIENTED_EDGE('',*,*,#635,.T.);
#353=ORIENTED_EDGE('',*,*,#636,.T.);
#354=ORIENTED_EDGE('',*,*,#517,.F.);
#355=ORIENTED_EDGE('',*,*,#496,.F.);
#356=ORIENTED_EDGE('',*,*,#518,.F.);
#357=ORIENTED_EDGE('',*,*,#636,.F.);
#358=ORIENTED_EDGE('',*,*,#637,.T.);
#359=ORIENTED_EDGE('',*,*,#633,.T.);
#360=ORIENTED_EDGE('',*,*,#638,.F.);
#361=ORIENTED_EDGE('',*,*,#472,.T.);
#362=ORIENTED_EDGE('',*,*,#639,.T.);
#363=ORIENTED_EDGE('',*,*,#640,.T.);
#364=ORIENTED_EDGE('',*,*,#641,.F.);
#365=ORIENTED_EDGE('',*,*,#618,.T.);
#366=ORIENTED_EDGE('',*,*,#622,.F.);
#367=ORIENTED_EDGE('',*,*,#642,.T.);
#368=ORIENTED_EDGE('',*,*,#469,.T.);
#369=ORIENTED_EDGE('',*,*,#643,.T.);
#370=ORIENTED_EDGE('',*,*,#644,.T.);
#371=ORIENTED_EDGE('',*,*,#625,.T.);
#372=ORIENTED_EDGE('',*,*,#624,.F.);
#373=ORIENTED_EDGE('',*,*,#645,.F.);
#374=ORIENTED_EDGE('',*,*,#646,.F.);
#375=ORIENTED_EDGE('',*,*,#476,.F.);
#376=ORIENTED_EDGE('',*,*,#480,.F.);
#377=ORIENTED_EDGE('',*,*,#647,.F.);
#378=ORIENTED_EDGE('',*,*,#648,.F.);
#379=ORIENTED_EDGE('',*,*,#649,.T.);
#380=ORIENTED_EDGE('',*,*,#650,.T.);
#381=ORIENTED_EDGE('',*,*,#484,.F.);
#382=ORIENTED_EDGE('',*,*,#489,.T.);
#383=ORIENTED_EDGE('',*,*,#651,.F.);
#384=ORIENTED_EDGE('',*,*,#652,.F.);
#385=ORIENTED_EDGE('',*,*,#653,.T.);
#386=ORIENTED_EDGE('',*,*,#631,.T.);
#387=ORIENTED_EDGE('',*,*,#637,.F.);
#388=ORIENTED_EDGE('',*,*,#635,.F.);
#389=ORIENTED_EDGE('',*,*,#654,.T.);
#390=ORIENTED_EDGE('',*,*,#655,.T.);
#391=ORIENTED_EDGE('',*,*,#491,.T.);
#392=ORIENTED_EDGE('',*,*,#612,.F.);
#393=ORIENTED_EDGE('',*,*,#656,.T.);
#394=ORIENTED_EDGE('',*,*,#652,.T.);
#395=ORIENTED_EDGE('',*,*,#494,.T.);
#396=ORIENTED_EDGE('',*,*,#655,.F.);
#397=ORIENTED_EDGE('',*,*,#657,.T.);
#398=ORIENTED_EDGE('',*,*,#613,.T.);
#399=ORIENTED_EDGE('',*,*,#492,.F.);
#400=ORIENTED_EDGE('',*,*,#656,.F.);
#401=ORIENTED_EDGE('',*,*,#611,.T.);
#402=ORIENTED_EDGE('',*,*,#632,.F.);
#403=ORIENTED_EDGE('',*,*,#653,.F.);
#404=ORIENTED_EDGE('',*,*,#634,.F.);
#405=ORIENTED_EDGE('',*,*,#608,.T.);
#406=ORIENTED_EDGE('',*,*,#657,.F.);
#407=ORIENTED_EDGE('',*,*,#654,.F.);
#408=ORIENTED_EDGE('',*,*,#573,.T.);
#409=ORIENTED_EDGE('',*,*,#627,.T.);
#410=ORIENTED_EDGE('',*,*,#605,.F.);
#411=ORIENTED_EDGE('',*,*,#630,.F.);
#412=ORIENTED_EDGE('',*,*,#585,.F.);
#413=ORIENTED_EDGE('',*,*,#619,.F.);
#414=ORIENTED_EDGE('',*,*,#641,.T.);
#415=ORIENTED_EDGE('',*,*,#658,.T.);
#416=ORIENTED_EDGE('',*,*,#586,.T.);
#417=ORIENTED_EDGE('',*,*,#658,.F.);
#418=ORIENTED_EDGE('',*,*,#642,.F.);
#419=ORIENTED_EDGE('',*,*,#621,.T.);
#420=ORIENTED_EDGE('',*,*,#596,.F.);
#421=ORIENTED_EDGE('',*,*,#477,.F.);
#422=ORIENTED_EDGE('',*,*,#646,.T.);
#423=ORIENTED_EDGE('',*,*,#659,.T.);
#424=ORIENTED_EDGE('',*,*,#594,.F.);
#425=ORIENTED_EDGE('',*,*,#659,.F.);
#426=ORIENTED_EDGE('',*,*,#645,.T.);
#427=ORIENTED_EDGE('',*,*,#623,.T.);
#428=ORIENTED_EDGE('',*,*,#592,.T.);
#429=ORIENTED_EDGE('',*,*,#481,.F.);
#430=ORIENTED_EDGE('',*,*,#649,.F.);
#431=ORIENTED_EDGE('',*,*,#660,.T.);
#432=ORIENTED_EDGE('',*,*,#593,.F.);
#433=ORIENTED_EDGE('',*,*,#660,.F.);
#434=ORIENTED_EDGE('',*,*,#648,.T.);
#435=ORIENTED_EDGE('',*,*,#661,.T.);
#436=ORIENTED_EDGE('',*,*,#591,.F.);
#437=ORIENTED_EDGE('',*,*,#661,.F.);
#438=ORIENTED_EDGE('',*,*,#647,.T.);
#439=ORIENTED_EDGE('',*,*,#483,.T.);
#440=ORIENTED_EDGE('',*,*,#599,.T.);
#441=ORIENTED_EDGE('',*,*,#485,.F.);
#442=ORIENTED_EDGE('',*,*,#650,.F.);
#443=ORIENTED_EDGE('',*,*,#662,.T.);
#444=ORIENTED_EDGE('',*,*,#598,.F.);
#445=ORIENTED_EDGE('',*,*,#662,.F.);
#446=ORIENTED_EDGE('',*,*,#651,.T.);
#447=ORIENTED_EDGE('',*,*,#488,.T.);
#448=ORIENTED_EDGE('',*,*,#589,.T.);
#449=ORIENTED_EDGE('',*,*,#626,.F.);
#450=ORIENTED_EDGE('',*,*,#644,.F.);
#451=ORIENTED_EDGE('',*,*,#663,.T.);
#452=ORIENTED_EDGE('',*,*,#590,.T.);
#453=ORIENTED_EDGE('',*,*,#663,.F.);
#454=ORIENTED_EDGE('',*,*,#643,.F.);
#455=ORIENTED_EDGE('',*,*,#468,.T.);
#456=ORIENTED_EDGE('',*,*,#581,.F.);
#457=ORIENTED_EDGE('',*,*,#473,.F.);
#458=ORIENTED_EDGE('',*,*,#638,.T.);
#459=ORIENTED_EDGE('',*,*,#664,.T.);
#460=ORIENTED_EDGE('',*,*,#582,.T.);
#461=ORIENTED_EDGE('',*,*,#664,.F.);
#462=ORIENTED_EDGE('',*,*,#640,.F.);
#463=ORIENTED_EDGE('',*,*,#665,.T.);
#464=ORIENTED_EDGE('',*,*,#583,.T.);
#465=ORIENTED_EDGE('',*,*,#665,.F.);
#466=ORIENTED_EDGE('',*,*,#639,.F.);
#467=ORIENTED_EDGE('',*,*,#475,.T.);
#468=EDGE_CURVE('',#666,#667,#798,.T.);
#469=EDGE_CURVE('',#668,#666,#799,.T.);
#470=EDGE_CURVE('',#669,#668,#800,.T.);
#471=EDGE_CURVE('',#669,#667,#801,.T.);
#472=EDGE_CURVE('',#670,#671,#802,.T.);
#473=EDGE_CURVE('',#670,#672,#803,.T.);
#474=EDGE_CURVE('',#672,#673,#804,.T.);
#475=EDGE_CURVE('',#671,#673,#805,.T.);
#476=EDGE_CURVE('',#674,#675,#806,.T.);
#477=EDGE_CURVE('',#675,#676,#807,.T.);
#478=EDGE_CURVE('',#677,#676,#808,.T.);
#479=EDGE_CURVE('',#677,#674,#809,.T.);
#480=EDGE_CURVE('',#678,#679,#810,.T.);
#481=EDGE_CURVE('',#679,#680,#811,.T.);
#482=EDGE_CURVE('',#681,#680,#812,.T.);
#483=EDGE_CURVE('',#678,#681,#813,.T.);
#484=EDGE_CURVE('',#682,#683,#814,.T.);
#485=EDGE_CURVE('',#683,#684,#815,.T.);
#486=EDGE_CURVE('',#685,#684,#816,.T.);
#487=EDGE_CURVE('',#685,#682,#817,.T.);
#488=EDGE_CURVE('',#686,#687,#818,.T.);
#489=EDGE_CURVE('',#682,#686,#819,.T.);
#490=EDGE_CURVE('',#685,#687,#820,.T.);
#491=EDGE_CURVE('',#688,#689,#821,.T.);
#492=EDGE_CURVE('',#688,#690,#822,.T.);
#493=EDGE_CURVE('',#690,#691,#823,.T.);
#494=EDGE_CURVE('',#689,#691,#824,.T.);
#495=EDGE_CURVE('',#692,#693,#825,.T.);
#496=EDGE_CURVE('',#693,#694,#826,.F.);
#497=EDGE_CURVE('',#694,#695,#827,.T.);
#498=EDGE_CURVE('',#695,#692,#828,.F.);
#499=EDGE_CURVE('',#696,#697,#829,.F.);
#500=EDGE_CURVE('',#696,#698,#830,.T.);
#501=EDGE_CURVE('',#698,#699,#831,.F.);
#502=EDGE_CURVE('',#699,#697,#832,.T.);
#503=EDGE_CURVE('',#700,#701,#32,.T.);
#504=EDGE_CURVE('',#701,#700,#33,.T.);
#505=EDGE_CURVE('',#702,#702,#34,.F.);
#506=EDGE_CURVE('',#703,#703,#35,.F.);
#507=EDGE_CURVE('',#704,#705,#36,.T.);
#508=EDGE_CURVE('',#705,#704,#37,.T.);
#509=EDGE_CURVE('',#706,#707,#38,.T.);
#510=EDGE_CURVE('',#707,#706,#39,.T.);
#511=EDGE_CURVE('',#708,#709,#40,.T.);
#512=EDGE_CURVE('',#709,#708,#41,.T.);
#513=EDGE_CURVE('',#697,#710,#833,.T.);
#514=EDGE_CURVE('',#699,#711,#834,.T.);
#515=EDGE_CURVE('',#712,#711,#835,.T.);
#516=EDGE_CURVE('',#695,#712,#836,.T.);
#517=EDGE_CURVE('',#694,#713,#837,.T.);
#518=EDGE_CURVE('',#713,#710,#838,.T.);
#519=EDGE_CURVE('',#714,#715,#42,.T.);
#520=EDGE_CURVE('',#715,#701,#839,.T.);
#521=EDGE_CURVE('',#714,#700,#840,.T.);
#522=EDGE_CURVE('',#716,#717,#43,.T.);
#523=EDGE_CURVE('',#717,#705,#841,.T.);
#524=EDGE_CURVE('',#716,#704,#842,.T.);
#525=EDGE_CURVE('',#718,#719,#44,.T.);
#526=EDGE_CURVE('',#719,#720,#843,.T.);
#527=EDGE_CURVE('',#721,#720,#45,.T.);
#528=EDGE_CURVE('',#718,#721,#844,.T.);
#529=EDGE_CURVE('',#722,#723,#46,.T.);
#530=EDGE_CURVE('',#723,#724,#845,.T.);
#531=EDGE_CURVE('',#725,#724,#47,.T.);
#532=EDGE_CURVE('',#722,#725,#846,.T.);
#533=EDGE_CURVE('',#726,#707,#847,.T.);
#534=EDGE_CURVE('',#726,#727,#48,.T.);
#535=EDGE_CURVE('',#727,#706,#848,.T.);
#536=EDGE_CURVE('',#728,#709,#849,.T.);
#537=EDGE_CURVE('',#728,#729,#49,.T.);
#538=EDGE_CURVE('',#729,#708,#850,.T.);
#539=EDGE_CURVE('',#730,#731,#851,.T.);
#540=EDGE_CURVE('',#730,#732,#50,.T.);
#541=EDGE_CURVE('',#732,#733,#852,.T.);
#542=EDGE_CURVE('',#731,#733,#51,.T.);
#543=EDGE_CURVE('',#734,#735,#853,.T.);
#544=EDGE_CURVE('',#734,#736,#52,.T.);
#545=EDGE_CURVE('',#736,#737,#854,.T.);
#546=EDGE_CURVE('',#735,#737,#53,.T.);
#547=EDGE_CURVE('',#738,#698,#855,.T.);
#548=EDGE_CURVE('',#738,#739,#856,.F.);
#549=EDGE_CURVE('',#739,#699,#857,.T.);
#550=EDGE_CURVE('',#740,#698,#858,.T.);
#551=EDGE_CURVE('',#741,#740,#859,.T.);
#552=EDGE_CURVE('',#741,#738,#860,.T.);
#553=EDGE_CURVE('',#742,#740,#861,.T.);
#554=EDGE_CURVE('',#743,#742,#862,.T.);
#555=EDGE_CURVE('',#743,#741,#863,.T.);
#556=EDGE_CURVE('',#742,#692,#864,.T.);
#557=EDGE_CURVE('',#744,#692,#865,.T.);
#558=EDGE_CURVE('',#743,#744,#866,.T.);
#559=EDGE_CURVE('',#745,#695,#867,.T.);
#560=EDGE_CURVE('',#745,#744,#868,.F.);
#561=EDGE_CURVE('',#746,#712,#869,.T.);
#562=EDGE_CURVE('',#745,#746,#870,.T.);
#563=EDGE_CURVE('',#747,#711,#871,.T.);
#564=EDGE_CURVE('',#746,#747,#872,.T.);
#565=EDGE_CURVE('',#748,#748,#54,.F.);
#566=EDGE_CURVE('',#749,#749,#55,.T.);
#567=EDGE_CURVE('',#750,#750,#56,.T.);
#568=EDGE_CURVE('',#751,#751,#57,.T.);
#569=EDGE_CURVE('',#752,#752,#58,.T.);
#570=EDGE_CURVE('',#739,#747,#873,.T.);
#571=EDGE_CURVE('',#753,#753,#59,.F.);
#572=EDGE_CURVE('',#744,#738,#874,.T.);
#573=EDGE_CURVE('',#754,#755,#875,.T.);
#574=EDGE_CURVE('',#756,#754,#876,.T.);
#575=EDGE_CURVE('',#756,#757,#877,.T.);
#576=EDGE_CURVE('',#757,#755,#878,.T.);
#577=EDGE_CURVE('',#732,#730,#60,.T.);
#578=EDGE_CURVE('',#736,#734,#61,.T.);
#579=EDGE_CURVE('',#719,#718,#62,.T.);
#580=EDGE_CURVE('',#723,#722,#63,.T.);
#581=EDGE_CURVE('',#672,#758,#879,.T.);
#582=EDGE_CURVE('',#759,#758,#880,.T.);
#583=EDGE_CURVE('',#673,#759,#881,.T.);
#584=EDGE_CURVE('',#760,#761,#882,.T.);
#585=EDGE_CURVE('',#760,#762,#883,.T.);
#586=EDGE_CURVE('',#763,#762,#884,.T.);
#587=EDGE_CURVE('',#763,#761,#885,.T.);
#588=EDGE_CURVE('',#764,#669,#886,.T.);
#589=EDGE_CURVE('',#765,#764,#887,.T.);
#590=EDGE_CURVE('',#667,#765,#888,.T.);
#591=EDGE_CURVE('',#766,#681,#889,.T.);
#592=EDGE_CURVE('',#767,#680,#890,.T.);
#593=EDGE_CURVE('',#767,#766,#891,.T.);
#594=EDGE_CURVE('',#768,#769,#892,.T.);
#595=EDGE_CURVE('',#769,#677,#893,.T.);
#596=EDGE_CURVE('',#676,#768,#894,.T.);
#597=EDGE_CURVE('',#739,#745,#895,.T.);
#598=EDGE_CURVE('',#770,#687,#896,.T.);
#599=EDGE_CURVE('',#770,#684,#897,.T.);
#600=EDGE_CURVE('',#717,#716,#64,.T.);
#601=EDGE_CURVE('',#715,#714,#65,.T.);
#602=EDGE_CURVE('',#729,#728,#66,.T.);
#603=EDGE_CURVE('',#727,#726,#67,.T.);
#604=EDGE_CURVE('',#771,#772,#898,.T.);
#605=EDGE_CURVE('',#772,#773,#899,.T.);
#606=EDGE_CURVE('',#774,#773,#900,.T.);
#607=EDGE_CURVE('',#771,#774,#901,.T.);
#608=EDGE_CURVE('',#775,#776,#902,.T.);
#609=EDGE_CURVE('',#775,#693,#903,.T.);
#610=EDGE_CURVE('',#777,#696,#904,.T.);
#611=EDGE_CURVE('',#778,#777,#905,.T.);
#612=EDGE_CURVE('',#778,#691,#906,.T.);
#613=EDGE_CURVE('',#776,#690,#907,.T.);
#614=EDGE_CURVE('',#737,#735,#68,.T.);
#615=EDGE_CURVE('',#733,#731,#69,.T.);
#616=EDGE_CURVE('',#724,#725,#70,.T.);
#617=EDGE_CURVE('',#720,#721,#71,.T.);
#618=EDGE_CURVE('',#779,#780,#908,.T.);
#619=EDGE_CURVE('',#779,#760,#909,.T.);
#620=EDGE_CURVE('',#761,#780,#910,.T.);
#621=EDGE_CURVE('',#781,#763,#911,.T.);
#622=EDGE_CURVE('',#781,#780,#912,.T.);
#623=EDGE_CURVE('',#782,#769,#913,.T.);
#624=EDGE_CURVE('',#782,#674,#914,.T.);
#625=EDGE_CURVE('',#783,#668,#915,.T.);
#626=EDGE_CURVE('',#783,#764,#916,.T.);
#627=EDGE_CURVE('',#755,#773,#917,.T.);
#628=EDGE_CURVE('',#757,#774,#918,.T.);
#629=EDGE_CURVE('',#756,#771,#919,.T.);
#630=EDGE_CURVE('',#754,#772,#920,.T.);
#631=EDGE_CURVE('',#784,#785,#921,.T.);
#632=EDGE_CURVE('',#784,#777,#922,.F.);
#633=EDGE_CURVE('',#785,#710,#923,.T.);
#634=EDGE_CURVE('',#775,#786,#924,.F.);
#635=EDGE_CURVE('',#786,#787,#925,.T.);
#636=EDGE_CURVE('',#787,#713,#926,.T.);
#637=EDGE_CURVE('',#787,#785,#927,.T.);
#638=EDGE_CURVE('',#670,#788,#928,.T.);
#639=EDGE_CURVE('',#671,#789,#929,.T.);
#640=EDGE_CURVE('',#789,#788,#930,.T.);
#641=EDGE_CURVE('',#779,#790,#931,.T.);
#642=EDGE_CURVE('',#781,#790,#932,.T.);
#643=EDGE_CURVE('',#666,#791,#933,.T.);
#644=EDGE_CURVE('',#791,#783,#934,.T.);
#645=EDGE_CURVE('',#792,#782,#935,.T.);
#646=EDGE_CURVE('',#675,#792,#936,.T.);
#647=EDGE_CURVE('',#793,#678,#937,.T.);
#648=EDGE_CURVE('',#794,#793,#938,.T.);
#649=EDGE_CURVE('',#794,#679,#939,.T.);
#650=EDGE_CURVE('',#795,#683,#940,.T.);
#651=EDGE_CURVE('',#795,#686,#941,.T.);
#652=EDGE_CURVE('',#796,#689,#942,.T.);
#653=EDGE_CURVE('',#796,#784,#943,.T.);
#654=EDGE_CURVE('',#786,#797,#944,.T.);
#655=EDGE_CURVE('',#797,#688,#945,.T.);
#656=EDGE_CURVE('',#778,#796,#946,.F.);
#657=EDGE_CURVE('',#797,#776,#947,.F.);
#658=EDGE_CURVE('',#790,#762,#948,.T.);
#659=EDGE_CURVE('',#792,#768,#949,.T.);
#660=EDGE_CURVE('',#794,#767,#950,.T.);
#661=EDGE_CURVE('',#793,#766,#951,.T.);
#662=EDGE_CURVE('',#795,#770,#952,.T.);
#663=EDGE_CURVE('',#791,#765,#953,.T.);
#664=EDGE_CURVE('',#788,#758,#954,.T.);
#665=EDGE_CURVE('',#789,#759,#955,.T.);
#666=VERTEX_POINT('',#1978);
#667=VERTEX_POINT('',#1979);
#668=VERTEX_POINT('',#1981);
#669=VERTEX_POINT('',#1983);
#670=VERTEX_POINT('',#1987);
#671=VERTEX_POINT('',#1988);
#672=VERTEX_POINT('',#1990);
#673=VERTEX_POINT('',#1992);
#674=VERTEX_POINT('',#1996);
#675=VERTEX_POINT('',#1997);
#676=VERTEX_POINT('',#1999);
#677=VERTEX_POINT('',#2001);
#678=VERTEX_POINT('',#2005);
#679=VERTEX_POINT('',#2006);
#680=VERTEX_POINT('',#2008);
#681=VERTEX_POINT('',#2010);
#682=VERTEX_POINT('',#2014);
#683=VERTEX_POINT('',#2015);
#684=VERTEX_POINT('',#2017);
#685=VERTEX_POINT('',#2019);
#686=VERTEX_POINT('',#2023);
#687=VERTEX_POINT('',#2024);
#688=VERTEX_POINT('',#2029);
#689=VERTEX_POINT('',#2030);
#690=VERTEX_POINT('',#2032);
#691=VERTEX_POINT('',#2034);
#692=VERTEX_POINT('',#2038);
#693=VERTEX_POINT('',#2039);
#694=VERTEX_POINT('',#2041);
#695=VERTEX_POINT('',#2043);
#696=VERTEX_POINT('',#2047);
#697=VERTEX_POINT('',#2048);
#698=VERTEX_POINT('',#2050);
#699=VERTEX_POINT('',#2052);
#700=VERTEX_POINT('',#2056);
#701=VERTEX_POINT('',#2057);
#702=VERTEX_POINT('',#2060);
#703=VERTEX_POINT('',#2062);
#704=VERTEX_POINT('',#2064);
#705=VERTEX_POINT('',#2065);
#706=VERTEX_POINT('',#2068);
#707=VERTEX_POINT('',#2069);
#708=VERTEX_POINT('',#2072);
#709=VERTEX_POINT('',#2073);
#710=VERTEX_POINT('',#2076);
#711=VERTEX_POINT('',#2078);
#712=VERTEX_POINT('',#2080);
#713=VERTEX_POINT('',#2083);
#714=VERTEX_POINT('',#2087);
#715=VERTEX_POINT('',#2088);
#716=VERTEX_POINT('',#2093);
#717=VERTEX_POINT('',#2094);
#718=VERTEX_POINT('',#2099);
#719=VERTEX_POINT('',#2100);
#720=VERTEX_POINT('',#2102);
#721=VERTEX_POINT('',#2104);
#722=VERTEX_POINT('',#2108);
#723=VERTEX_POINT('',#2109);
#724=VERTEX_POINT('',#2111);
#725=VERTEX_POINT('',#2113);
#726=VERTEX_POINT('',#2117);
#727=VERTEX_POINT('',#2119);
#728=VERTEX_POINT('',#2123);
#729=VERTEX_POINT('',#2125);
#730=VERTEX_POINT('',#2129);
#731=VERTEX_POINT('',#2130);
#732=VERTEX_POINT('',#2132);
#733=VERTEX_POINT('',#2134);
#734=VERTEX_POINT('',#2138);
#735=VERTEX_POINT('',#2139);
#736=VERTEX_POINT('',#2141);
#737=VERTEX_POINT('',#2143);
#738=VERTEX_POINT('',#2147);
#739=VERTEX_POINT('',#2149);
#740=VERTEX_POINT('',#2153);
#741=VERTEX_POINT('',#2155);
#742=VERTEX_POINT('',#2159);
#743=VERTEX_POINT('',#2161);
#744=VERTEX_POINT('',#2166);
#745=VERTEX_POINT('',#2170);
#746=VERTEX_POINT('',#2174);
#747=VERTEX_POINT('',#2178);
#748=VERTEX_POINT('',#2182);
#749=VERTEX_POINT('',#2185);
#750=VERTEX_POINT('',#2187);
#751=VERTEX_POINT('',#2190);
#752=VERTEX_POINT('',#2192);
#753=VERTEX_POINT('',#2197);
#754=VERTEX_POINT('',#2201);
#755=VERTEX_POINT('',#2202);
#756=VERTEX_POINT('',#2204);
#757=VERTEX_POINT('',#2206);
#758=VERTEX_POINT('',#2214);
#759=VERTEX_POINT('',#2216);
#760=VERTEX_POINT('',#2219);
#761=VERTEX_POINT('',#2220);
#762=VERTEX_POINT('',#2222);
#763=VERTEX_POINT('',#2224);
#764=VERTEX_POINT('',#2227);
#765=VERTEX_POINT('',#2229);
#766=VERTEX_POINT('',#2232);
#767=VERTEX_POINT('',#2234);
#768=VERTEX_POINT('',#2237);
#769=VERTEX_POINT('',#2238);
#770=VERTEX_POINT('',#2243);
#771=VERTEX_POINT('',#2252);
#772=VERTEX_POINT('',#2253);
#773=VERTEX_POINT('',#2255);
#774=VERTEX_POINT('',#2257);
#775=VERTEX_POINT('',#2260);
#776=VERTEX_POINT('',#2261);
#777=VERTEX_POINT('',#2264);
#778=VERTEX_POINT('',#2266);
#779=VERTEX_POINT('',#2283);
#780=VERTEX_POINT('',#2284);
#781=VERTEX_POINT('',#2289);
#782=VERTEX_POINT('',#2293);
#783=VERTEX_POINT('',#2297);
#784=VERTEX_POINT('',#2308);
#785=VERTEX_POINT('',#2309);
#786=VERTEX_POINT('',#2314);
#787=VERTEX_POINT('',#2316);
#788=VERTEX_POINT('',#2322);
#789=VERTEX_POINT('',#2324);
#790=VERTEX_POINT('',#2327);
#791=VERTEX_POINT('',#2330);
#792=VERTEX_POINT('',#2333);
#793=VERTEX_POINT('',#2336);
#794=VERTEX_POINT('',#2338);
#795=VERTEX_POINT('',#2341);
#796=VERTEX_POINT('',#2344);
#797=VERTEX_POINT('',#2347);
#798=LINE('',#1977,#956);
#799=LINE('',#1980,#957);
#800=LINE('',#1982,#958);
#801=LINE('',#1984,#959);
#802=LINE('',#1986,#960);
#803=LINE('',#1989,#961);
#804=LINE('',#1991,#962);
#805=LINE('',#1993,#963);
#806=LINE('',#1995,#964);
#807=LINE('',#1998,#965);
#808=LINE('',#2000,#966);
#809=LINE('',#2002,#967);
#810=LINE('',#2004,#968);
#811=LINE('',#2007,#969);
#812=LINE('',#2009,#970);
#813=LINE('',#2011,#971);
#814=LINE('',#2013,#972);
#815=LINE('',#2016,#973);
#816=LINE('',#2018,#974);
#817=LINE('',#2020,#975);
#818=LINE('',#2022,#976);
#819=LINE('',#2025,#977);
#820=LINE('',#2026,#978);
#821=LINE('',#2028,#979);
#822=LINE('',#2031,#980);
#823=LINE('',#2033,#981);
#824=LINE('',#2035,#982);
#825=LINE('',#2037,#983);
#826=LINE('',#2040,#984);
#827=LINE('',#2042,#985);
#828=LINE('',#2044,#986);
#829=LINE('',#2046,#987);
#830=LINE('',#2049,#988);
#831=LINE('',#2051,#989);
#832=LINE('',#2053,#990);
#833=LINE('',#2075,#991);
#834=LINE('',#2077,#992);
#835=LINE('',#2079,#993);
#836=LINE('',#2081,#994);
#837=LINE('',#2082,#995);
#838=LINE('',#2084,#996);
#839=LINE('',#2089,#997);
#840=LINE('',#2090,#998);
#841=LINE('',#2095,#999);
#842=LINE('',#2096,#1000);
#843=LINE('',#2101,#1001);
#844=LINE('',#2105,#1002);
#845=LINE('',#2110,#1003);
#846=LINE('',#2114,#1004);
#847=LINE('',#2116,#1005);
#848=LINE('',#2120,#1006);
#849=LINE('',#2122,#1007);
#850=LINE('',#2126,#1008);
#851=LINE('',#2128,#1009);
#852=LINE('',#2133,#1010);
#853=LINE('',#2137,#1011);
#854=LINE('',#2142,#1012);
#855=LINE('',#2146,#1013);
#856=LINE('',#2148,#1014);
#857=LINE('',#2150,#1015);
#858=LINE('',#2152,#1016);
#859=LINE('',#2154,#1017);
#860=LINE('',#2156,#1018);
#861=LINE('',#2158,#1019);
#862=LINE('',#2160,#1020);
#863=LINE('',#2162,#1021);
#864=LINE('',#2164,#1022);
#865=LINE('',#2165,#1023);
#866=LINE('',#2167,#1024);
#867=LINE('',#2169,#1025);
#868=LINE('',#2171,#1026);
#869=LINE('',#2173,#1027);
#870=LINE('',#2175,#1028);
#871=LINE('',#2177,#1029);
#872=LINE('',#2179,#1030);
#873=LINE('',#2194,#1031);
#874=LINE('',#2199,#1032);
#875=LINE('',#2200,#1033);
#876=LINE('',#2203,#1034);
#877=LINE('',#2205,#1035);
#878=LINE('',#2207,#1036);
#879=LINE('',#2213,#1037);
#880=LINE('',#2215,#1038);
#881=LINE('',#2217,#1039);
#882=LINE('',#2218,#1040);
#883=LINE('',#2221,#1041);
#884=LINE('',#2223,#1042);
#885=LINE('',#2225,#1043);
#886=LINE('',#2226,#1044);
#887=LINE('',#2228,#1045);
#888=LINE('',#2230,#1046);
#889=LINE('',#2231,#1047);
#890=LINE('',#2233,#1048);
#891=LINE('',#2235,#1049);
#892=LINE('',#2236,#1050);
#893=LINE('',#2239,#1051);
#894=LINE('',#2240,#1052);
#895=LINE('',#2241,#1053);
#896=LINE('',#2242,#1054);
#897=LINE('',#2244,#1055);
#898=LINE('',#2251,#1056);
#899=LINE('',#2254,#1057);
#900=LINE('',#2256,#1058);
#901=LINE('',#2258,#1059);
#902=LINE('',#2259,#1060);
#903=LINE('',#2262,#1061);
#904=LINE('',#2263,#1062);
#905=LINE('',#2265,#1063);
#906=LINE('',#2267,#1064);
#907=LINE('',#2268,#1065);
#908=LINE('',#2282,#1066);
#909=LINE('',#2285,#1067);
#910=LINE('',#2286,#1068);
#911=LINE('',#2288,#1069);
#912=LINE('',#2290,#1070);
#913=LINE('',#2292,#1071);
#914=LINE('',#2294,#1072);
#915=LINE('',#2296,#1073);
#916=LINE('',#2298,#1074);
#917=LINE('',#2300,#1075);
#918=LINE('',#2301,#1076);
#919=LINE('',#2303,#1077);
#920=LINE('',#2305,#1078);
#921=LINE('',#2307,#1079);
#922=LINE('',#2310,#1080);
#923=LINE('',#2311,#1081);
#924=LINE('',#2313,#1082);
#925=LINE('',#2315,#1083);
#926=LINE('',#2317,#1084);
#927=LINE('',#2319,#1085);
#928=LINE('',#2321,#1086);
#929=LINE('',#2323,#1087);
#930=LINE('',#2325,#1088);
#931=LINE('',#2326,#1089);
#932=LINE('',#2328,#1090);
#933=LINE('',#2329,#1091);
#934=LINE('',#2331,#1092);
#935=LINE('',#2332,#1093);
#936=LINE('',#2334,#1094);
#937=LINE('',#2335,#1095);
#938=LINE('',#2337,#1096);
#939=LINE('',#2339,#1097);
#940=LINE('',#2340,#1098);
#941=LINE('',#2342,#1099);
#942=LINE('',#2343,#1100);
#943=LINE('',#2345,#1101);
#944=LINE('',#2346,#1102);
#945=LINE('',#2348,#1103);
#946=LINE('',#2350,#1104);
#947=LINE('',#2352,#1105);
#948=LINE('',#2357,#1106);
#949=LINE('',#2360,#1107);
#950=LINE('',#2363,#1108);
#951=LINE('',#2365,#1109);
#952=LINE('',#2368,#1110);
#953=LINE('',#2371,#1111);
#954=LINE('',#2374,#1112);
#955=LINE('',#2376,#1113);
#956=VECTOR('',#1595,1.);
#957=VECTOR('',#1596,1.);
#958=VECTOR('',#1597,1.);
#959=VECTOR('',#1598,1.);
#960=VECTOR('',#1601,1.);
#961=VECTOR('',#1602,1.);
#962=VECTOR('',#1603,1.);
#963=VECTOR('',#1604,1.);
#964=VECTOR('',#1607,1.);
#965=VECTOR('',#1608,1.);
#966=VECTOR('',#1609,1.);
#967=VECTOR('',#1610,1.);
#968=VECTOR('',#1613,1.);
#969=VECTOR('',#1614,1.);
#970=VECTOR('',#1615,1.);
#971=VECTOR('',#1616,1.);
#972=VECTOR('',#1619,1.);
#973=VECTOR('',#1620,1.);
#974=VECTOR('',#1621,1.);
#975=VECTOR('',#1622,1.);
#976=VECTOR('',#1625,1.);
#977=VECTOR('',#1626,1.);
#978=VECTOR('',#1627,1.);
#979=VECTOR('',#1630,1.);
#980=VECTOR('',#1631,1.);
#981=VECTOR('',#1632,1.);
#982=VECTOR('',#1633,1.);
#983=VECTOR('',#1636,1.);
#984=VECTOR('',#1637,1.);
#985=VECTOR('',#1638,1.);
#986=VECTOR('',#1639,1.);
#987=VECTOR('',#1642,1.);
#988=VECTOR('',#1643,1.);
#989=VECTOR('',#1644,1.);
#990=VECTOR('',#1645,1.);
#991=VECTOR('',#1668,1.);
#992=VECTOR('',#1669,1.);
#993=VECTOR('',#1670,1.);
#994=VECTOR('',#1671,1.);
#995=VECTOR('',#1672,1.);
#996=VECTOR('',#1673,1.);
#997=VECTOR('',#1678,1.);
#998=VECTOR('',#1679,1.);
#999=VECTOR('',#1684,1.);
#1000=VECTOR('',#1685,1.);
#1001=VECTOR('',#1690,1.);
#1002=VECTOR('',#1693,1.);
#1003=VECTOR('',#1698,1.);
#1004=VECTOR('',#1701,1.);
#1005=VECTOR('',#1704,1.);
#1006=VECTOR('',#1707,1.);
#1007=VECTOR('',#1710,1.);
#1008=VECTOR('',#1713,1.);
#1009=VECTOR('',#1716,1.);
#1010=VECTOR('',#1719,1.);
#1011=VECTOR('',#1724,1.);
#1012=VECTOR('',#1727,1.);
#1013=VECTOR('',#1732,1.);
#1014=VECTOR('',#1733,1.);
#1015=VECTOR('',#1734,1.);
#1016=VECTOR('',#1737,1.);
#1017=VECTOR('',#1738,1.);
#1018=VECTOR('',#1739,1.);
#1019=VECTOR('',#1742,1.);
#1020=VECTOR('',#1743,1.);
#1021=VECTOR('',#1744,1.);
#1022=VECTOR('',#1747,1.);
#1023=VECTOR('',#1748,1.);
#1024=VECTOR('',#1749,1.);
#1025=VECTOR('',#1752,1.);
#1026=VECTOR('',#1753,1.);
#1027=VECTOR('',#1756,1.);
#1028=VECTOR('',#1757,1.);
#1029=VECTOR('',#1760,1.);
#1030=VECTOR('',#1761,1.);
#1031=VECTOR('',#1780,1.);
#1032=VECTOR('',#1787,1.);
#1033=VECTOR('',#1788,1.);
#1034=VECTOR('',#1789,1.);
#1035=VECTOR('',#1790,1.);
#1036=VECTOR('',#1791,1.);
#1037=VECTOR('',#1802,1.);
#1038=VECTOR('',#1803,1.);
#1039=VECTOR('',#1804,1.);
#1040=VECTOR('',#1805,1.);
#1041=VECTOR('',#1806,1.);
#1042=VECTOR('',#1807,1.);
#1043=VECTOR('',#1808,1.);
#1044=VECTOR('',#1809,1.);
#1045=VECTOR('',#1810,1.);
#1046=VECTOR('',#1811,1.);
#1047=VECTOR('',#1812,1.);
#1048=VECTOR('',#1813,1.);
#1049=VECTOR('',#1814,1.);
#1050=VECTOR('',#1815,1.);
#1051=VECTOR('',#1816,1.);
#1052=VECTOR('',#1817,1.);
#1053=VECTOR('',#1818,1.);
#1054=VECTOR('',#1819,1.);
#1055=VECTOR('',#1820,1.);
#1056=VECTOR('',#1833,1.);
#1057=VECTOR('',#1834,1.);
#1058=VECTOR('',#1835,1.);
#1059=VECTOR('',#1836,1.);
#1060=VECTOR('',#1837,1.);
#1061=VECTOR('',#1838,1.);
#1062=VECTOR('',#1839,1.);
#1063=VECTOR('',#1840,1.);
#1064=VECTOR('',#1841,1.);
#1065=VECTOR('',#1842,1.);
#1066=VECTOR('',#1869,1.);
#1067=VECTOR('',#1870,1.);
#1068=VECTOR('',#1871,1.);
#1069=VECTOR('',#1874,1.);
#1070=VECTOR('',#1875,1.);
#1071=VECTOR('',#1878,1.);
#1072=VECTOR('',#1879,1.);
#1073=VECTOR('',#1882,1.);
#1074=VECTOR('',#1883,1.);
#1075=VECTOR('',#1886,1.);
#1076=VECTOR('',#1887,1.);
#1077=VECTOR('',#1890,1.);
#1078=VECTOR('',#1893,1.);
#1079=VECTOR('',#1896,1.);
#1080=VECTOR('',#1897,1.);
#1081=VECTOR('',#1898,1.);
#1082=VECTOR('',#1901,1.);
#1083=VECTOR('',#1902,1.);
#1084=VECTOR('',#1903,1.);
#1085=VECTOR('',#1906,1.);
#1086=VECTOR('',#1909,1.);
#1087=VECTOR('',#1910,1.);
#1088=VECTOR('',#1911,1.);
#1089=VECTOR('',#1912,1.);
#1090=VECTOR('',#1913,1.);
#1091=VECTOR('',#1914,1.);
#1092=VECTOR('',#1915,1.);
#1093=VECTOR('',#1916,1.);
#1094=VECTOR('',#1917,1.);
#1095=VECTOR('',#1918,1.);
#1096=VECTOR('',#1919,1.);
#1097=VECTOR('',#1920,1.);
#1098=VECTOR('',#1921,1.);
#1099=VECTOR('',#1922,1.);
#1100=VECTOR('',#1923,1.);
#1101=VECTOR('',#1924,1.);
#1102=VECTOR('',#1925,1.);
#1103=VECTOR('',#1926,1.);
#1104=VECTOR('',#1929,1.);
#1105=VECTOR('',#1932,1.);
#1106=VECTOR('',#1941,1.);
#1107=VECTOR('',#1946,1.);
#1108=VECTOR('',#1951,1.);
#1109=VECTOR('',#1954,1.);
#1110=VECTOR('',#1959,1.);
#1111=VECTOR('',#1964,1.);
#1112=VECTOR('',#1969,1.);
#1113=VECTOR('',#1972,1.);
#1114=EDGE_LOOP('',(#72,#73,#74,#75));
#1115=EDGE_LOOP('',(#76,#77,#78,#79));
#1116=EDGE_LOOP('',(#80,#81,#82,#83));
#1117=EDGE_LOOP('',(#84,#85,#86,#87));
#1118=EDGE_LOOP('',(#88,#89,#90,#91));
#1119=EDGE_LOOP('',(#92,#93,#94,#95));
#1120=EDGE_LOOP('',(#96,#97,#98,#99));
#1121=EDGE_LOOP('',(#100,#101,#102,#103));
#1122=EDGE_LOOP('',(#104,#105,#106,#107));
#1123=EDGE_LOOP('',(#108,#109));
#1124=EDGE_LOOP('',(#110));
#1125=EDGE_LOOP('',(#111));
#1126=EDGE_LOOP('',(#112,#113));
#1127=EDGE_LOOP('',(#114,#115));
#1128=EDGE_LOOP('',(#116,#117));
#1129=EDGE_LOOP('',(#118,#119,#120,#121,#122,#123,#124,#125));
#1130=EDGE_LOOP('',(#126,#127,#128,#129));
#1131=EDGE_LOOP('',(#130,#131,#132,#133));
#1132=EDGE_LOOP('',(#134,#135,#136,#137));
#1133=EDGE_LOOP('',(#138,#139,#140,#141));
#1134=EDGE_LOOP('',(#142,#143,#144,#145));
#1135=EDGE_LOOP('',(#146,#147,#148,#149));
#1136=EDGE_LOOP('',(#150,#151,#152,#153));
#1137=EDGE_LOOP('',(#154,#155,#156,#157));
#1138=EDGE_LOOP('',(#158,#159,#160,#161));
#1139=EDGE_LOOP('',(#162,#163,#164,#165));
#1140=EDGE_LOOP('',(#166,#167,#168,#169));
#1141=EDGE_LOOP('',(#170,#171,#172,#173));
#1142=EDGE_LOOP('',(#174,#175,#176,#177));
#1143=EDGE_LOOP('',(#178,#179,#180,#181));
#1144=EDGE_LOOP('',(#182,#183,#184,#185));
#1145=EDGE_LOOP('',(#186));
#1146=EDGE_LOOP('',(#187));
#1147=EDGE_LOOP('',(#188));
#1148=EDGE_LOOP('',(#189));
#1149=EDGE_LOOP('',(#190));
#1150=EDGE_LOOP('',(#191));
#1151=EDGE_LOOP('',(#192,#193,#194,#195));
#1152=EDGE_LOOP('',(#196));
#1153=EDGE_LOOP('',(#197));
#1154=EDGE_LOOP('',(#198,#199,#200,#201));
#1155=EDGE_LOOP('',(#202,#203,#204,#205));
#1156=EDGE_LOOP('',(#206,#207));
#1157=EDGE_LOOP('',(#208,#209));
#1158=EDGE_LOOP('',(#210,#211));
#1159=EDGE_LOOP('',(#212,#213));
#1160=EDGE_LOOP('',(#214));
#1161=EDGE_LOOP('',(#215));
#1162=EDGE_LOOP('',(#216,#217,#218,#219));
#1163=EDGE_LOOP('',(#220,#221,#222,#223));
#1164=EDGE_LOOP('',(#224,#225,#226,#227));
#1165=EDGE_LOOP('',(#228,#229,#230,#231));
#1166=EDGE_LOOP('',(#232,#233,#234,#235));
#1167=EDGE_LOOP('',(#236,#237,#238,#239));
#1168=EDGE_LOOP('',(#240,#241,#242,#243));
#1169=EDGE_LOOP('',(#244,#245));
#1170=EDGE_LOOP('',(#246));
#1171=EDGE_LOOP('',(#247));
#1172=EDGE_LOOP('',(#248,#249));
#1173=EDGE_LOOP('',(#250,#251));
#1174=EDGE_LOOP('',(#252,#253));
#1175=EDGE_LOOP('',(#254,#255,#256,#257));
#1176=EDGE_LOOP('',(#258,#259,#260,#261));
#1177=EDGE_LOOP('',(#262,#263,#264,#265,#266,#267,#268,#269,#270,#271,#272,
#273));
#1178=EDGE_LOOP('',(#274,#275));
#1179=EDGE_LOOP('',(#276,#277));
#1180=EDGE_LOOP('',(#278,#279));
#1181=EDGE_LOOP('',(#280,#281));
#1182=EDGE_LOOP('',(#282));
#1183=EDGE_LOOP('',(#283));
#1184=EDGE_LOOP('',(#284,#285,#286,#287));
#1185=EDGE_LOOP('',(#288,#289,#290,#291));
#1186=EDGE_LOOP('',(#292,#293,#294,#295));
#1187=EDGE_LOOP('',(#296,#297,#298,#299));
#1188=EDGE_LOOP('',(#300,#301,#302,#303));
#1189=EDGE_LOOP('',(#304,#305,#306,#307));
#1190=EDGE_LOOP('',(#308,#309,#310,#311));
#1191=EDGE_LOOP('',(#312,#313,#314,#315));
#1192=EDGE_LOOP('',(#316,#317,#318,#319));
#1193=EDGE_LOOP('',(#320,#321,#322,#323));
#1194=EDGE_LOOP('',(#324,#325,#326,#327));
#1195=EDGE_LOOP('',(#328,#329,#330,#331));
#1196=EDGE_LOOP('',(#332,#333,#334,#335));
#1197=EDGE_LOOP('',(#336,#337,#338,#339));
#1198=EDGE_LOOP('',(#340,#341,#342,#343));
#1199=EDGE_LOOP('',(#344,#345,#346,#347,#348,#349));
#1200=EDGE_LOOP('',(#350,#351,#352,#353,#354,#355));
#1201=EDGE_LOOP('',(#356,#357,#358,#359));
#1202=EDGE_LOOP('',(#360,#361,#362,#363));
#1203=EDGE_LOOP('',(#364,#365,#366,#367));
#1204=EDGE_LOOP('',(#368,#369,#370,#371));
#1205=EDGE_LOOP('',(#372,#373,#374,#375));
#1206=EDGE_LOOP('',(#376,#377,#378,#379));
#1207=EDGE_LOOP('',(#380,#381,#382,#383));
#1208=EDGE_LOOP('',(#384,#385,#386,#387,#388,#389,#390,#391));
#1209=EDGE_LOOP('',(#392,#393,#394,#395));
#1210=EDGE_LOOP('',(#396,#397,#398,#399));
#1211=EDGE_LOOP('',(#400,#401,#402,#403));
#1212=EDGE_LOOP('',(#404,#405,#406,#407));
#1213=EDGE_LOOP('',(#408,#409,#410,#411));
#1214=EDGE_LOOP('',(#412,#413,#414,#415));
#1215=EDGE_LOOP('',(#416,#417,#418,#419));
#1216=EDGE_LOOP('',(#420,#421,#422,#423));
#1217=EDGE_LOOP('',(#424,#425,#426,#427));
#1218=EDGE_LOOP('',(#428,#429,#430,#431));
#1219=EDGE_LOOP('',(#432,#433,#434,#435));
#1220=EDGE_LOOP('',(#436,#437,#438,#439));
#1221=EDGE_LOOP('',(#440,#441,#442,#443));
#1222=EDGE_LOOP('',(#444,#445,#446,#447));
#1223=EDGE_LOOP('',(#448,#449,#450,#451));
#1224=EDGE_LOOP('',(#452,#453,#454,#455));
#1225=EDGE_LOOP('',(#456,#457,#458,#459));
#1226=EDGE_LOOP('',(#460,#461,#462,#463));
#1227=EDGE_LOOP('',(#464,#465,#466,#467));
#1228=FACE_BOUND('',#1114,.T.);
#1229=FACE_BOUND('',#1115,.T.);
#1230=FACE_BOUND('',#1116,.T.);
#1231=FACE_BOUND('',#1117,.T.);
#1232=FACE_BOUND('',#1118,.T.);
#1233=FACE_BOUND('',#1119,.T.);
#1234=FACE_BOUND('',#1120,.T.);
#1235=FACE_BOUND('',#1121,.T.);
#1236=FACE_BOUND('',#1122,.T.);
#1237=FACE_BOUND('',#1123,.T.);
#1238=FACE_BOUND('',#1124,.T.);
#1239=FACE_BOUND('',#1125,.T.);
#1240=FACE_BOUND('',#1126,.T.);
#1241=FACE_BOUND('',#1127,.T.);
#1242=FACE_BOUND('',#1128,.T.);
#1243=FACE_BOUND('',#1129,.T.);
#1244=FACE_BOUND('',#1130,.T.);
#1245=FACE_BOUND('',#1131,.T.);
#1246=FACE_BOUND('',#1132,.T.);
#1247=FACE_BOUND('',#1133,.T.);
#1248=FACE_BOUND('',#1134,.T.);
#1249=FACE_BOUND('',#1135,.T.);
#1250=FACE_BOUND('',#1136,.T.);
#1251=FACE_BOUND('',#1137,.T.);
#1252=FACE_BOUND('',#1138,.T.);
#1253=FACE_BOUND('',#1139,.T.);
#1254=FACE_BOUND('',#1140,.T.);
#1255=FACE_BOUND('',#1141,.T.);
#1256=FACE_BOUND('',#1142,.T.);
#1257=FACE_BOUND('',#1143,.T.);
#1258=FACE_BOUND('',#1144,.T.);
#1259=FACE_BOUND('',#1145,.T.);
#1260=FACE_BOUND('',#1146,.T.);
#1261=FACE_BOUND('',#1147,.T.);
#1262=FACE_BOUND('',#1148,.T.);
#1263=FACE_BOUND('',#1149,.T.);
#1264=FACE_BOUND('',#1150,.T.);
#1265=FACE_BOUND('',#1151,.T.);
#1266=FACE_BOUND('',#1152,.T.);
#1267=FACE_BOUND('',#1153,.T.);
#1268=FACE_BOUND('',#1154,.T.);
#1269=FACE_BOUND('',#1155,.T.);
#1270=FACE_BOUND('',#1156,.T.);
#1271=FACE_BOUND('',#1157,.T.);
#1272=FACE_BOUND('',#1158,.T.);
#1273=FACE_BOUND('',#1159,.T.);
#1274=FACE_BOUND('',#1160,.T.);
#1275=FACE_BOUND('',#1161,.T.);
#1276=FACE_BOUND('',#1162,.T.);
#1277=FACE_BOUND('',#1163,.T.);
#1278=FACE_BOUND('',#1164,.T.);
#1279=FACE_BOUND('',#1165,.T.);
#1280=FACE_BOUND('',#1166,.T.);
#1281=FACE_BOUND('',#1167,.T.);
#1282=FACE_BOUND('',#1168,.T.);
#1283=FACE_BOUND('',#1169,.T.);
#1284=FACE_BOUND('',#1170,.T.);
#1285=FACE_BOUND('',#1171,.T.);
#1286=FACE_BOUND('',#1172,.T.);
#1287=FACE_BOUND('',#1173,.T.);
#1288=FACE_BOUND('',#1174,.T.);
#1289=FACE_BOUND('',#1175,.T.);
#1290=FACE_BOUND('',#1176,.T.);
#1291=FACE_BOUND('',#1177,.T.);
#1292=FACE_BOUND('',#1178,.T.);
#1293=FACE_BOUND('',#1179,.T.);
#1294=FACE_BOUND('',#1180,.T.);
#1295=FACE_BOUND('',#1181,.T.);
#1296=FACE_BOUND('',#1182,.T.);
#1297=FACE_BOUND('',#1183,.T.);
#1298=FACE_BOUND('',#1184,.T.);
#1299=FACE_BOUND('',#1185,.T.);
#1300=FACE_BOUND('',#1186,.T.);
#1301=FACE_BOUND('',#1187,.T.);
#1302=FACE_BOUND('',#1188,.T.);
#1303=FACE_BOUND('',#1189,.T.);
#1304=FACE_BOUND('',#1190,.T.);
#1305=FACE_BOUND('',#1191,.T.);
#1306=FACE_BOUND('',#1192,.T.);
#1307=FACE_BOUND('',#1193,.T.);
#1308=FACE_BOUND('',#1194,.T.);
#1309=FACE_BOUND('',#1195,.T.);
#1310=FACE_BOUND('',#1196,.T.);
#1311=FACE_BOUND('',#1197,.T.);
#1312=FACE_BOUND('',#1198,.T.);
#1313=FACE_BOUND('',#1199,.T.);
#1314=FACE_BOUND('',#1200,.T.);
#1315=FACE_BOUND('',#1201,.T.);
#1316=FACE_BOUND('',#1202,.T.);
#1317=FACE_BOUND('',#1203,.T.);
#1318=FACE_BOUND('',#1204,.T.);
#1319=FACE_BOUND('',#1205,.T.);
#1320=FACE_BOUND('',#1206,.T.);
#1321=FACE_BOUND('',#1207,.T.);
#1322=FACE_BOUND('',#1208,.T.);
#1323=FACE_BOUND('',#1209,.T.);
#1324=FACE_BOUND('',#1210,.T.);
#1325=FACE_BOUND('',#1211,.T.);
#1326=FACE_BOUND('',#1212,.T.);
#1327=FACE_BOUND('',#1213,.T.);
#1328=FACE_BOUND('',#1214,.T.);
#1329=FACE_BOUND('',#1215,.T.);
#1330=FACE_BOUND('',#1216,.T.);
#1331=FACE_BOUND('',#1217,.T.);
#1332=FACE_BOUND('',#1218,.T.);
#1333=FACE_BOUND('',#1219,.T.);
#1334=FACE_BOUND('',#1220,.T.);
#1335=FACE_BOUND('',#1221,.T.);
#1336=FACE_BOUND('',#1222,.T.);
#1337=FACE_BOUND('',#1223,.T.);
#1338=FACE_BOUND('',#1224,.T.);
#1339=FACE_BOUND('',#1225,.T.);
#1340=FACE_BOUND('',#1226,.T.);
#1341=FACE_BOUND('',#1227,.T.);
#1342=PLANE('',#1479);
#1343=PLANE('',#1480);
#1344=PLANE('',#1481);
#1345=PLANE('',#1482);
#1346=PLANE('',#1483);
#1347=PLANE('',#1484);
#1348=PLANE('',#1485);
#1349=PLANE('',#1486);
#1350=PLANE('',#1487);
#1351=PLANE('',#1488);
#1352=PLANE('',#1519);
#1353=PLANE('',#1520);
#1354=PLANE('',#1521);
#1355=PLANE('',#1522);
#1356=PLANE('',#1523);
#1357=PLANE('',#1524);
#1358=PLANE('',#1525);
#1359=PLANE('',#1534);
#1360=PLANE('',#1537);
#1361=PLANE('',#1542);
#1362=PLANE('',#1547);
#1363=PLANE('',#1548);
#1364=PLANE('',#1561);
#1365=PLANE('',#1562);
#1366=PLANE('',#1563);
#1367=PLANE('',#1564);
#1368=PLANE('',#1565);
#1369=PLANE('',#1566);
#1370=PLANE('',#1567);
#1371=PLANE('',#1568);
#1372=PLANE('',#1569);
#1373=PLANE('',#1570);
#1374=PLANE('',#1571);
#1375=PLANE('',#1572);
#1376=PLANE('',#1573);
#1377=PLANE('',#1574);
#1378=PLANE('',#1575);
#1379=PLANE('',#1576);
#1380=PLANE('',#1577);
#1381=PLANE('',#1578);
#1382=PLANE('',#1579);
#1383=PLANE('',#1580);
#1384=PLANE('',#1581);
#1385=PLANE('',#1582);
#1386=PLANE('',#1583);
#1387=PLANE('',#1584);
#1388=PLANE('',#1585);
#1389=PLANE('',#1586);
#1390=PLANE('',#1587);
#1391=PLANE('',#1588);
#1392=PLANE('',#1589);
#1393=PLANE('',#1590);
#1394=ADVANCED_FACE('',(#1228),#1342,.F.);
#1395=ADVANCED_FACE('',(#1229),#1343,.F.);
#1396=ADVANCED_FACE('',(#1230),#1344,.T.);
#1397=ADVANCED_FACE('',(#1231),#1345,.T.);
#1398=ADVANCED_FACE('',(#1232),#1346,.T.);
#1399=ADVANCED_FACE('',(#1233),#1347,.F.);
#1400=ADVANCED_FACE('',(#1234),#1348,.F.);
#1401=ADVANCED_FACE('',(#1235),#1349,.T.);
#1402=ADVANCED_FACE('',(#1236),#1350,.T.);
#1403=ADVANCED_FACE('',(#1237,#1238,#1239,#1240,#1241,#1242,#1243),#1351,
 .F.);
#1404=ADVANCED_FACE('',(#1244),#12,.F.);
#1405=ADVANCED_FACE('',(#1245),#13,.F.);
#1406=ADVANCED_FACE('',(#1246),#14,.F.);
#1407=ADVANCED_FACE('',(#1247),#15,.F.);
#1408=ADVANCED_FACE('',(#1248),#16,.F.);
#1409=ADVANCED_FACE('',(#1249),#17,.F.);
#1410=ADVANCED_FACE('',(#1250),#18,.F.);
#1411=ADVANCED_FACE('',(#1251),#19,.F.);
#1412=ADVANCED_FACE('',(#1252),#1352,.T.);
#1413=ADVANCED_FACE('',(#1253),#1353,.T.);
#1414=ADVANCED_FACE('',(#1254),#1354,.T.);
#1415=ADVANCED_FACE('',(#1255),#1355,.F.);
#1416=ADVANCED_FACE('',(#1256),#1356,.T.);
#1417=ADVANCED_FACE('',(#1257),#1357,.F.);
#1418=ADVANCED_FACE('',(#1258),#1358,.F.);
#1419=ADVANCED_FACE('',(#1259,#1260),#20,.F.);
#1420=ADVANCED_FACE('',(#1261,#1262),#21,.F.);
#1421=ADVANCED_FACE('',(#1263,#1264),#22,.F.);
#1422=ADVANCED_FACE('',(#1265),#1359,.T.);
#1423=ADVANCED_FACE('',(#1266,#1267),#23,.F.);
#1424=ADVANCED_FACE('',(#1268,#1269,#1270,#1271,#1272,#1273,#1274,#1275),
#1360,.T.);
#1425=ADVANCED_FACE('',(#1276,#1277,#1278,#1279,#1280,#1281,#1282,#1283,
#1284,#1285,#1286,#1287,#1288),#1361,.T.);
#1426=ADVANCED_FACE('',(#1289),#1362,.F.);
#1427=ADVANCED_FACE('',(#1290,#1291,#1292,#1293,#1294,#1295,#1296,#1297),
#1363,.F.);
#1428=ADVANCED_FACE('',(#1298),#24,.F.);
#1429=ADVANCED_FACE('',(#1299),#25,.F.);
#1430=ADVANCED_FACE('',(#1300),#26,.F.);
#1431=ADVANCED_FACE('',(#1301),#27,.F.);
#1432=ADVANCED_FACE('',(#1302),#28,.F.);
#1433=ADVANCED_FACE('',(#1303),#29,.F.);
#1434=ADVANCED_FACE('',(#1304),#30,.F.);
#1435=ADVANCED_FACE('',(#1305),#31,.F.);
#1436=ADVANCED_FACE('',(#1306),#1364,.F.);
#1437=ADVANCED_FACE('',(#1307),#1365,.T.);
#1438=ADVANCED_FACE('',(#1308),#1366,.T.);
#1439=ADVANCED_FACE('',(#1309),#1367,.F.);
#1440=ADVANCED_FACE('',(#1310),#1368,.T.);
#1441=ADVANCED_FACE('',(#1311),#1369,.T.);
#1442=ADVANCED_FACE('',(#1312),#1370,.F.);
#1443=ADVANCED_FACE('',(#1313),#1371,.F.);
#1444=ADVANCED_FACE('',(#1314),#1372,.T.);
#1445=ADVANCED_FACE('',(#1315),#1373,.T.);
#1446=ADVANCED_FACE('',(#1316,#1317,#1318,#1319,#1320,#1321,#1322),#1374,
 .F.);
#1447=ADVANCED_FACE('',(#1323),#1375,.T.);
#1448=ADVANCED_FACE('',(#1324),#1376,.F.);
#1449=ADVANCED_FACE('',(#1325),#1377,.F.);
#1450=ADVANCED_FACE('',(#1326),#1378,.F.);
#1451=ADVANCED_FACE('',(#1327),#1379,.F.);
#1452=ADVANCED_FACE('',(#1328),#1380,.T.);
#1453=ADVANCED_FACE('',(#1329),#1381,.F.);
#1454=ADVANCED_FACE('',(#1330),#1382,.T.);
#1455=ADVANCED_FACE('',(#1331),#1383,.T.);
#1456=ADVANCED_FACE('',(#1332),#1384,.F.);
#1457=ADVANCED_FACE('',(#1333),#1385,.T.);
#1458=ADVANCED_FACE('',(#1334),#1386,.T.);
#1459=ADVANCED_FACE('',(#1335),#1387,.F.);
#1460=ADVANCED_FACE('',(#1336),#1388,.T.);
#1461=ADVANCED_FACE('',(#1337),#1389,.F.);
#1462=ADVANCED_FACE('',(#1338),#1390,.F.);
#1463=ADVANCED_FACE('',(#1339),#1391,.T.);
#1464=ADVANCED_FACE('',(#1340),#1392,.F.);
#1465=ADVANCED_FACE('',(#1341),#1393,.F.);
#1466=CLOSED_SHELL('',(#1394,#1395,#1396,#1397,#1398,#1399,#1400,#1401,
#1402,#1403,#1404,#1405,#1406,#1407,#1408,#1409,#1410,#1411,#1412,#1413,
#1414,#1415,#1416,#1417,#1418,#1419,#1420,#1421,#1422,#1423,#1424,#1425,
#1426,#1427,#1428,#1429,#1430,#1431,#1432,#1433,#1434,#1435,#1436,#1437,
#1438,#1439,#1440,#1441,#1442,#1443,#1444,#1445,#1446,#1447,#1448,#1449,
#1450,#1451,#1452,#1453,#1454,#1455,#1456,#1457,#1458,#1459,#1460,#1461,
#1462,#1463,#1464,#1465));
#1467=STYLED_ITEM('',(#1468),#1475);
#1468=PRESENTATION_STYLE_ASSIGNMENT((#1469));
#1469=SURFACE_STYLE_USAGE(.BOTH.,#1470);
#1470=SURFACE_SIDE_STYLE('',(#1471));
#1471=SURFACE_STYLE_FILL_AREA(#1472);
#1472=FILL_AREA_STYLE('',(#1473));
#1473=FILL_AREA_STYLE_COLOUR('',#1474);
#1474=COLOUR_RGB('',0.768627450980392,0.886274509803922,0.952941176470588);
#1475=MANIFOLD_SOLID_BREP('MP3_COVER_Top',#1466);
#1476=SHAPE_DEFINITION_REPRESENTATION(#2384,#1477);
#1477=SHAPE_REPRESENTATION('MP3_COVER_Top',(#1478),#2379);
#1478=AXIS2_PLACEMENT_3D('',#1975,#1591,#1592);
#1479=AXIS2_PLACEMENT_3D('',#1976,#1593,#1594);
#1480=AXIS2_PLACEMENT_3D('',#1985,#1599,#1600);
#1481=AXIS2_PLACEMENT_3D('',#1994,#1605,#1606);
#1482=AXIS2_PLACEMENT_3D('',#2003,#1611,#1612);
#1483=AXIS2_PLACEMENT_3D('',#2012,#1617,#1618);
#1484=AXIS2_PLACEMENT_3D('',#2021,#1623,#1624);
#1485=AXIS2_PLACEMENT_3D('',#2027,#1628,#1629);
#1486=AXIS2_PLACEMENT_3D('',#2036,#1634,#1635);
#1487=AXIS2_PLACEMENT_3D('',#2045,#1640,#1641);
#1488=AXIS2_PLACEMENT_3D('',#2054,#1646,#1647);
#1489=AXIS2_PLACEMENT_3D('',#2055,#1648,#1649);
#1490=AXIS2_PLACEMENT_3D('',#2058,#1650,#1651);
#1491=AXIS2_PLACEMENT_3D('',#2059,#1652,#1653);
#1492=AXIS2_PLACEMENT_3D('',#2061,#1654,#1655);
#1493=AXIS2_PLACEMENT_3D('',#2063,#1656,#1657);
#1494=AXIS2_PLACEMENT_3D('',#2066,#1658,#1659);
#1495=AXIS2_PLACEMENT_3D('',#2067,#1660,#1661);
#1496=AXIS2_PLACEMENT_3D('',#2070,#1662,#1663);
#1497=AXIS2_PLACEMENT_3D('',#2071,#1664,#1665);
#1498=AXIS2_PLACEMENT_3D('',#2074,#1666,#1667);
#1499=AXIS2_PLACEMENT_3D('',#2085,#1674,#1675);
#1500=AXIS2_PLACEMENT_3D('',#2086,#1676,#1677);
#1501=AXIS2_PLACEMENT_3D('',#2091,#1680,#1681);
#1502=AXIS2_PLACEMENT_3D('',#2092,#1682,#1683);
#1503=AXIS2_PLACEMENT_3D('',#2097,#1686,#1687);
#1504=AXIS2_PLACEMENT_3D('',#2098,#1688,#1689);
#1505=AXIS2_PLACEMENT_3D('',#2103,#1691,#1692);
#1506=AXIS2_PLACEMENT_3D('',#2106,#1694,#1695);
#1507=AXIS2_PLACEMENT_3D('',#2107,#1696,#1697);
#1508=AXIS2_PLACEMENT_3D('',#2112,#1699,#1700);
#1509=AXIS2_PLACEMENT_3D('',#2115,#1702,#1703);
#1510=AXIS2_PLACEMENT_3D('',#2118,#1705,#1706);
#1511=AXIS2_PLACEMENT_3D('',#2121,#1708,#1709);
#1512=AXIS2_PLACEMENT_3D('',#2124,#1711,#1712);
#1513=AXIS2_PLACEMENT_3D('',#2127,#1714,#1715);
#1514=AXIS2_PLACEMENT_3D('',#2131,#1717,#1718);
#1515=AXIS2_PLACEMENT_3D('',#2135,#1720,#1721);
#1516=AXIS2_PLACEMENT_3D('',#2136,#1722,#1723);
#1517=AXIS2_PLACEMENT_3D('',#2140,#1725,#1726);
#1518=AXIS2_PLACEMENT_3D('',#2144,#1728,#1729);
#1519=AXIS2_PLACEMENT_3D('',#2145,#1730,#1731);
#1520=AXIS2_PLACEMENT_3D('',#2151,#1735,#1736);
#1521=AXIS2_PLACEMENT_3D('',#2157,#1740,#1741);
#1522=AXIS2_PLACEMENT_3D('',#2163,#1745,#1746);
#1523=AXIS2_PLACEMENT_3D('',#2168,#1750,#1751);
#1524=AXIS2_PLACEMENT_3D('',#2172,#1754,#1755);
#1525=AXIS2_PLACEMENT_3D('',#2176,#1758,#1759);
#1526=AXIS2_PLACEMENT_3D('',#2180,#1762,#1763);
#1527=AXIS2_PLACEMENT_3D('',#2181,#1764,#1765);
#1528=AXIS2_PLACEMENT_3D('',#2183,#1766,#1767);
#1529=AXIS2_PLACEMENT_3D('',#2184,#1768,#1769);
#1530=AXIS2_PLACEMENT_3D('',#2186,#1770,#1771);
#1531=AXIS2_PLACEMENT_3D('',#2188,#1772,#1773);
#1532=AXIS2_PLACEMENT_3D('',#2189,#1774,#1775);
#1533=AXIS2_PLACEMENT_3D('',#2191,#1776,#1777);
#1534=AXIS2_PLACEMENT_3D('',#2193,#1778,#1779);
#1535=AXIS2_PLACEMENT_3D('',#2195,#1781,#1782);
#1536=AXIS2_PLACEMENT_3D('',#2196,#1783,#1784);
#1537=AXIS2_PLACEMENT_3D('',#2198,#1785,#1786);
#1538=AXIS2_PLACEMENT_3D('',#2208,#1792,#1793);
#1539=AXIS2_PLACEMENT_3D('',#2209,#1794,#1795);
#1540=AXIS2_PLACEMENT_3D('',#2210,#1796,#1797);
#1541=AXIS2_PLACEMENT_3D('',#2211,#1798,#1799);
#1542=AXIS2_PLACEMENT_3D('',#2212,#1800,#1801);
#1543=AXIS2_PLACEMENT_3D('',#2245,#1821,#1822);
#1544=AXIS2_PLACEMENT_3D('',#2246,#1823,#1824);
#1545=AXIS2_PLACEMENT_3D('',#2247,#1825,#1826);
#1546=AXIS2_PLACEMENT_3D('',#2248,#1827,#1828);
#1547=AXIS2_PLACEMENT_3D('',#2249,#1829,#1830);
#1548=AXIS2_PLACEMENT_3D('',#2250,#1831,#1832);
#1549=AXIS2_PLACEMENT_3D('',#2269,#1843,#1844);
#1550=AXIS2_PLACEMENT_3D('',#2270,#1845,#1846);
#1551=AXIS2_PLACEMENT_3D('',#2271,#1847,#1848);
#1552=AXIS2_PLACEMENT_3D('',#2272,#1849,#1850);
#1553=AXIS2_PLACEMENT_3D('',#2273,#1851,#1852);
#1554=AXIS2_PLACEMENT_3D('',#2274,#1853,#1854);
#1555=AXIS2_PLACEMENT_3D('',#2275,#1855,#1856);
#1556=AXIS2_PLACEMENT_3D('',#2276,#1857,#1858);
#1557=AXIS2_PLACEMENT_3D('',#2277,#1859,#1860);
#1558=AXIS2_PLACEMENT_3D('',#2278,#1861,#1862);
#1559=AXIS2_PLACEMENT_3D('',#2279,#1863,#1864);
#1560=AXIS2_PLACEMENT_3D('',#2280,#1865,#1866);
#1561=AXIS2_PLACEMENT_3D('',#2281,#1867,#1868);
#1562=AXIS2_PLACEMENT_3D('',#2287,#1872,#1873);
#1563=AXIS2_PLACEMENT_3D('',#2291,#1876,#1877);
#1564=AXIS2_PLACEMENT_3D('',#2295,#1880,#1881);
#1565=AXIS2_PLACEMENT_3D('',#2299,#1884,#1885);
#1566=AXIS2_PLACEMENT_3D('',#2302,#1888,#1889);
#1567=AXIS2_PLACEMENT_3D('',#2304,#1891,#1892);
#1568=AXIS2_PLACEMENT_3D('',#2306,#1894,#1895);
#1569=AXIS2_PLACEMENT_3D('',#2312,#1899,#1900);
#1570=AXIS2_PLACEMENT_3D('',#2318,#1904,#1905);
#1571=AXIS2_PLACEMENT_3D('',#2320,#1907,#1908);
#1572=AXIS2_PLACEMENT_3D('',#2349,#1927,#1928);
#1573=AXIS2_PLACEMENT_3D('',#2351,#1930,#1931);
#1574=AXIS2_PLACEMENT_3D('',#2353,#1933,#1934);
#1575=AXIS2_PLACEMENT_3D('',#2354,#1935,#1936);
#1576=AXIS2_PLACEMENT_3D('',#2355,#1937,#1938);
#1577=AXIS2_PLACEMENT_3D('',#2356,#1939,#1940);
#1578=AXIS2_PLACEMENT_3D('',#2358,#1942,#1943);
#1579=AXIS2_PLACEMENT_3D('',#2359,#1944,#1945);
#1580=AXIS2_PLACEMENT_3D('',#2361,#1947,#1948);
#1581=AXIS2_PLACEMENT_3D('',#2362,#1949,#1950);
#1582=AXIS2_PLACEMENT_3D('',#2364,#1952,#1953);
#1583=AXIS2_PLACEMENT_3D('',#2366,#1955,#1956);
#1584=AXIS2_PLACEMENT_3D('',#2367,#1957,#1958);
#1585=AXIS2_PLACEMENT_3D('',#2369,#1960,#1961);
#1586=AXIS2_PLACEMENT_3D('',#2370,#1962,#1963);
#1587=AXIS2_PLACEMENT_3D('',#2372,#1965,#1966);
#1588=AXIS2_PLACEMENT_3D('',#2373,#1967,#1968);
#1589=AXIS2_PLACEMENT_3D('',#2375,#1970,#1971);
#1590=AXIS2_PLACEMENT_3D('',#2377,#1973,#1974);
#1591=DIRECTION('',(0.,0.,1.));
#1592=DIRECTION('',(1.,0.,0.));
#1593=DIRECTION('',(0.,1.,0.));
#1594=DIRECTION('',(0.,0.,1.));
#1595=DIRECTION('',(0.,0.,1.));
#1596=DIRECTION('',(-1.,0.,0.));
#1597=DIRECTION('',(0.,0.,-1.));
#1598=DIRECTION('',(-1.,0.,0.));
#1599=DIRECTION('',(0.,1.,0.));
#1600=DIRECTION('',(0.,0.,1.));
#1601=DIRECTION('',(-1.,0.,0.));
#1602=DIRECTION('',(0.,0.,1.));
#1603=DIRECTION('',(-1.,0.,0.));
#1604=DIRECTION('',(0.,0.,1.));
#1605=DIRECTION('',(1.,1.19020478626196E-16,0.));
#1606=DIRECTION('',(-1.19020478626196E-16,1.,0.));
#1607=DIRECTION('',(-1.19020478626196E-16,1.,0.));
#1608=DIRECTION('',(0.,0.,1.));
#1609=DIRECTION('',(-1.19020478626196E-16,1.,0.));
#1610=DIRECTION('',(0.,0.,-1.));
#1611=DIRECTION('',(-3.11796703198446E-16,1.,0.));
#1612=DIRECTION('',(-1.,-3.11796703198446E-16,0.));
#1613=DIRECTION('',(-1.,-3.11796703198446E-16,0.));
#1614=DIRECTION('',(0.,0.,1.));
#1615=DIRECTION('',(-1.,-3.11796703198446E-16,0.));
#1616=DIRECTION('',(0.,0.,1.));
#1617=DIRECTION('',(-3.11796703198446E-16,1.,0.));
#1618=DIRECTION('',(-1.,-3.11796703198446E-16,0.));
#1619=DIRECTION('',(-1.,-3.11796703198446E-16,0.));
#1620=DIRECTION('',(0.,0.,1.));
#1621=DIRECTION('',(-1.,-3.11796703198446E-16,0.));
#1622=DIRECTION('',(0.,0.,-1.));
#1623=DIRECTION('',(1.,0.,0.));
#1624=DIRECTION('',(0.,0.,-1.));
#1625=DIRECTION('',(0.,0.,1.));
#1626=DIRECTION('',(0.,1.,0.));
#1627=DIRECTION('',(0.,1.,0.));
#1628=DIRECTION('',(2.78111980116522E-16,-1.,0.));
#1629=DIRECTION('',(1.,2.78111980116522E-16,0.));
#1630=DIRECTION('',(1.,2.78111980116522E-16,0.));
#1631=DIRECTION('',(0.,0.,1.));
#1632=DIRECTION('',(1.,0.,0.));
#1633=DIRECTION('',(0.,0.,1.));
#1634=DIRECTION('',(0.,0.832050294337843,-0.55470019622523));
#1635=DIRECTION('',(-1.,0.,0.));
#1636=DIRECTION('',(1.,0.,0.));
#1637=DIRECTION('',(-5.77381594549372E-17,0.55470019622523,0.832050294337843));
#1638=DIRECTION('',(-1.,0.,0.));
#1639=DIRECTION('',(1.1455374434772E-16,-0.55470019622523,-0.832050294337843));
#1640=DIRECTION('',(0.,0.832050294337843,-0.55470019622523));
#1641=DIRECTION('',(-1.,0.,0.));
#1642=DIRECTION('',(0.,0.55470019622523,0.832050294337843));
#1643=DIRECTION('',(1.,0.,0.));
#1644=DIRECTION('',(-1.93507034187446E-16,0.55470019622523,0.832050294337843));
#1645=DIRECTION('',(-1.,0.,0.));
#1646=DIRECTION('',(0.,0.,1.));
#1647=DIRECTION('',(1.,0.,0.));
#1648=DIRECTION('',(0.,0.,1.));
#1649=DIRECTION('',(1.,0.,0.));
#1650=DIRECTION('',(0.,0.,1.));
#1651=DIRECTION('',(1.,0.,0.));
#1652=DIRECTION('',(0.,0.,1.));
#1653=DIRECTION('',(1.,0.,0.));
#1654=DIRECTION('',(0.,0.,1.));
#1655=DIRECTION('',(1.,0.,0.));
#1656=DIRECTION('',(0.,0.,1.));
#1657=DIRECTION('',(1.,0.,0.));
#1658=DIRECTION('',(0.,0.,1.));
#1659=DIRECTION('',(1.,0.,0.));
#1660=DIRECTION('',(0.,0.,1.));
#1661=DIRECTION('',(1.,0.,0.));
#1662=DIRECTION('',(0.,0.,1.));
#1663=DIRECTION('',(1.,0.,0.));
#1664=DIRECTION('',(0.,0.,1.));
#1665=DIRECTION('',(1.,0.,0.));
#1666=DIRECTION('',(0.,0.,1.));
#1667=DIRECTION('',(1.,0.,0.));
#1668=DIRECTION('',(0.,-1.,0.));
#1669=DIRECTION('',(3.48849766962901E-16,-1.,0.));
#1670=DIRECTION('',(1.,4.13029399042096E-16,0.));
#1671=DIRECTION('',(2.06514699521048E-16,-1.,0.));
#1672=DIRECTION('',(1.04088947232846E-16,-1.,0.));
#1673=DIRECTION('',(1.,4.34549968932066E-16,0.));
#1674=DIRECTION('',(0.,0.,-1.));
#1675=DIRECTION('',(-1.,0.,0.));
#1676=DIRECTION('',(0.,0.,1.));
#1677=DIRECTION('',(1.,0.,0.));
#1678=DIRECTION('',(0.,0.,-1.));
#1679=DIRECTION('',(0.,0.,-1.));
#1680=DIRECTION('',(0.,0.,-1.));
#1681=DIRECTION('',(-1.,0.,0.));
#1682=DIRECTION('',(0.,0.,1.));
#1683=DIRECTION('',(1.,0.,0.));
#1684=DIRECTION('',(0.,0.,-1.));
#1685=DIRECTION('',(0.,0.,-1.));
#1686=DIRECTION('',(0.,0.,-1.));
#1687=DIRECTION('',(-1.,0.,0.));
#1688=DIRECTION('',(0.,0.,1.));
#1689=DIRECTION('',(1.,0.,0.));
#1690=DIRECTION('',(0.,0.,-1.));
#1691=DIRECTION('',(0.,0.,1.));
#1692=DIRECTION('',(1.,0.,0.));
#1693=DIRECTION('',(0.,0.,-1.));
#1694=DIRECTION('',(0.,0.,-1.));
#1695=DIRECTION('',(-1.,0.,0.));
#1696=DIRECTION('',(0.,0.,1.));
#1697=DIRECTION('',(1.,0.,0.));
#1698=DIRECTION('',(0.,0.,-1.));
#1699=DIRECTION('',(0.,0.,1.));
#1700=DIRECTION('',(1.,0.,0.));
#1701=DIRECTION('',(0.,0.,-1.));
#1702=DIRECTION('',(0.,0.,-1.));
#1703=DIRECTION('',(-1.,0.,0.));
#1704=DIRECTION('',(0.,0.,-1.));
#1705=DIRECTION('',(0.,0.,1.));
#1706=DIRECTION('',(1.,0.,0.));
#1707=DIRECTION('',(0.,0.,-1.));
#1708=DIRECTION('',(0.,0.,-1.));
#1709=DIRECTION('',(-1.,0.,0.));
#1710=DIRECTION('',(0.,0.,-1.));
#1711=DIRECTION('',(0.,0.,1.));
#1712=DIRECTION('',(1.,0.,0.));
#1713=DIRECTION('',(0.,0.,-1.));
#1714=DIRECTION('',(0.,0.,-1.));
#1715=DIRECTION('',(-1.,0.,0.));
#1716=DIRECTION('',(0.,0.,-1.));
#1717=DIRECTION('',(0.,0.,1.));
#1718=DIRECTION('',(1.,0.,0.));
#1719=DIRECTION('',(0.,0.,-1.));
#1720=DIRECTION('',(0.,0.,1.));
#1721=DIRECTION('',(1.,0.,0.));
#1722=DIRECTION('',(0.,0.,-1.));
#1723=DIRECTION('',(-1.,0.,0.));
#1724=DIRECTION('',(0.,0.,-1.));
#1725=DIRECTION('',(0.,0.,1.));
#1726=DIRECTION('',(1.,0.,0.));
#1727=DIRECTION('',(0.,0.,-1.));
#1728=DIRECTION('',(0.,0.,1.));
#1729=DIRECTION('',(1.,0.,0.));
#1730=DIRECTION('',(1.,3.488497669629E-16,0.));
#1731=DIRECTION('',(-3.48849766962901E-16,1.,0.));
#1732=DIRECTION('',(0.,0.,-1.));
#1733=DIRECTION('',(-1.93507034187446E-16,0.55470019622523,0.832050294337843));
#1734=DIRECTION('',(0.,0.,-1.));
#1735=DIRECTION('',(1.,2.96417131783709E-16,0.));
#1736=DIRECTION('',(-2.96417131783709E-16,1.,0.));
#1737=DIRECTION('',(2.96417131783709E-16,-1.,0.));
#1738=DIRECTION('',(0.,0.,-1.));
#1739=DIRECTION('',(2.96417131783709E-16,-1.,0.));
#1740=DIRECTION('',(0.,1.,0.));
#1741=DIRECTION('',(0.,0.,1.));
#1742=DIRECTION('',(1.,0.,0.));
#1743=DIRECTION('',(0.,0.,-1.));
#1744=DIRECTION('',(1.,0.,0.));
#1745=DIRECTION('',(1.,1.85260707364818E-16,0.));
#1746=DIRECTION('',(-1.85260707364818E-16,1.,0.));
#1747=DIRECTION('',(1.85260707364818E-16,-1.,0.));
#1748=DIRECTION('',(0.,0.,-1.));
#1749=DIRECTION('',(1.85260707364818E-16,-1.,0.));
#1750=DIRECTION('',(-1.,-2.06514699521048E-16,0.));
#1751=DIRECTION('',(2.06514699521048E-16,-1.,0.));
#1752=DIRECTION('',(0.,0.,-1.));
#1753=DIRECTION('',(1.1455374434772E-16,-0.55470019622523,-0.832050294337843));
#1754=DIRECTION('',(1.,2.06514699521048E-16,0.));
#1755=DIRECTION('',(-2.06514699521048E-16,1.,0.));
#1756=DIRECTION('',(0.,0.,-1.));
#1757=DIRECTION('',(2.06514699521048E-16,-1.,0.));
#1758=DIRECTION('',(-4.13029399042096E-16,1.,0.));
#1759=DIRECTION('',(-1.,-4.13029399042096E-16,0.));
#1760=DIRECTION('',(0.,0.,-1.));
#1761=DIRECTION('',(1.,4.13029399042096E-16,0.));
#1762=DIRECTION('',(0.,0.,-1.));
#1763=DIRECTION('',(-1.,0.,0.));
#1764=DIRECTION('',(0.,0.,1.));
#1765=DIRECTION('',(1.,0.,0.));
#1766=DIRECTION('',(0.,0.,-1.));
#1767=DIRECTION('',(-1.,0.,0.));
#1768=DIRECTION('',(0.,0.,1.));
#1769=DIRECTION('',(1.,0.,0.));
#1770=DIRECTION('',(0.,0.,1.));
#1771=DIRECTION('',(1.,0.,0.));
#1772=DIRECTION('',(0.,0.,-1.));
#1773=DIRECTION('',(-1.,0.,0.));
#1774=DIRECTION('',(0.,0.,1.));
#1775=DIRECTION('',(1.,0.,0.));
#1776=DIRECTION('',(0.,0.,1.));
#1777=DIRECTION('',(1.,0.,0.));
#1778=DIRECTION('',(1.,3.48849766962901E-16,0.));
#1779=DIRECTION('',(-3.48849766962901E-16,1.,0.));
#1780=DIRECTION('',(3.48849766962901E-16,-1.,0.));
#1781=DIRECTION('',(0.,0.,-1.));
#1782=DIRECTION('',(-1.,0.,0.));
#1783=DIRECTION('',(0.,0.,1.));
#1784=DIRECTION('',(1.,0.,0.));
#1785=DIRECTION('',(0.,0.,1.));
#1786=DIRECTION('',(1.,0.,0.));
#1787=DIRECTION('',(1.,0.,0.));
#1788=DIRECTION('',(-1.,0.,0.));
#1789=DIRECTION('',(0.,1.,0.));
#1790=DIRECTION('',(-1.,0.,0.));
#1791=DIRECTION('',(0.,1.,0.));
#1792=DIRECTION('',(0.,0.,1.));
#1793=DIRECTION('',(1.,0.,0.));
#1794=DIRECTION('',(0.,0.,1.));
#1795=DIRECTION('',(1.,0.,0.));
#1796=DIRECTION('',(0.,0.,1.));
#1797=DIRECTION('',(1.,0.,0.));
#1798=DIRECTION('',(0.,0.,1.));
#1799=DIRECTION('',(1.,0.,0.));
#1800=DIRECTION('',(0.,0.,1.));
#1801=DIRECTION('',(1.,0.,0.));
#1802=DIRECTION('',(0.,-1.,0.));
#1803=DIRECTION('',(1.,0.,0.));
#1804=DIRECTION('',(0.,-1.,0.));
#1805=DIRECTION('',(-1.,0.,0.));
#1806=DIRECTION('',(0.,-1.,0.));
#1807=DIRECTION('',(1.,0.,0.));
#1808=DIRECTION('',(-1.19020478626196E-16,1.,0.));
#1809=DIRECTION('',(0.,1.,0.));
#1810=DIRECTION('',(1.,0.,0.));
#1811=DIRECTION('',(0.,-1.,0.));
#1812=DIRECTION('',(0.,-1.,0.));
#1813=DIRECTION('',(0.,-1.,0.));
#1814=DIRECTION('',(1.,0.,0.));
#1815=DIRECTION('',(0.,-1.,0.));
#1816=DIRECTION('',(-1.,-3.11796703198446E-16,0.));
#1817=DIRECTION('',(1.,2.55106393526001E-16,0.));
#1818=DIRECTION('',(-1.,0.,0.));
#1819=DIRECTION('',(1.,2.55106393526001E-16,0.));
#1820=DIRECTION('',(0.,-1.,0.));
#1821=DIRECTION('',(0.,0.,1.));
#1822=DIRECTION('',(1.,0.,0.));
#1823=DIRECTION('',(0.,0.,1.));
#1824=DIRECTION('',(1.,0.,0.));
#1825=DIRECTION('',(0.,0.,1.));
#1826=DIRECTION('',(1.,0.,0.));
#1827=DIRECTION('',(0.,0.,1.));
#1828=DIRECTION('',(1.,0.,0.));
#1829=DIRECTION('',(0.,0.832050294337843,-0.55470019622523));
#1830=DIRECTION('',(-1.,0.,0.));
#1831=DIRECTION('',(0.,0.,1.));
#1832=DIRECTION('',(1.,0.,0.));
#1833=DIRECTION('',(0.,1.,0.));
#1834=DIRECTION('',(-1.,0.,0.));
#1835=DIRECTION('',(0.,1.,0.));
#1836=DIRECTION('',(-1.,0.,0.));
#1837=DIRECTION('',(1.,0.,0.));
#1838=DIRECTION('',(0.,-1.,0.));
#1839=DIRECTION('',(0.,-1.,0.));
#1840=DIRECTION('',(1.,0.,0.));
#1841=DIRECTION('',(0.,-1.,0.));
#1842=DIRECTION('',(0.,-1.,0.));
#1843=DIRECTION('',(0.,0.,1.));
#1844=DIRECTION('',(1.,0.,0.));
#1845=DIRECTION('',(0.,0.,1.));
#1846=DIRECTION('',(1.,0.,0.));
#1847=DIRECTION('',(0.,0.,1.));
#1848=DIRECTION('',(1.,0.,0.));
#1849=DIRECTION('',(0.,0.,1.));
#1850=DIRECTION('',(1.,0.,0.));
#1851=DIRECTION('',(0.,0.,-1.));
#1852=DIRECTION('',(-1.,0.,0.));
#1853=DIRECTION('',(0.,0.,-1.));
#1854=DIRECTION('',(-1.,0.,0.));
#1855=DIRECTION('',(0.,0.,-1.));
#1856=DIRECTION('',(-1.,0.,0.));
#1857=DIRECTION('',(0.,0.,-1.));
#1858=DIRECTION('',(-1.,0.,0.));
#1859=DIRECTION('',(0.,0.,-1.));
#1860=DIRECTION('',(-1.,0.,0.));
#1861=DIRECTION('',(0.,0.,-1.));
#1862=DIRECTION('',(-1.,0.,0.));
#1863=DIRECTION('',(0.,0.,-1.));
#1864=DIRECTION('',(-1.,0.,0.));
#1865=DIRECTION('',(0.,0.,-1.));
#1866=DIRECTION('',(-1.,0.,0.));
#1867=DIRECTION('',(0.,1.,0.));
#1868=DIRECTION('',(0.,0.,1.));
#1869=DIRECTION('',(-1.,0.,0.));
#1870=DIRECTION('',(0.,0.,1.));
#1871=DIRECTION('',(0.,0.,-1.));
#1872=DIRECTION('',(1.,1.19020478626196E-16,0.));
#1873=DIRECTION('',(-1.19020478626196E-16,1.,0.));
#1874=DIRECTION('',(0.,0.,1.));
#1875=DIRECTION('',(-1.19020478626196E-16,1.,0.));
#1876=DIRECTION('',(-3.11796703198446E-16,1.,0.));
#1877=DIRECTION('',(-1.,-3.11796703198446E-16,0.));
#1878=DIRECTION('',(0.,0.,1.));
#1879=DIRECTION('',(-1.,-3.11796703198446E-16,0.));
#1880=DIRECTION('',(1.,0.,0.));
#1881=DIRECTION('',(0.,0.,-1.));
#1882=DIRECTION('',(0.,1.,0.));
#1883=DIRECTION('',(0.,0.,1.));
#1884=DIRECTION('',(1.,0.,0.));
#1885=DIRECTION('',(0.,0.,-1.));
#1886=DIRECTION('',(0.,0.,-1.));
#1887=DIRECTION('',(0.,0.,-1.));
#1888=DIRECTION('',(0.,1.,0.));
#1889=DIRECTION('',(0.,0.,1.));
#1890=DIRECTION('',(0.,0.,-1.));
#1891=DIRECTION('',(1.,0.,0.));
#1892=DIRECTION('',(0.,0.,-1.));
#1893=DIRECTION('',(0.,0.,-1.));
#1894=DIRECTION('',(-1.,0.,0.));
#1895=DIRECTION('',(0.,0.,1.));
#1896=DIRECTION('',(0.,-1.,0.));
#1897=DIRECTION('',(0.,-0.707106781186548,-0.707106781186548));
#1898=DIRECTION('',(0.,0.,1.));
#1899=DIRECTION('',(-1.,-1.04088947232846E-16,0.));
#1900=DIRECTION('',(1.04088947232846E-16,-1.,0.));
#1901=DIRECTION('',(-7.36020004349141E-17,0.707106781186548,0.707106781186548));
#1902=DIRECTION('',(1.04088947232846E-16,-1.,0.));
#1903=DIRECTION('',(0.,0.,1.));
#1904=DIRECTION('',(4.34549968932066E-16,-1.,0.));
#1905=DIRECTION('',(1.,4.34549968932066E-16,0.));
#1906=DIRECTION('',(1.,4.34549968932066E-16,0.));
#1907=DIRECTION('',(0.,0.,1.));
#1908=DIRECTION('',(1.,0.,0.));
#1909=DIRECTION('',(0.,-1.,0.));
#1910=DIRECTION('',(0.,-1.,0.));
#1911=DIRECTION('',(1.,0.,0.));
#1912=DIRECTION('',(0.,-1.,0.));
#1913=DIRECTION('',(1.,0.,0.));
#1914=DIRECTION('',(0.,-1.,0.));
#1915=DIRECTION('',(1.,0.,0.));
#1916=DIRECTION('',(0.,-1.,0.));
#1917=DIRECTION('',(1.,2.55106393526001E-16,0.));
#1918=DIRECTION('',(0.,-1.,0.));
#1919=DIRECTION('',(1.,0.,0.));
#1920=DIRECTION('',(0.,-1.,0.));
#1921=DIRECTION('',(0.,-1.,0.));
#1922=DIRECTION('',(1.,2.55106393526001E-16,0.));
#1923=DIRECTION('',(0.,-1.,0.));
#1924=DIRECTION('',(1.,0.,0.));
#1925=DIRECTION('',(1.,0.,0.));
#1926=DIRECTION('',(0.,-1.,0.));
#1927=DIRECTION('',(-1.,0.,0.));
#1928=DIRECTION('',(0.,0.,1.));
#1929=DIRECTION('',(0.,0.707106781186548,0.707106781186548));
#1930=DIRECTION('',(-1.,0.,0.));
#1931=DIRECTION('',(0.,0.,1.));
#1932=DIRECTION('',(0.,-0.707106781186548,-0.707106781186548));
#1933=DIRECTION('',(0.,-0.707106781186548,0.707106781186548));
#1934=DIRECTION('',(1.,0.,0.));
#1935=DIRECTION('',(0.,-0.707106781186548,0.707106781186548));
#1936=DIRECTION('',(1.,0.,0.));
#1937=DIRECTION('',(0.,1.,0.));
#1938=DIRECTION('',(0.,0.,1.));
#1939=DIRECTION('',(-1.,0.,0.));
#1940=DIRECTION('',(0.,0.,1.));
#1941=DIRECTION('',(0.,0.,1.));
#1942=DIRECTION('',(0.,-1.,0.));
#1943=DIRECTION('',(0.,0.,-1.));
#1944=DIRECTION('',(2.55106393526001E-16,-1.,0.));
#1945=DIRECTION('',(1.,2.55106393526001E-16,0.));
#1946=DIRECTION('',(0.,0.,1.));
#1947=DIRECTION('',(-1.,0.,0.));
#1948=DIRECTION('',(0.,0.,1.));
#1949=DIRECTION('',(-1.,0.,0.));
#1950=DIRECTION('',(0.,0.,1.));
#1951=DIRECTION('',(0.,0.,1.));
#1952=DIRECTION('',(0.,-1.,0.));
#1953=DIRECTION('',(0.,0.,-1.));
#1954=DIRECTION('',(0.,0.,1.));
#1955=DIRECTION('',(-1.,0.,0.));
#1956=DIRECTION('',(0.,0.,1.));
#1957=DIRECTION('',(-1.,0.,0.));
#1958=DIRECTION('',(0.,0.,1.));
#1959=DIRECTION('',(0.,0.,1.));
#1960=DIRECTION('',(2.55106393526001E-16,-1.,0.));
#1961=DIRECTION('',(1.,2.55106393526001E-16,0.));
#1962=DIRECTION('',(0.,-1.,0.));
#1963=DIRECTION('',(0.,0.,-1.));
#1964=DIRECTION('',(0.,0.,1.));
#1965=DIRECTION('',(-1.,0.,0.));
#1966=DIRECTION('',(0.,0.,1.));
#1967=DIRECTION('',(-1.,0.,0.));
#1968=DIRECTION('',(0.,0.,1.));
#1969=DIRECTION('',(0.,0.,1.));
#1970=DIRECTION('',(0.,-1.,0.));
#1971=DIRECTION('',(0.,0.,-1.));
#1972=DIRECTION('',(0.,0.,1.));
#1973=DIRECTION('',(-1.,0.,0.));
#1974=DIRECTION('',(0.,0.,1.));
#1975=CARTESIAN_POINT('',(0.,0.,0.));
#1976=CARTESIAN_POINT('',(0.03535,0.0328,0.0499));
#1977=CARTESIAN_POINT('',(0.0447,0.0328,0.0048));
#1978=CARTESIAN_POINT('',(0.0447,0.0328,0.0048));
#1979=CARTESIAN_POINT('',(0.0447,0.0328,0.012));
#1980=CARTESIAN_POINT('',(0.03545,0.0328,0.0048));
#1981=CARTESIAN_POINT('',(0.0583,0.0328,0.0048));
#1982=CARTESIAN_POINT('',(0.0583,0.0328,0.0499));
#1983=CARTESIAN_POINT('',(0.0583,0.0328,0.012));
#1984=CARTESIAN_POINT('',(0.03545,0.0328,0.012));
#1985=CARTESIAN_POINT('',(0.03535,0.0328,0.0499));
#1986=CARTESIAN_POINT('',(0.03545,0.0328,0.0048));
#1987=CARTESIAN_POINT('',(0.04175,0.0328,0.0048));
#1988=CARTESIAN_POINT('',(0.02895,0.0328,0.0048));
#1989=CARTESIAN_POINT('',(0.04175,0.0328,0.0048));
#1990=CARTESIAN_POINT('',(0.04175,0.0328,0.012));
#1991=CARTESIAN_POINT('',(0.03545,0.0328,0.012));
#1992=CARTESIAN_POINT('',(0.02895,0.0328,0.012));
#1993=CARTESIAN_POINT('',(0.02895,0.0328,0.0048));
#1994=CARTESIAN_POINT('',(0.0124,0.018225,0.0499));
#1995=CARTESIAN_POINT('',(0.0124,0.0375,0.0048));
#1996=CARTESIAN_POINT('',(0.0124,0.00365,0.0048));
#1997=CARTESIAN_POINT('',(0.0124,0.01725,0.0048));
#1998=CARTESIAN_POINT('',(0.0124,0.01725,0.0048));
#1999=CARTESIAN_POINT('',(0.0124,0.01725,0.012));
#2000=CARTESIAN_POINT('',(0.0124,0.0375,0.012));
#2001=CARTESIAN_POINT('',(0.0124,0.00365,0.012));
#2002=CARTESIAN_POINT('',(0.0124,0.00365,0.0499));
#2003=CARTESIAN_POINT('',(0.03535,0.00365,0.0499));
#2004=CARTESIAN_POINT('',(0.03545,0.00365,0.0048));
#2005=CARTESIAN_POINT('',(0.04175,0.00365,0.0048));
#2006=CARTESIAN_POINT('',(0.02895,0.00365,0.0048));
#2007=CARTESIAN_POINT('',(0.02895,0.00365,0.0048));
#2008=CARTESIAN_POINT('',(0.02895,0.00365,0.012));
#2009=CARTESIAN_POINT('',(0.03545,0.00365,0.012));
#2010=CARTESIAN_POINT('',(0.04175,0.00365,0.012));
#2011=CARTESIAN_POINT('',(0.04175,0.00365,0.0048));
#2012=CARTESIAN_POINT('',(0.03535,0.00365,0.0499));
#2013=CARTESIAN_POINT('',(0.03545,0.00365,0.0048));
#2014=CARTESIAN_POINT('',(0.0583,0.00365,0.0048));
#2015=CARTESIAN_POINT('',(0.0447,0.00365,0.0048));
#2016=CARTESIAN_POINT('',(0.0447,0.00365,0.0048));
#2017=CARTESIAN_POINT('',(0.0447,0.00365,0.012));
#2018=CARTESIAN_POINT('',(0.03545,0.00365,0.012));
#2019=CARTESIAN_POINT('',(0.0583,0.00365,0.012));
#2020=CARTESIAN_POINT('',(0.0583,0.00365,0.0499));
#2021=CARTESIAN_POINT('',(0.0583,0.018225,0.0499));
#2022=CARTESIAN_POINT('',(0.0583,0.01725,0.0048));
#2023=CARTESIAN_POINT('',(0.0583,0.01725,0.0048));
#2024=CARTESIAN_POINT('',(0.0583,0.01725,0.012));
#2025=CARTESIAN_POINT('',(0.0583,0.0375,0.0048));
#2026=CARTESIAN_POINT('',(0.0583,0.0375,0.012));
#2027=CARTESIAN_POINT('',(0.03535,0.0349815596342088,0.0048));
#2028=CARTESIAN_POINT('',(0.03535,0.0349815596342088,0.0048));
#2029=CARTESIAN_POINT('',(0.01647,0.0349815596342088,0.0048));
#2030=CARTESIAN_POINT('',(0.05447,0.0349815596342088,0.0048));
#2031=CARTESIAN_POINT('',(0.01647,0.0349815596342088,0.0048));
#2032=CARTESIAN_POINT('',(0.01647,0.0349815596342088,0.013));
#2033=CARTESIAN_POINT('',(0.03545,0.0349815596342088,0.013));
#2034=CARTESIAN_POINT('',(0.05447,0.0349815596342088,0.013));
#2035=CARTESIAN_POINT('',(0.05447,0.0349815596342088,0.0048));
#2036=CARTESIAN_POINT('',(0.0724,0.0329815596342087,0.01));
#2037=CARTESIAN_POINT('',(0.03545,0.0349815596342088,0.013));
#2038=CARTESIAN_POINT('',(-0.002,0.0349815596342088,0.013));
#2039=CARTESIAN_POINT('',(0.0104,0.0349815596342088,0.013));
#2040=CARTESIAN_POINT('',(0.0104,0.0329815596342087,0.01));
#2041=CARTESIAN_POINT('',(0.0104,0.0329815596342087,0.01));
#2042=CARTESIAN_POINT('',(0.0734,0.0329815596342087,0.01));
#2043=CARTESIAN_POINT('',(-0.002,0.0329815596342087,0.01));
#2044=CARTESIAN_POINT('',(-0.002,0.0329815596342087,0.01));
#2045=CARTESIAN_POINT('',(0.0724,0.0329815596342087,0.01));
#2046=CARTESIAN_POINT('',(0.0603,0.0329815596342087,0.01));
#2047=CARTESIAN_POINT('',(0.0603,0.0349815596342088,0.013));
#2048=CARTESIAN_POINT('',(0.0603,0.0329815596342087,0.01));
#2049=CARTESIAN_POINT('',(0.03545,0.0349815596342088,0.013));
#2050=CARTESIAN_POINT('',(0.0729,0.0349815596342088,0.013));
#2051=CARTESIAN_POINT('',(0.0729,0.0277843966135612,0.00220425546902875));
#2052=CARTESIAN_POINT('',(0.0729,0.0329815596342087,0.01));
#2053=CARTESIAN_POINT('',(0.0734,0.0329815596342087,0.01));
#2054=CARTESIAN_POINT('',(0.03545,0.0375,0.01));
#2055=CARTESIAN_POINT('',(0.0689256552363356,0.000391501247587031,0.01));
#2056=CARTESIAN_POINT('',(0.0687,-0.0026,0.01));
#2057=CARTESIAN_POINT('',(0.0689633163059272,-0.00260826235040492,0.01));
#2058=CARTESIAN_POINT('',(0.0687000000000084,-0.00679999999999957,0.01));
#2059=CARTESIAN_POINT('',(0.0687,-0.0068,0.01));
#2060=CARTESIAN_POINT('',(0.0715,-0.0068,0.01));
#2061=CARTESIAN_POINT('',(0.0022,-0.0068,0.01));
#2062=CARTESIAN_POINT('',(0.005,-0.0068,0.01));
#2063=CARTESIAN_POINT('',(0.00939150124758675,-0.00702565523633558,0.01));
#2064=CARTESIAN_POINT('',(0.0064,-0.0068,0.01));
#2065=CARTESIAN_POINT('',(0.00639173764959508,-0.00706331630592722,0.01));
#2066=CARTESIAN_POINT('',(0.00220000000000003,-0.00680000000000038,0.01));
#2067=CARTESIAN_POINT('',(0.0687000000000084,-0.00679999999999957,0.01));
#2068=CARTESIAN_POINT('',(0.0645,-0.00679999999999952,0.01));
#2069=CARTESIAN_POINT('',(0.064508262350405,-0.00706331630592757,0.01));
#2070=CARTESIAN_POINT('',(0.0615084987524,-0.007025655236336,0.01));
#2071=CARTESIAN_POINT('',(0.00220000000000003,-0.00680000000000038,0.01));
#2072=CARTESIAN_POINT('',(0.0022,-0.0026,0.01));
#2073=CARTESIAN_POINT('',(0.0019366836940728,-0.00260826235040493,0.01));
#2074=CARTESIAN_POINT('',(0.0019743447636644,0.000391501247587077,0.01));
#2075=CARTESIAN_POINT('',(0.0603,0.0375,0.01));
#2076=CARTESIAN_POINT('',(0.0603,0.00165,0.01));
#2077=CARTESIAN_POINT('',(0.0729,0.0130907798171044,0.01));
#2078=CARTESIAN_POINT('',(0.0729,-0.011,0.01));
#2079=CARTESIAN_POINT('',(0.0708,-0.011,0.01));
#2080=CARTESIAN_POINT('',(-0.002,-0.011,0.01));
#2081=CARTESIAN_POINT('',(-0.002,-0.0089,0.01));
#2082=CARTESIAN_POINT('',(0.0104,0.0375,0.01));
#2083=CARTESIAN_POINT('',(0.0104,0.00165,0.01));
#2084=CARTESIAN_POINT('',(0.03545,0.00165,0.01));
#2085=CARTESIAN_POINT('',(0.0689256552363356,0.000391501247587031,0.012));
#2086=CARTESIAN_POINT('',(0.0689256552363356,0.000391501247587031,0.012));
#2087=CARTESIAN_POINT('',(0.0687,-0.0026,0.012));
#2088=CARTESIAN_POINT('',(0.0689633163059272,-0.00260826235040492,0.012));
#2089=CARTESIAN_POINT('',(0.0689633163059272,-0.00260826235040492,0.012));
#2090=CARTESIAN_POINT('',(0.0687,-0.0026,0.012));
#2091=CARTESIAN_POINT('',(0.00939150124758675,-0.00702565523633558,0.012));
#2092=CARTESIAN_POINT('',(0.00939150124758675,-0.00702565523633558,0.012));
#2093=CARTESIAN_POINT('',(0.0064,-0.0068,0.012));
#2094=CARTESIAN_POINT('',(0.00639173764959508,-0.00706331630592722,0.012));
#2095=CARTESIAN_POINT('',(0.00639173764959508,-0.00706331630592722,0.012));
#2096=CARTESIAN_POINT('',(0.0064,-0.0068,0.012));
#2097=CARTESIAN_POINT('',(0.00198093871577345,0.0746080086641564,0.015));
#2098=CARTESIAN_POINT('',(0.00198093871577345,0.0746080086641564,0.015));
#2099=CARTESIAN_POINT('',(0.00219999999999968,0.0776,0.015));
#2100=CARTESIAN_POINT('',(0.00194438106085881,0.0776077859121996,0.015));
#2101=CARTESIAN_POINT('',(0.00194438106085881,0.0776077859121996,0.015));
#2102=CARTESIAN_POINT('',(0.00194438106085881,0.0776077859121996,0.013));
#2103=CARTESIAN_POINT('',(0.00198093871577345,0.0746080086641564,0.013));
#2104=CARTESIAN_POINT('',(0.00219999999999968,0.0776,0.013));
#2105=CARTESIAN_POINT('',(0.00219999999999968,0.0776,0.015));
#2106=CARTESIAN_POINT('',(0.0615084987524131,0.0820256552363356,0.015));
#2107=CARTESIAN_POINT('',(0.0615084987524131,0.0820256552363356,0.015));
#2108=CARTESIAN_POINT('',(0.0645,0.0818,0.015));
#2109=CARTESIAN_POINT('',(0.0645082623504049,0.0820633163059273,0.015));
#2110=CARTESIAN_POINT('',(0.0645082623504049,0.0820633163059273,0.015));
#2111=CARTESIAN_POINT('',(0.0645082623504049,0.0820633163059273,0.013));
#2112=CARTESIAN_POINT('',(0.0615084987524131,0.0820256552363356,0.013));
#2113=CARTESIAN_POINT('',(0.0645,0.0818,0.013));
#2114=CARTESIAN_POINT('',(0.0645,0.0818,0.015));
#2115=CARTESIAN_POINT('',(0.0615084987524,-0.007025655236336,0.012));
#2116=CARTESIAN_POINT('',(0.064508262350405,-0.00706331630592766,0.012));
#2117=CARTESIAN_POINT('',(0.064508262350405,-0.00706331630592766,0.012));
#2118=CARTESIAN_POINT('',(0.0615084987524,-0.007025655236336,0.012));
#2119=CARTESIAN_POINT('',(0.0645,-0.00679999999999957,0.012));
#2120=CARTESIAN_POINT('',(0.0645,-0.00679999999999957,0.012));
#2121=CARTESIAN_POINT('',(0.0019743447636644,0.000391501247587077,0.012));
#2122=CARTESIAN_POINT('',(0.0019366836940728,-0.00260826235040493,0.012));
#2123=CARTESIAN_POINT('',(0.0019366836940728,-0.00260826235040493,0.012));
#2124=CARTESIAN_POINT('',(0.0019743447636644,0.000391501247587077,0.012));
#2125=CARTESIAN_POINT('',(0.00220000000000003,-0.0026,0.012));
#2126=CARTESIAN_POINT('',(0.00220000000000003,-0.0026,0.012));
#2127=CARTESIAN_POINT('',(0.00939150124758725,0.0820256552363356,0.015));
#2128=CARTESIAN_POINT('',(0.00639173764959507,0.0820633163059272,0.015));
#2129=CARTESIAN_POINT('',(0.00639173764959507,0.0820633163059272,0.015));
#2130=CARTESIAN_POINT('',(0.00639173764959507,0.0820633163059272,0.013));
#2131=CARTESIAN_POINT('',(0.00939150124758725,0.0820256552363356,0.015));
#2132=CARTESIAN_POINT('',(0.0064,0.0818,0.015));
#2133=CARTESIAN_POINT('',(0.0064,0.0818,0.015));
#2134=CARTESIAN_POINT('',(0.0064,0.0818,0.013));
#2135=CARTESIAN_POINT('',(0.00939150124758725,0.0820256552363356,0.013));
#2136=CARTESIAN_POINT('',(0.0689252331484512,0.0746084669433864,0.015));
#2137=CARTESIAN_POINT('',(0.0689628235790344,0.0776082314273921,0.015));
#2138=CARTESIAN_POINT('',(0.0689628235790344,0.0776082314273921,0.015));
#2139=CARTESIAN_POINT('',(0.0689628235790344,0.0776082314273921,0.013));
#2140=CARTESIAN_POINT('',(0.0689252331484512,0.0746084669433864,0.015));
#2141=CARTESIAN_POINT('',(0.0687,0.0776,0.015));
#2142=CARTESIAN_POINT('',(0.0687,0.0776,0.015));
#2143=CARTESIAN_POINT('',(0.0687,0.0776,0.013));
#2144=CARTESIAN_POINT('',(0.0689252331484512,0.0746084669433864,0.013));
#2145=CARTESIAN_POINT('',(0.0729,0.0277843966135612,0.00420425546902875));
#2146=CARTESIAN_POINT('',(0.0729,0.0349815596342088,0.015));
#2147=CARTESIAN_POINT('',(0.0729,0.0349815596342088,0.015));
#2148=CARTESIAN_POINT('',(0.0729,0.0277843966135612,0.00420425546902875));
#2149=CARTESIAN_POINT('',(0.0729,0.0329815596342087,0.012));
#2150=CARTESIAN_POINT('',(0.0729,0.0329815596342087,0.012));
#2151=CARTESIAN_POINT('',(0.0729,0.0583907798171044,0.015));
#2152=CARTESIAN_POINT('',(0.0729,0.0583907798171044,0.013));
#2153=CARTESIAN_POINT('',(0.0729,0.086,0.013));
#2154=CARTESIAN_POINT('',(0.0729,0.086,0.015));
#2155=CARTESIAN_POINT('',(0.0729,0.086,0.015));
#2156=CARTESIAN_POINT('',(0.0729,0.0583907798171044,0.015));
#2157=CARTESIAN_POINT('',(9.99999999999925E-5,0.086,0.015));
#2158=CARTESIAN_POINT('',(9.99999999999925E-5,0.086,0.013));
#2159=CARTESIAN_POINT('',(-0.002,0.086,0.013));
#2160=CARTESIAN_POINT('',(-0.002,0.086,0.015));
#2161=CARTESIAN_POINT('',(-0.002,0.086,0.015));
#2162=CARTESIAN_POINT('',(9.99999999999925E-5,0.086,0.015));
#2163=CARTESIAN_POINT('',(-0.002,0.0583907798171044,0.015));
#2164=CARTESIAN_POINT('',(-0.002,0.0583907798171044,0.013));
#2165=CARTESIAN_POINT('',(-0.002,0.0349815596342088,0.015));
#2166=CARTESIAN_POINT('',(-0.002,0.0349815596342088,0.015));
#2167=CARTESIAN_POINT('',(-0.002,0.0583907798171044,0.015));
#2168=CARTESIAN_POINT('',(-0.002,0.0329815596342087,0.012));
#2169=CARTESIAN_POINT('',(-0.002,0.0329815596342087,0.012));
#2170=CARTESIAN_POINT('',(-0.002,0.0329815596342087,0.012));
#2171=CARTESIAN_POINT('',(-0.002,0.0329815596342087,0.012));
#2172=CARTESIAN_POINT('',(-0.002,-0.0089,0.012));
#2173=CARTESIAN_POINT('',(-0.002,-0.011,0.012));
#2174=CARTESIAN_POINT('',(-0.002,-0.011,0.012));
#2175=CARTESIAN_POINT('',(-0.002,-0.0089,0.012));
#2176=CARTESIAN_POINT('',(0.0708,-0.011,0.012));
#2177=CARTESIAN_POINT('',(0.0729,-0.011,0.012));
#2178=CARTESIAN_POINT('',(0.0729,-0.011,0.012));
#2179=CARTESIAN_POINT('',(0.0708,-0.011,0.012));
#2180=CARTESIAN_POINT('',(0.0022,-0.0068,0.012));
#2181=CARTESIAN_POINT('',(0.0022,-0.0068,0.012));
#2182=CARTESIAN_POINT('',(0.005,-0.0068,0.012));
#2183=CARTESIAN_POINT('',(0.0687,0.0818,0.015));
#2184=CARTESIAN_POINT('',(0.0687,0.0818,0.015));
#2185=CARTESIAN_POINT('',(0.0715,0.0818,0.015));
#2186=CARTESIAN_POINT('',(0.0687,0.0818,0.013));
#2187=CARTESIAN_POINT('',(0.0715,0.0818,0.013));
#2188=CARTESIAN_POINT('',(0.0022,0.0818,0.015));
#2189=CARTESIAN_POINT('',(0.0022,0.0818,0.015));
#2190=CARTESIAN_POINT('',(0.005,0.0818,0.015));
#2191=CARTESIAN_POINT('',(0.0022,0.0818,0.013));
#2192=CARTESIAN_POINT('',(0.005,0.0818,0.013));
#2193=CARTESIAN_POINT('',(0.0729,0.0130907798171044,0.012));
#2194=CARTESIAN_POINT('',(0.0729,0.0130907798171044,0.012));
#2195=CARTESIAN_POINT('',(0.0687,-0.0068,0.012));
#2196=CARTESIAN_POINT('',(0.0687,-0.0068,0.012));
#2197=CARTESIAN_POINT('',(0.0715,-0.0068,0.012));
#2198=CARTESIAN_POINT('',(0.03545,0.0375,0.015));
#2199=CARTESIAN_POINT('',(0.03545,0.0349815596342088,0.015));
#2200=CARTESIAN_POINT('',(0.03545,0.05863,0.015));
#2201=CARTESIAN_POINT('',(0.04947,0.05863,0.015));
#2202=CARTESIAN_POINT('',(0.02147,0.05863,0.015));
#2203=CARTESIAN_POINT('',(0.04947,0.0375,0.015));
#2204=CARTESIAN_POINT('',(0.04947,0.03623,0.015));
#2205=CARTESIAN_POINT('',(0.03545,0.03623,0.015));
#2206=CARTESIAN_POINT('',(0.02147,0.03623,0.015));
#2207=CARTESIAN_POINT('',(0.02147,0.0375,0.015));
#2208=CARTESIAN_POINT('',(0.00220000000000104,0.0818,0.015));
#2209=CARTESIAN_POINT('',(0.0687,0.0818000000000041,0.015));
#2210=CARTESIAN_POINT('',(0.00220000000000104,0.0818,0.015));
#2211=CARTESIAN_POINT('',(0.0687,0.0818000000000041,0.015));
#2212=CARTESIAN_POINT('',(0.03545,0.0375,0.012));
#2213=CARTESIAN_POINT('',(0.04175,0.026025,0.012));
#2214=CARTESIAN_POINT('',(0.04175,0.01925,0.012));
#2215=CARTESIAN_POINT('',(0.03535,0.01925,0.012));
#2216=CARTESIAN_POINT('',(0.02895,0.01925,0.012));
#2217=CARTESIAN_POINT('',(0.02895,0.026025,0.012));
#2218=CARTESIAN_POINT('',(0.03545,0.0328,0.012));
#2219=CARTESIAN_POINT('',(0.026,0.0328,0.012));
#2220=CARTESIAN_POINT('',(0.0124,0.0328,0.012));
#2221=CARTESIAN_POINT('',(0.026,0.026025,0.012));
#2222=CARTESIAN_POINT('',(0.026,0.01925,0.012));
#2223=CARTESIAN_POINT('',(0.0192,0.01925,0.012));
#2224=CARTESIAN_POINT('',(0.0124,0.01925,0.012));
#2225=CARTESIAN_POINT('',(0.0124,0.0375,0.012));
#2226=CARTESIAN_POINT('',(0.0583,0.0375,0.012));
#2227=CARTESIAN_POINT('',(0.0583,0.01925,0.012));
#2228=CARTESIAN_POINT('',(0.0515,0.01925,0.012));
#2229=CARTESIAN_POINT('',(0.0447,0.01925,0.012));
#2230=CARTESIAN_POINT('',(0.0447,0.026025,0.012));
#2231=CARTESIAN_POINT('',(0.04175,0.01045,0.012));
#2232=CARTESIAN_POINT('',(0.04175,0.01725,0.012));
#2233=CARTESIAN_POINT('',(0.02895,0.01045,0.012));
#2234=CARTESIAN_POINT('',(0.02895,0.01725,0.012));
#2235=CARTESIAN_POINT('',(0.03535,0.01725,0.012));
#2236=CARTESIAN_POINT('',(0.026,0.01045,0.012));
#2237=CARTESIAN_POINT('',(0.026,0.01725,0.012));
#2238=CARTESIAN_POINT('',(0.026,0.00365,0.012));
#2239=CARTESIAN_POINT('',(0.03545,0.00365,0.012));
#2240=CARTESIAN_POINT('',(0.0192,0.01725,0.012));
#2241=CARTESIAN_POINT('',(-0.0015,0.0329815596342087,0.012));
#2242=CARTESIAN_POINT('',(0.0515,0.01725,0.012));
#2243=CARTESIAN_POINT('',(0.0447,0.01725,0.012));
#2244=CARTESIAN_POINT('',(0.0447,0.01045,0.012));
#2245=CARTESIAN_POINT('',(0.00220000000000003,-0.00680000000000038,0.012));
#2246=CARTESIAN_POINT('',(0.0687000000000084,-0.00679999999999957,0.012));
#2247=CARTESIAN_POINT('',(0.00220000000000003,-0.00680000000000038,0.012));
#2248=CARTESIAN_POINT('',(0.0687000000000084,-0.00679999999999957,0.012));
#2249=CARTESIAN_POINT('',(-0.0015,0.0329815596342087,0.012));
#2250=CARTESIAN_POINT('',(0.03545,0.0375,0.013));
#2251=CARTESIAN_POINT('',(0.04947,0.0375,0.013));
#2252=CARTESIAN_POINT('',(0.04947,0.03623,0.013));
#2253=CARTESIAN_POINT('',(0.04947,0.05863,0.013));
#2254=CARTESIAN_POINT('',(0.03545,0.05863,0.013));
#2255=CARTESIAN_POINT('',(0.02147,0.05863,0.013));
#2256=CARTESIAN_POINT('',(0.02147,0.0375,0.013));
#2257=CARTESIAN_POINT('',(0.02147,0.03623,0.013));
#2258=CARTESIAN_POINT('',(0.03545,0.03623,0.013));
#2259=CARTESIAN_POINT('',(0.03545,0.046,0.013));
#2260=CARTESIAN_POINT('',(0.0104,0.046,0.013));
#2261=CARTESIAN_POINT('',(0.01647,0.046,0.013));
#2262=CARTESIAN_POINT('',(0.0104,0.0375,0.013));
#2263=CARTESIAN_POINT('',(0.0603,0.0375,0.013));
#2264=CARTESIAN_POINT('',(0.0603,0.046,0.013));
#2265=CARTESIAN_POINT('',(0.03545,0.046,0.013));
#2266=CARTESIAN_POINT('',(0.05447,0.046,0.013));
#2267=CARTESIAN_POINT('',(0.05447,0.0375,0.013));
#2268=CARTESIAN_POINT('',(0.01647,0.0375,0.013));
#2269=CARTESIAN_POINT('',(0.0687,0.0818000000000041,0.013));
#2270=CARTESIAN_POINT('',(0.00220000000000104,0.0818,0.013));
#2271=CARTESIAN_POINT('',(0.0687,0.0818000000000041,0.013));
#2272=CARTESIAN_POINT('',(0.00220000000000104,0.0818,0.013));
#2273=CARTESIAN_POINT('',(0.0687,0.0818000000000041,0.015));
#2274=CARTESIAN_POINT('',(0.00220000000000104,0.0818,0.015));
#2275=CARTESIAN_POINT('',(0.0687,0.0818000000000041,0.015));
#2276=CARTESIAN_POINT('',(0.00220000000000104,0.0818,0.015));
#2277=CARTESIAN_POINT('',(0.00220000000000003,-0.00680000000000038,0.012));
#2278=CARTESIAN_POINT('',(0.0687000000000084,-0.00679999999999957,0.012));
#2279=CARTESIAN_POINT('',(0.00220000000000003,-0.00680000000000038,0.012));
#2280=CARTESIAN_POINT('',(0.0687000000000084,-0.00679999999999957,0.012));
#2281=CARTESIAN_POINT('',(0.03535,0.0328,0.0499));
#2282=CARTESIAN_POINT('',(0.03545,0.0328,0.0048));
#2283=CARTESIAN_POINT('',(0.026,0.0328,0.0048));
#2284=CARTESIAN_POINT('',(0.0124,0.0328,0.0048));
#2285=CARTESIAN_POINT('',(0.026,0.0328,0.0048));
#2286=CARTESIAN_POINT('',(0.0124,0.0328,0.0499));
#2287=CARTESIAN_POINT('',(0.0124,0.018225,0.0499));
#2288=CARTESIAN_POINT('',(0.0124,0.01925,0.0048));
#2289=CARTESIAN_POINT('',(0.0124,0.01925,0.0048));
#2290=CARTESIAN_POINT('',(0.0124,0.0375,0.0048));
#2291=CARTESIAN_POINT('',(0.03535,0.00365,0.0499));
#2292=CARTESIAN_POINT('',(0.026,0.00365,0.0048));
#2293=CARTESIAN_POINT('',(0.026,0.00365,0.0048));
#2294=CARTESIAN_POINT('',(0.03545,0.00365,0.0048));
#2295=CARTESIAN_POINT('',(0.0583,0.018225,0.0499));
#2296=CARTESIAN_POINT('',(0.0583,0.0375,0.0048));
#2297=CARTESIAN_POINT('',(0.0583,0.01925,0.0048));
#2298=CARTESIAN_POINT('',(0.0583,0.01925,0.0048));
#2299=CARTESIAN_POINT('',(0.02147,0.05093,0.0499));
#2300=CARTESIAN_POINT('',(0.02147,0.05863,0.0499));
#2301=CARTESIAN_POINT('',(0.02147,0.03623,0.0499));
#2302=CARTESIAN_POINT('',(0.03547,0.03623,0.0499));
#2303=CARTESIAN_POINT('',(0.04947,0.03623,0.0499));
#2304=CARTESIAN_POINT('',(0.04947,0.05093,0.0499));
#2305=CARTESIAN_POINT('',(0.04947,0.05863,0.0499));
#2306=CARTESIAN_POINT('',(0.0603,0.0183157798171044,0.0048));
#2307=CARTESIAN_POINT('',(0.0603,0.0183157798171044,0.0048));
#2308=CARTESIAN_POINT('',(0.0603,0.0378,0.0048));
#2309=CARTESIAN_POINT('',(0.0603,0.00165,0.0048));
#2310=CARTESIAN_POINT('',(0.0603,0.0378,0.0048));
#2311=CARTESIAN_POINT('',(0.0603,0.00165,0.0048));
#2312=CARTESIAN_POINT('',(0.0104,0.0183157798171043,0.0048));
#2313=CARTESIAN_POINT('',(0.0104,0.0280578899085522,-0.00494211009144783));
#2314=CARTESIAN_POINT('',(0.0104,0.0378,0.0048));
#2315=CARTESIAN_POINT('',(0.0104,0.0183157798171043,0.0048));
#2316=CARTESIAN_POINT('',(0.0104,0.00165,0.0048));
#2317=CARTESIAN_POINT('',(0.0104,0.00165,0.0048));
#2318=CARTESIAN_POINT('',(0.03535,0.00165,0.0048));
#2319=CARTESIAN_POINT('',(0.03535,0.00165,0.0048));
#2320=CARTESIAN_POINT('',(0.03545,0.0119907798171044,0.0048));
#2321=CARTESIAN_POINT('',(0.04175,0.026025,0.0048));
#2322=CARTESIAN_POINT('',(0.04175,0.01925,0.0048));
#2323=CARTESIAN_POINT('',(0.02895,0.026025,0.0048));
#2324=CARTESIAN_POINT('',(0.02895,0.01925,0.0048));
#2325=CARTESIAN_POINT('',(0.03535,0.01925,0.0048));
#2326=CARTESIAN_POINT('',(0.026,0.026025,0.0048));
#2327=CARTESIAN_POINT('',(0.026,0.01925,0.0048));
#2328=CARTESIAN_POINT('',(0.0192,0.01925,0.0048));
#2329=CARTESIAN_POINT('',(0.0447,0.026025,0.0048));
#2330=CARTESIAN_POINT('',(0.0447,0.01925,0.0048));
#2331=CARTESIAN_POINT('',(0.0515,0.01925,0.0048));
#2332=CARTESIAN_POINT('',(0.026,0.01045,0.0048));
#2333=CARTESIAN_POINT('',(0.026,0.01725,0.0048));
#2334=CARTESIAN_POINT('',(0.0192,0.01725,0.0048));
#2335=CARTESIAN_POINT('',(0.04175,0.01045,0.0048));
#2336=CARTESIAN_POINT('',(0.04175,0.01725,0.0048));
#2337=CARTESIAN_POINT('',(0.03535,0.01725,0.0048));
#2338=CARTESIAN_POINT('',(0.02895,0.01725,0.0048));
#2339=CARTESIAN_POINT('',(0.02895,0.01045,0.0048));
#2340=CARTESIAN_POINT('',(0.0447,0.01045,0.0048));
#2341=CARTESIAN_POINT('',(0.0447,0.01725,0.0048));
#2342=CARTESIAN_POINT('',(0.0515,0.01725,0.0048));
#2343=CARTESIAN_POINT('',(0.05447,0.0404907798171044,0.0048));
#2344=CARTESIAN_POINT('',(0.05447,0.0378,0.0048));
#2345=CARTESIAN_POINT('',(0.03545,0.0378,0.0048));
#2346=CARTESIAN_POINT('',(0.03545,0.0378,0.0048));
#2347=CARTESIAN_POINT('',(0.01647,0.0378,0.0048));
#2348=CARTESIAN_POINT('',(0.01647,0.0404907798171044,0.0048));
#2349=CARTESIAN_POINT('',(0.05447,0.0404907798171044,0.0048));
#2350=CARTESIAN_POINT('',(0.05447,0.0391453899085522,0.00614538990855218));
#2351=CARTESIAN_POINT('',(0.01647,0.0404907798171044,0.0048));
#2352=CARTESIAN_POINT('',(0.01647,0.0378,0.0048));
#2353=CARTESIAN_POINT('',(0.03545,0.0378,0.0048));
#2354=CARTESIAN_POINT('',(0.03545,0.0378,0.0048));
#2355=CARTESIAN_POINT('',(0.03547,0.05863,0.0499));
#2356=CARTESIAN_POINT('',(0.026,0.026025,0.0048));
#2357=CARTESIAN_POINT('',(0.026,0.01925,0.0048));
#2358=CARTESIAN_POINT('',(0.0192,0.01925,0.0048));
#2359=CARTESIAN_POINT('',(0.0192,0.01725,0.0048));
#2360=CARTESIAN_POINT('',(0.026,0.01725,0.0048));
#2361=CARTESIAN_POINT('',(0.026,0.01045,0.0048));
#2362=CARTESIAN_POINT('',(0.02895,0.01045,0.0048));
#2363=CARTESIAN_POINT('',(0.02895,0.01725,0.0048));
#2364=CARTESIAN_POINT('',(0.03535,0.01725,0.0048));
#2365=CARTESIAN_POINT('',(0.04175,0.01725,0.0048));
#2366=CARTESIAN_POINT('',(0.04175,0.01045,0.0048));
#2367=CARTESIAN_POINT('',(0.0447,0.01045,0.0048));
#2368=CARTESIAN_POINT('',(0.0447,0.01725,0.0048));
#2369=CARTESIAN_POINT('',(0.0515,0.01725,0.0048));
#2370=CARTESIAN_POINT('',(0.0515,0.01925,0.0048));
#2371=CARTESIAN_POINT('',(0.0447,0.01925,0.0048));
#2372=CARTESIAN_POINT('',(0.0447,0.026025,0.0048));
#2373=CARTESIAN_POINT('',(0.04175,0.026025,0.0048));
#2374=CARTESIAN_POINT('',(0.04175,0.01925,0.0048));
#2375=CARTESIAN_POINT('',(0.03535,0.01925,0.0048));
#2376=CARTESIAN_POINT('',(0.02895,0.01925,0.0048));
#2377=CARTESIAN_POINT('',(0.02895,0.026025,0.0048));
#2378=MECHANICAL_DESIGN_GEOMETRIC_PRESENTATION_REPRESENTATION('',(#1467),
#2379);
#2379=(
GEOMETRIC_REPRESENTATION_CONTEXT(3)
GLOBAL_UNCERTAINTY_ASSIGNED_CONTEXT((#2380))
GLOBAL_UNIT_ASSIGNED_CONTEXT((#2383,#2382,#2381))
REPRESENTATION_CONTEXT('MP3_COVER_Top','TOP_LEVEL_ASSEMBLY_PART')
);
#2380=UNCERTAINTY_MEASURE_WITH_UNIT(LENGTH_MEASURE(1.E-8),#2383,
'DISTANCE_ACCURACY_VALUE','Maximum Tolerance applied to model');
#2381=(
NAMED_UNIT(*)
SI_UNIT($,.STERADIAN.)
SOLID_ANGLE_UNIT()
);
#2382=(
NAMED_UNIT(*)
PLANE_ANGLE_UNIT()
SI_UNIT($,.RADIAN.)
);
#2383=(
LENGTH_UNIT()
NAMED_UNIT(*)
SI_UNIT($,.METRE.)
);
#2384=PRODUCT_DEFINITION_SHAPE('','',#2385);
#2385=PRODUCT_DEFINITION('','',#2387,#2386);
#2386=PRODUCT_DEFINITION_CONTEXT('',#2393,'design');
#2387=PRODUCT_DEFINITION_FORMATION_WITH_SPECIFIED_SOURCE('','',#2389,
 .NOT_KNOWN.);
#2388=PRODUCT_RELATED_PRODUCT_CATEGORY('','',(#2389));
#2389=PRODUCT('MP3_COVER_Top','MP3_COVER_Top','MP3_COVER_Top',(#2391));
#2390=PRODUCT_CATEGORY('','');
#2391=PRODUCT_CONTEXT('',#2393,'mechanical');
#2392=APPLICATION_PROTOCOL_DEFINITION('international standard',
'ap242_managed_model_based_3d_engineering',2020,#2393);
#2393=APPLICATION_CONTEXT('managed model based 3d engineering');
ENDSEC;
END-ISO-10303-21;
