ISO-10303-21;
HEADER;
/* Generated by software containing ST-Developer
 * from STEP Tools, Inc. (www.steptools.com) 
 */
/* OPTION: using custom renumber hook */

FILE_DESCRIPTION(
/* description */ ('STEP AP242 Edition 2',
'CAx-IF Rec.Pracs.---Representation and Presentation of Product Manufa
cturing Information (PMI)---4.0---2014-10-13',
'CAx-IF Rec.Pracs.---3D Tessellated Geometry---0.4---2014-09-14','2;1',
'CAx-IF Rec.Pracs.---User Defined Attributes---1.5---2016-08-15'),
/* implementation_level */ '2;1');

FILE_NAME(
/* name */ 'MP3_ESP32_C3 - MP3_COVER_Top',
/* time_stamp */ '2026-07-31T19:08:47Z',
/* author */ (''),
/* organization */ (''),
/* preprocessor_version */ 'ST-DEVELOPER v20',
/* originating_system */ 'ONSHAPE BY PTC INC, 1.218',
/* authorisation */ '  ');

FILE_SCHEMA (('AP242_MANAGED_MODEL_BASED_3D_ENGINEERING_MIM_LF { 1 0 10303 442 3 1 4 }'));
ENDSEC;

DATA;
#10=SHAPE_REPRESENTATION_RELATIONSHIP('','',#1447,#11);
#11=ADVANCED_BREP_SHAPE_REPRESENTATION('',(#1445),#2329);
#12=CYLINDRICAL_SURFACE('',#1477,0.00300000000000007);
#13=CYLINDRICAL_SURFACE('',#1479,0.00299999999999978);
#14=CYLINDRICAL_SURFACE('',#1481,0.00300000000000175);
#15=CYLINDRICAL_SURFACE('',#1484,0.003);
#16=CYLINDRICAL_SURFACE('',#1487,0.00300000000001309);
#17=CYLINDRICAL_SURFACE('',#1489,0.00300000000000012);
#18=CYLINDRICAL_SURFACE('',#1491,0.0030000000000003);
#19=CYLINDRICAL_SURFACE('',#1494,0.00299999999999558);
#20=CYLINDRICAL_SURFACE('',#1504,0.0028);
#21=CYLINDRICAL_SURFACE('',#1506,0.0028);
#22=CYLINDRICAL_SURFACE('',#1509,0.0028);
#23=CYLINDRICAL_SURFACE('',#1513,0.0028);
#24=CYLINDRICAL_SURFACE('',#1531,0.00420000000000409);
#25=CYLINDRICAL_SURFACE('',#1532,0.00419999999999895);
#26=CYLINDRICAL_SURFACE('',#1533,0.00420000000000409);
#27=CYLINDRICAL_SURFACE('',#1534,0.00419999999999895);
#28=CYLINDRICAL_SURFACE('',#1535,0.00420000000000037);
#29=CYLINDRICAL_SURFACE('',#1536,0.00420000000000842);
#30=CYLINDRICAL_SURFACE('',#1537,0.00420000000000037);
#31=CYLINDRICAL_SURFACE('',#1538,0.00420000000000842);
#32=CIRCLE('',#1467,0.00300000000000007);
#33=CIRCLE('',#1468,0.00420000000000842);
#34=CIRCLE('',#1469,0.0028);
#35=CIRCLE('',#1470,0.0028);
#36=CIRCLE('',#1471,0.00299999999999978);
#37=CIRCLE('',#1472,0.00420000000000037);
#38=CIRCLE('',#1473,0.00420000000000842);
#39=CIRCLE('',#1474,0.00300000000001309);
#40=CIRCLE('',#1475,0.00420000000000037);
#41=CIRCLE('',#1476,0.00300000000000012);
#42=CIRCLE('',#1478,0.00300000000000007);
#43=CIRCLE('',#1480,0.00299999999999978);
#44=CIRCLE('',#1482,0.00300000000000175);
#45=CIRCLE('',#1483,0.00300000000000175);
#46=CIRCLE('',#1485,0.003);
#47=CIRCLE('',#1486,0.003);
#48=CIRCLE('',#1488,0.00300000000001309);
#49=CIRCLE('',#1490,0.00300000000000012);
#50=CIRCLE('',#1492,0.0030000000000003);
#51=CIRCLE('',#1493,0.0030000000000003);
#52=CIRCLE('',#1495,0.00299999999999558);
#53=CIRCLE('',#1496,0.00299999999999558);
#54=CIRCLE('',#1505,0.0028);
#55=CIRCLE('',#1507,0.0028);
#56=CIRCLE('',#1508,0.0028);
#57=CIRCLE('',#1510,0.0028);
#58=CIRCLE('',#1511,0.0028);
#59=CIRCLE('',#1514,0.0028);
#60=CIRCLE('',#1516,0.00419999999999895);
#61=CIRCLE('',#1517,0.00420000000000409);
#62=CIRCLE('',#1518,0.00419999999999895);
#63=CIRCLE('',#1519,0.00420000000000409);
#64=CIRCLE('',#1521,0.00420000000000037);
#65=CIRCLE('',#1522,0.00420000000000842);
#66=CIRCLE('',#1523,0.00420000000000037);
#67=CIRCLE('',#1524,0.00420000000000842);
#68=CIRCLE('',#1527,0.00420000000000409);
#69=CIRCLE('',#1528,0.00419999999999895);
#70=CIRCLE('',#1529,0.00420000000000409);
#71=CIRCLE('',#1530,0.00419999999999895);
#72=ORIENTED_EDGE('',*,*,#468,.T.);
#73=ORIENTED_EDGE('',*,*,#469,.F.);
#74=ORIENTED_EDGE('',*,*,#470,.F.);
#75=ORIENTED_EDGE('',*,*,#471,.T.);
#76=ORIENTED_EDGE('',*,*,#472,.T.);
#77=ORIENTED_EDGE('',*,*,#468,.F.);
#78=ORIENTED_EDGE('',*,*,#473,.F.);
#79=ORIENTED_EDGE('',*,*,#474,.T.);
#80=ORIENTED_EDGE('',*,*,#475,.T.);
#81=ORIENTED_EDGE('',*,*,#476,.F.);
#82=ORIENTED_EDGE('',*,*,#477,.F.);
#83=ORIENTED_EDGE('',*,*,#478,.T.);
#84=ORIENTED_EDGE('',*,*,#479,.T.);
#85=ORIENTED_EDGE('',*,*,#480,.F.);
#86=ORIENTED_EDGE('',*,*,#475,.F.);
#87=ORIENTED_EDGE('',*,*,#481,.T.);
#88=ORIENTED_EDGE('',*,*,#482,.T.);
#89=ORIENTED_EDGE('',*,*,#483,.F.);
#90=ORIENTED_EDGE('',*,*,#484,.F.);
#91=ORIENTED_EDGE('',*,*,#485,.T.);
#92=ORIENTED_EDGE('',*,*,#486,.T.);
#93=ORIENTED_EDGE('',*,*,#487,.F.);
#94=ORIENTED_EDGE('',*,*,#485,.F.);
#95=ORIENTED_EDGE('',*,*,#488,.T.);
#96=ORIENTED_EDGE('',*,*,#489,.T.);
#97=ORIENTED_EDGE('',*,*,#490,.F.);
#98=ORIENTED_EDGE('',*,*,#486,.F.);
#99=ORIENTED_EDGE('',*,*,#491,.T.);
#100=ORIENTED_EDGE('',*,*,#492,.T.);
#101=ORIENTED_EDGE('',*,*,#493,.F.);
#102=ORIENTED_EDGE('',*,*,#494,.F.);
#103=ORIENTED_EDGE('',*,*,#495,.T.);
#104=ORIENTED_EDGE('',*,*,#496,.T.);
#105=ORIENTED_EDGE('',*,*,#497,.F.);
#106=ORIENTED_EDGE('',*,*,#495,.F.);
#107=ORIENTED_EDGE('',*,*,#498,.T.);
#108=ORIENTED_EDGE('',*,*,#499,.T.);
#109=ORIENTED_EDGE('',*,*,#500,.F.);
#110=ORIENTED_EDGE('',*,*,#501,.F.);
#111=ORIENTED_EDGE('',*,*,#502,.T.);
#112=ORIENTED_EDGE('',*,*,#503,.T.);
#113=ORIENTED_EDGE('',*,*,#502,.F.);
#114=ORIENTED_EDGE('',*,*,#504,.F.);
#115=ORIENTED_EDGE('',*,*,#505,.T.);
#116=ORIENTED_EDGE('',*,*,#506,.T.);
#117=ORIENTED_EDGE('',*,*,#507,.F.);
#118=ORIENTED_EDGE('',*,*,#508,.F.);
#119=ORIENTED_EDGE('',*,*,#509,.T.);
#120=ORIENTED_EDGE('',*,*,#510,.T.);
#121=ORIENTED_EDGE('',*,*,#506,.F.);
#122=ORIENTED_EDGE('',*,*,#511,.F.);
#123=ORIENTED_EDGE('',*,*,#512,.T.);
#124=ORIENTED_EDGE('',*,*,#513,.T.);
#125=ORIENTED_EDGE('',*,*,#512,.F.);
#126=ORIENTED_EDGE('',*,*,#514,.F.);
#127=ORIENTED_EDGE('',*,*,#515,.T.);
#128=ORIENTED_EDGE('',*,*,#516,.F.);
#129=ORIENTED_EDGE('',*,*,#517,.T.);
#130=ORIENTED_EDGE('',*,*,#518,.T.);
#131=ORIENTED_EDGE('',*,*,#519,.F.);
#132=ORIENTED_EDGE('',*,*,#520,.T.);
#133=ORIENTED_EDGE('',*,*,#521,.T.);
#134=ORIENTED_EDGE('',*,*,#522,.T.);
#135=ORIENTED_EDGE('',*,*,#523,.T.);
#136=ORIENTED_EDGE('',*,*,#524,.F.);
#137=ORIENTED_EDGE('',*,*,#525,.T.);
#138=ORIENTED_EDGE('',*,*,#526,.T.);
#139=ORIENTED_EDGE('',*,*,#527,.T.);
#140=ORIENTED_EDGE('',*,*,#528,.T.);
#141=ORIENTED_EDGE('',*,*,#529,.T.);
#142=ORIENTED_EDGE('',*,*,#530,.F.);
#143=ORIENTED_EDGE('',*,*,#531,.F.);
#144=ORIENTED_EDGE('',*,*,#532,.T.);
#145=ORIENTED_EDGE('',*,*,#533,.T.);
#146=ORIENTED_EDGE('',*,*,#534,.T.);
#147=ORIENTED_EDGE('',*,*,#535,.T.);
#148=ORIENTED_EDGE('',*,*,#536,.T.);
#149=ORIENTED_EDGE('',*,*,#537,.T.);
#150=ORIENTED_EDGE('',*,*,#538,.F.);
#151=ORIENTED_EDGE('',*,*,#527,.F.);
#152=ORIENTED_EDGE('',*,*,#539,.T.);
#153=ORIENTED_EDGE('',*,*,#540,.F.);
#154=ORIENTED_EDGE('',*,*,#541,.F.);
#155=ORIENTED_EDGE('',*,*,#522,.F.);
#156=ORIENTED_EDGE('',*,*,#542,.T.);
#157=ORIENTED_EDGE('',*,*,#543,.T.);
#158=ORIENTED_EDGE('',*,*,#544,.T.);
#159=ORIENTED_EDGE('',*,*,#545,.T.);
#160=ORIENTED_EDGE('',*,*,#528,.F.);
#161=ORIENTED_EDGE('',*,*,#546,.F.);
#162=ORIENTED_EDGE('',*,*,#547,.T.);
#163=ORIENTED_EDGE('',*,*,#548,.T.);
#164=ORIENTED_EDGE('',*,*,#532,.F.);
#165=ORIENTED_EDGE('',*,*,#549,.F.);
#166=ORIENTED_EDGE('',*,*,#550,.T.);
#167=ORIENTED_EDGE('',*,*,#551,.T.);
#168=ORIENTED_EDGE('',*,*,#552,.F.);
#169=ORIENTED_EDGE('',*,*,#553,.F.);
#170=ORIENTED_EDGE('',*,*,#554,.T.);
#171=ORIENTED_EDGE('',*,*,#555,.T.);
#172=ORIENTED_EDGE('',*,*,#556,.F.);
#173=ORIENTED_EDGE('',*,*,#557,.F.);
#174=ORIENTED_EDGE('',*,*,#558,.F.);
#175=ORIENTED_EDGE('',*,*,#559,.T.);
#176=ORIENTED_EDGE('',*,*,#560,.T.);
#177=ORIENTED_EDGE('',*,*,#535,.F.);
#178=ORIENTED_EDGE('',*,*,#561,.F.);
#179=ORIENTED_EDGE('',*,*,#562,.T.);
#180=ORIENTED_EDGE('',*,*,#563,.T.);
#181=ORIENTED_EDGE('',*,*,#537,.F.);
#182=ORIENTED_EDGE('',*,*,#564,.F.);
#183=ORIENTED_EDGE('',*,*,#565,.T.);
#184=ORIENTED_EDGE('',*,*,#566,.T.);
#185=ORIENTED_EDGE('',*,*,#567,.F.);
#186=ORIENTED_EDGE('',*,*,#568,.F.);
#187=ORIENTED_EDGE('',*,*,#569,.T.);
#188=ORIENTED_EDGE('',*,*,#570,.T.);
#189=ORIENTED_EDGE('',*,*,#571,.F.);
#190=ORIENTED_EDGE('',*,*,#526,.F.);
#191=ORIENTED_EDGE('',*,*,#572,.F.);
#192=ORIENTED_EDGE('',*,*,#573,.T.);
#193=ORIENTED_EDGE('',*,*,#574,.T.);
#194=ORIENTED_EDGE('',*,*,#575,.F.);
#195=ORIENTED_EDGE('',*,*,#576,.F.);
#196=ORIENTED_EDGE('',*,*,#577,.T.);
#197=ORIENTED_EDGE('',*,*,#572,.T.);
#198=ORIENTED_EDGE('',*,*,#578,.F.);
#199=ORIENTED_EDGE('',*,*,#579,.F.);
#200=ORIENTED_EDGE('',*,*,#580,.T.);
#201=ORIENTED_EDGE('',*,*,#576,.T.);
#202=ORIENTED_EDGE('',*,*,#581,.T.);
#203=ORIENTED_EDGE('',*,*,#582,.F.);
#204=ORIENTED_EDGE('',*,*,#583,.F.);
#205=ORIENTED_EDGE('',*,*,#579,.T.);
#206=ORIENTED_EDGE('',*,*,#523,.F.);
#207=ORIENTED_EDGE('',*,*,#584,.F.);
#208=ORIENTED_EDGE('',*,*,#585,.T.);
#209=ORIENTED_EDGE('',*,*,#582,.T.);
#210=ORIENTED_EDGE('',*,*,#541,.T.);
#211=ORIENTED_EDGE('',*,*,#586,.F.);
#212=ORIENTED_EDGE('',*,*,#587,.F.);
#213=ORIENTED_EDGE('',*,*,#584,.T.);
#214=ORIENTED_EDGE('',*,*,#540,.T.);
#215=ORIENTED_EDGE('',*,*,#588,.F.);
#216=ORIENTED_EDGE('',*,*,#589,.F.);
#217=ORIENTED_EDGE('',*,*,#586,.T.);
#218=ORIENTED_EDGE('',*,*,#590,.F.);
#219=ORIENTED_EDGE('',*,*,#531,.T.);
#220=ORIENTED_EDGE('',*,*,#591,.T.);
#221=ORIENTED_EDGE('',*,*,#592,.F.);
#222=ORIENTED_EDGE('',*,*,#593,.T.);
#223=ORIENTED_EDGE('',*,*,#594,.F.);
#224=ORIENTED_EDGE('',*,*,#539,.F.);
#225=ORIENTED_EDGE('',*,*,#574,.F.);
#226=ORIENTED_EDGE('',*,*,#595,.T.);
#227=ORIENTED_EDGE('',*,*,#588,.T.);
#228=ORIENTED_EDGE('',*,*,#596,.F.);
#229=ORIENTED_EDGE('',*,*,#530,.T.);
#230=ORIENTED_EDGE('',*,*,#597,.T.);
#231=ORIENTED_EDGE('',*,*,#577,.F.);
#232=ORIENTED_EDGE('',*,*,#580,.F.);
#233=ORIENTED_EDGE('',*,*,#583,.T.);
#234=ORIENTED_EDGE('',*,*,#598,.F.);
#235=ORIENTED_EDGE('',*,*,#599,.F.);
#236=ORIENTED_EDGE('',*,*,#600,.T.);
#237=ORIENTED_EDGE('',*,*,#601,.T.);
#238=ORIENTED_EDGE('',*,*,#565,.F.);
#239=ORIENTED_EDGE('',*,*,#602,.F.);
#240=ORIENTED_EDGE('',*,*,#569,.F.);
#241=ORIENTED_EDGE('',*,*,#603,.F.);
#242=ORIENTED_EDGE('',*,*,#604,.F.);
#243=ORIENTED_EDGE('',*,*,#550,.F.);
#244=ORIENTED_EDGE('',*,*,#554,.F.);
#245=ORIENTED_EDGE('',*,*,#605,.F.);
#246=ORIENTED_EDGE('',*,*,#593,.F.);
#247=ORIENTED_EDGE('',*,*,#591,.F.);
#248=ORIENTED_EDGE('',*,*,#606,.T.);
#249=ORIENTED_EDGE('',*,*,#607,.F.);
#250=ORIENTED_EDGE('',*,*,#608,.F.);
#251=ORIENTED_EDGE('',*,*,#609,.T.);
#252=ORIENTED_EDGE('',*,*,#610,.T.);
#253=ORIENTED_EDGE('',*,*,#587,.T.);
#254=ORIENTED_EDGE('',*,*,#589,.T.);
#255=ORIENTED_EDGE('',*,*,#595,.F.);
#256=ORIENTED_EDGE('',*,*,#547,.F.);
#257=ORIENTED_EDGE('',*,*,#611,.F.);
#258=ORIENTED_EDGE('',*,*,#596,.T.);
#259=ORIENTED_EDGE('',*,*,#590,.T.);
#260=ORIENTED_EDGE('',*,*,#612,.F.);
#261=ORIENTED_EDGE('',*,*,#544,.F.);
#262=ORIENTED_EDGE('',*,*,#562,.F.);
#263=ORIENTED_EDGE('',*,*,#613,.F.);
#264=ORIENTED_EDGE('',*,*,#559,.F.);
#265=ORIENTED_EDGE('',*,*,#614,.F.);
#266=ORIENTED_EDGE('',*,*,#610,.F.);
#267=ORIENTED_EDGE('',*,*,#573,.F.);
#268=ORIENTED_EDGE('',*,*,#597,.F.);
#269=ORIENTED_EDGE('',*,*,#585,.F.);
#270=ORIENTED_EDGE('',*,*,#615,.T.);
#271=ORIENTED_EDGE('',*,*,#616,.T.);
#272=ORIENTED_EDGE('',*,*,#617,.F.);
#273=ORIENTED_EDGE('',*,*,#618,.F.);
#274=ORIENTED_EDGE('',*,*,#619,.F.);
#275=ORIENTED_EDGE('',*,*,#620,.T.);
#276=ORIENTED_EDGE('',*,*,#520,.F.);
#277=ORIENTED_EDGE('',*,*,#581,.F.);
#278=ORIENTED_EDGE('',*,*,#578,.T.);
#279=ORIENTED_EDGE('',*,*,#575,.T.);
#280=ORIENTED_EDGE('',*,*,#525,.F.);
#281=ORIENTED_EDGE('',*,*,#621,.F.);
#282=ORIENTED_EDGE('',*,*,#622,.F.);
#283=ORIENTED_EDGE('',*,*,#623,.T.);
#284=ORIENTED_EDGE('',*,*,#518,.F.);
#285=ORIENTED_EDGE('',*,*,#624,.F.);
#286=ORIENTED_EDGE('',*,*,#625,.T.);
#287=ORIENTED_EDGE('',*,*,#571,.T.);
#288=ORIENTED_EDGE('',*,*,#626,.T.);
#289=ORIENTED_EDGE('',*,*,#567,.T.);
#290=ORIENTED_EDGE('',*,*,#556,.T.);
#291=ORIENTED_EDGE('',*,*,#627,.T.);
#292=ORIENTED_EDGE('',*,*,#552,.T.);
#293=ORIENTED_EDGE('',*,*,#628,.T.);
#294=ORIENTED_EDGE('',*,*,#594,.T.);
#295=ORIENTED_EDGE('',*,*,#592,.T.);
#296=ORIENTED_EDGE('',*,*,#570,.F.);
#297=ORIENTED_EDGE('',*,*,#603,.T.);
#298=ORIENTED_EDGE('',*,*,#568,.T.);
#299=ORIENTED_EDGE('',*,*,#625,.F.);
#300=ORIENTED_EDGE('',*,*,#566,.F.);
#301=ORIENTED_EDGE('',*,*,#602,.T.);
#302=ORIENTED_EDGE('',*,*,#564,.T.);
#303=ORIENTED_EDGE('',*,*,#626,.F.);
#304=ORIENTED_EDGE('',*,*,#605,.T.);
#305=ORIENTED_EDGE('',*,*,#557,.T.);
#306=ORIENTED_EDGE('',*,*,#627,.F.);
#307=ORIENTED_EDGE('',*,*,#555,.F.);
#308=ORIENTED_EDGE('',*,*,#604,.T.);
#309=ORIENTED_EDGE('',*,*,#553,.T.);
#310=ORIENTED_EDGE('',*,*,#628,.F.);
#311=ORIENTED_EDGE('',*,*,#551,.F.);
#312=ORIENTED_EDGE('',*,*,#563,.F.);
#313=ORIENTED_EDGE('',*,*,#613,.T.);
#314=ORIENTED_EDGE('',*,*,#561,.T.);
#315=ORIENTED_EDGE('',*,*,#536,.F.);
#316=ORIENTED_EDGE('',*,*,#560,.F.);
#317=ORIENTED_EDGE('',*,*,#614,.T.);
#318=ORIENTED_EDGE('',*,*,#558,.T.);
#319=ORIENTED_EDGE('',*,*,#534,.F.);
#320=ORIENTED_EDGE('',*,*,#611,.T.);
#321=ORIENTED_EDGE('',*,*,#549,.T.);
#322=ORIENTED_EDGE('',*,*,#533,.F.);
#323=ORIENTED_EDGE('',*,*,#548,.F.);
#324=ORIENTED_EDGE('',*,*,#612,.T.);
#325=ORIENTED_EDGE('',*,*,#546,.T.);
#326=ORIENTED_EDGE('',*,*,#529,.F.);
#327=ORIENTED_EDGE('',*,*,#545,.F.);
#328=ORIENTED_EDGE('',*,*,#629,.F.);
#329=ORIENTED_EDGE('',*,*,#470,.T.);
#330=ORIENTED_EDGE('',*,*,#630,.F.);
#331=ORIENTED_EDGE('',*,*,#515,.F.);
#332=ORIENTED_EDGE('',*,*,#631,.F.);
#333=ORIENTED_EDGE('',*,*,#508,.T.);
#334=ORIENTED_EDGE('',*,*,#632,.F.);
#335=ORIENTED_EDGE('',*,*,#505,.F.);
#336=ORIENTED_EDGE('',*,*,#633,.F.);
#337=ORIENTED_EDGE('',*,*,#634,.F.);
#338=ORIENTED_EDGE('',*,*,#607,.T.);
#339=ORIENTED_EDGE('',*,*,#635,.T.);
#340=ORIENTED_EDGE('',*,*,#474,.F.);
#341=ORIENTED_EDGE('',*,*,#636,.T.);
#342=ORIENTED_EDGE('',*,*,#635,.F.);
#343=ORIENTED_EDGE('',*,*,#606,.F.);
#344=ORIENTED_EDGE('',*,*,#637,.T.);
#345=ORIENTED_EDGE('',*,*,#638,.T.);
#346=ORIENTED_EDGE('',*,*,#477,.T.);
#347=ORIENTED_EDGE('',*,*,#639,.T.);
#348=ORIENTED_EDGE('',*,*,#479,.F.);
#349=ORIENTED_EDGE('',*,*,#640,.T.);
#350=ORIENTED_EDGE('',*,*,#637,.F.);
#351=ORIENTED_EDGE('',*,*,#609,.F.);
#352=ORIENTED_EDGE('',*,*,#641,.T.);
#353=ORIENTED_EDGE('',*,*,#642,.T.);
#354=ORIENTED_EDGE('',*,*,#493,.T.);
#355=ORIENTED_EDGE('',*,*,#643,.T.);
#356=ORIENTED_EDGE('',*,*,#489,.F.);
#357=ORIENTED_EDGE('',*,*,#644,.T.);
#358=ORIENTED_EDGE('',*,*,#483,.T.);
#359=ORIENTED_EDGE('',*,*,#645,.T.);
#360=ORIENTED_EDGE('',*,*,#646,.F.);
#361=ORIENTED_EDGE('',*,*,#500,.T.);
#362=ORIENTED_EDGE('',*,*,#647,.F.);
#363=ORIENTED_EDGE('',*,*,#496,.F.);
#364=ORIENTED_EDGE('',*,*,#648,.F.);
#365=ORIENTED_EDGE('',*,*,#641,.F.);
#366=ORIENTED_EDGE('',*,*,#608,.T.);
#367=ORIENTED_EDGE('',*,*,#634,.T.);
#368=ORIENTED_EDGE('',*,*,#649,.F.);
#369=ORIENTED_EDGE('',*,*,#601,.F.);
#370=ORIENTED_EDGE('',*,*,#650,.T.);
#371=ORIENTED_EDGE('',*,*,#617,.T.);
#372=ORIENTED_EDGE('',*,*,#651,.T.);
#373=ORIENTED_EDGE('',*,*,#618,.T.);
#374=ORIENTED_EDGE('',*,*,#650,.F.);
#375=ORIENTED_EDGE('',*,*,#600,.F.);
#376=ORIENTED_EDGE('',*,*,#599,.T.);
#377=ORIENTED_EDGE('',*,*,#652,.T.);
#378=ORIENTED_EDGE('',*,*,#615,.F.);
#379=ORIENTED_EDGE('',*,*,#651,.F.);
#380=ORIENTED_EDGE('',*,*,#653,.F.);
#381=ORIENTED_EDGE('',*,*,#654,.T.);
#382=ORIENTED_EDGE('',*,*,#621,.T.);
#383=ORIENTED_EDGE('',*,*,#524,.T.);
#384=ORIENTED_EDGE('',*,*,#538,.T.);
#385=ORIENTED_EDGE('',*,*,#655,.F.);
#386=ORIENTED_EDGE('',*,*,#620,.F.);
#387=ORIENTED_EDGE('',*,*,#656,.T.);
#388=ORIENTED_EDGE('',*,*,#657,.T.);
#389=ORIENTED_EDGE('',*,*,#658,.T.);
#390=ORIENTED_EDGE('',*,*,#542,.F.);
#391=ORIENTED_EDGE('',*,*,#521,.F.);
#392=ORIENTED_EDGE('',*,*,#543,.F.);
#393=ORIENTED_EDGE('',*,*,#658,.F.);
#394=ORIENTED_EDGE('',*,*,#659,.T.);
#395=ORIENTED_EDGE('',*,*,#655,.T.);
#396=ORIENTED_EDGE('',*,*,#509,.F.);
#397=ORIENTED_EDGE('',*,*,#631,.T.);
#398=ORIENTED_EDGE('',*,*,#514,.T.);
#399=ORIENTED_EDGE('',*,*,#511,.T.);
#400=ORIENTED_EDGE('',*,*,#471,.F.);
#401=ORIENTED_EDGE('',*,*,#629,.T.);
#402=ORIENTED_EDGE('',*,*,#636,.F.);
#403=ORIENTED_EDGE('',*,*,#473,.T.);
#404=ORIENTED_EDGE('',*,*,#633,.T.);
#405=ORIENTED_EDGE('',*,*,#504,.T.);
#406=ORIENTED_EDGE('',*,*,#501,.T.);
#407=ORIENTED_EDGE('',*,*,#646,.T.);
#408=ORIENTED_EDGE('',*,*,#640,.F.);
#409=ORIENTED_EDGE('',*,*,#481,.F.);
#410=ORIENTED_EDGE('',*,*,#478,.F.);
#411=ORIENTED_EDGE('',*,*,#638,.F.);
#412=ORIENTED_EDGE('',*,*,#644,.F.);
#413=ORIENTED_EDGE('',*,*,#491,.F.);
#414=ORIENTED_EDGE('',*,*,#488,.F.);
#415=ORIENTED_EDGE('',*,*,#484,.T.);
#416=ORIENTED_EDGE('',*,*,#494,.T.);
#417=ORIENTED_EDGE('',*,*,#642,.F.);
#418=ORIENTED_EDGE('',*,*,#648,.T.);
#419=ORIENTED_EDGE('',*,*,#498,.F.);
#420=ORIENTED_EDGE('',*,*,#660,.F.);
#421=ORIENTED_EDGE('',*,*,#661,.T.);
#422=ORIENTED_EDGE('',*,*,#653,.T.);
#423=ORIENTED_EDGE('',*,*,#659,.F.);
#424=ORIENTED_EDGE('',*,*,#657,.F.);
#425=ORIENTED_EDGE('',*,*,#662,.T.);
#426=ORIENTED_EDGE('',*,*,#663,.T.);
#427=ORIENTED_EDGE('',*,*,#516,.T.);
#428=ORIENTED_EDGE('',*,*,#623,.F.);
#429=ORIENTED_EDGE('',*,*,#664,.T.);
#430=ORIENTED_EDGE('',*,*,#660,.T.);
#431=ORIENTED_EDGE('',*,*,#519,.T.);
#432=ORIENTED_EDGE('',*,*,#663,.F.);
#433=ORIENTED_EDGE('',*,*,#665,.T.);
#434=ORIENTED_EDGE('',*,*,#624,.T.);
#435=ORIENTED_EDGE('',*,*,#517,.F.);
#436=ORIENTED_EDGE('',*,*,#664,.F.);
#437=ORIENTED_EDGE('',*,*,#622,.T.);
#438=ORIENTED_EDGE('',*,*,#654,.F.);
#439=ORIENTED_EDGE('',*,*,#661,.F.);
#440=ORIENTED_EDGE('',*,*,#656,.F.);
#441=ORIENTED_EDGE('',*,*,#619,.T.);
#442=ORIENTED_EDGE('',*,*,#665,.F.);
#443=ORIENTED_EDGE('',*,*,#662,.F.);
#444=ORIENTED_EDGE('',*,*,#598,.T.);
#445=ORIENTED_EDGE('',*,*,#649,.T.);
#446=ORIENTED_EDGE('',*,*,#616,.F.);
#447=ORIENTED_EDGE('',*,*,#652,.F.);
#448=ORIENTED_EDGE('',*,*,#510,.F.);
#449=ORIENTED_EDGE('',*,*,#513,.F.);
#450=ORIENTED_EDGE('',*,*,#630,.T.);
#451=ORIENTED_EDGE('',*,*,#469,.T.);
#452=ORIENTED_EDGE('',*,*,#472,.F.);
#453=ORIENTED_EDGE('',*,*,#639,.F.);
#454=ORIENTED_EDGE('',*,*,#476,.T.);
#455=ORIENTED_EDGE('',*,*,#480,.T.);
#456=ORIENTED_EDGE('',*,*,#645,.F.);
#457=ORIENTED_EDGE('',*,*,#482,.F.);
#458=ORIENTED_EDGE('',*,*,#487,.T.);
#459=ORIENTED_EDGE('',*,*,#490,.T.);
#460=ORIENTED_EDGE('',*,*,#643,.F.);
#461=ORIENTED_EDGE('',*,*,#492,.F.);
#462=ORIENTED_EDGE('',*,*,#497,.T.);
#463=ORIENTED_EDGE('',*,*,#647,.T.);
#464=ORIENTED_EDGE('',*,*,#499,.F.);
#465=ORIENTED_EDGE('',*,*,#503,.F.);
#466=ORIENTED_EDGE('',*,*,#632,.T.);
#467=ORIENTED_EDGE('',*,*,#507,.T.);
#468=EDGE_CURVE('',#666,#667,#798,.T.);
#469=EDGE_CURVE('',#668,#667,#799,.T.);
#470=EDGE_CURVE('',#669,#668,#800,.T.);
#471=EDGE_CURVE('',#669,#666,#801,.T.);
#472=EDGE_CURVE('',#670,#667,#802,.T.);
#473=EDGE_CURVE('',#671,#666,#803,.T.);
#474=EDGE_CURVE('',#671,#670,#804,.T.);
#475=EDGE_CURVE('',#672,#673,#805,.T.);
#476=EDGE_CURVE('',#674,#673,#806,.T.);
#477=EDGE_CURVE('',#675,#674,#807,.T.);
#478=EDGE_CURVE('',#675,#672,#808,.T.);
#479=EDGE_CURVE('',#676,#677,#809,.T.);
#480=EDGE_CURVE('',#673,#677,#810,.T.);
#481=EDGE_CURVE('',#672,#676,#811,.T.);
#482=EDGE_CURVE('',#678,#679,#812,.T.);
#483=EDGE_CURVE('',#680,#679,#813,.T.);
#484=EDGE_CURVE('',#681,#680,#814,.T.);
#485=EDGE_CURVE('',#681,#678,#815,.T.);
#486=EDGE_CURVE('',#682,#683,#816,.T.);
#487=EDGE_CURVE('',#678,#683,#817,.T.);
#488=EDGE_CURVE('',#681,#682,#818,.T.);
#489=EDGE_CURVE('',#684,#685,#819,.T.);
#490=EDGE_CURVE('',#683,#685,#820,.T.);
#491=EDGE_CURVE('',#682,#684,#821,.T.);
#492=EDGE_CURVE('',#686,#687,#822,.T.);
#493=EDGE_CURVE('',#688,#687,#823,.T.);
#494=EDGE_CURVE('',#689,#688,#824,.T.);
#495=EDGE_CURVE('',#689,#686,#825,.T.);
#496=EDGE_CURVE('',#690,#691,#826,.T.);
#497=EDGE_CURVE('',#686,#691,#827,.T.);
#498=EDGE_CURVE('',#689,#690,#828,.T.);
#499=EDGE_CURVE('',#692,#693,#829,.T.);
#500=EDGE_CURVE('',#694,#693,#830,.T.);
#501=EDGE_CURVE('',#695,#694,#831,.T.);
#502=EDGE_CURVE('',#695,#692,#832,.T.);
#503=EDGE_CURVE('',#696,#692,#833,.T.);
#504=EDGE_CURVE('',#697,#695,#834,.T.);
#505=EDGE_CURVE('',#697,#696,#835,.T.);
#506=EDGE_CURVE('',#698,#699,#836,.T.);
#507=EDGE_CURVE('',#700,#699,#837,.T.);
#508=EDGE_CURVE('',#701,#700,#838,.T.);
#509=EDGE_CURVE('',#701,#698,#839,.T.);
#510=EDGE_CURVE('',#702,#699,#840,.T.);
#511=EDGE_CURVE('',#703,#698,#841,.T.);
#512=EDGE_CURVE('',#703,#702,#842,.T.);
#513=EDGE_CURVE('',#704,#702,#843,.T.);
#514=EDGE_CURVE('',#705,#703,#844,.T.);
#515=EDGE_CURVE('',#705,#704,#845,.T.);
#516=EDGE_CURVE('',#706,#707,#846,.T.);
#517=EDGE_CURVE('',#706,#708,#847,.T.);
#518=EDGE_CURVE('',#708,#709,#848,.T.);
#519=EDGE_CURVE('',#707,#709,#849,.T.);
#520=EDGE_CURVE('',#710,#711,#850,.T.);
#521=EDGE_CURVE('',#711,#712,#851,.F.);
#522=EDGE_CURVE('',#712,#713,#852,.T.);
#523=EDGE_CURVE('',#713,#710,#853,.F.);
#524=EDGE_CURVE('',#714,#715,#854,.F.);
#525=EDGE_CURVE('',#714,#716,#855,.T.);
#526=EDGE_CURVE('',#716,#717,#856,.F.);
#527=EDGE_CURVE('',#717,#715,#857,.T.);
#528=EDGE_CURVE('',#718,#719,#32,.T.);
#529=EDGE_CURVE('',#719,#718,#33,.T.);
#530=EDGE_CURVE('',#720,#720,#34,.F.);
#531=EDGE_CURVE('',#721,#721,#35,.F.);
#532=EDGE_CURVE('',#722,#723,#36,.T.);
#533=EDGE_CURVE('',#723,#722,#37,.T.);
#534=EDGE_CURVE('',#724,#725,#38,.T.);
#535=EDGE_CURVE('',#725,#724,#39,.T.);
#536=EDGE_CURVE('',#726,#727,#40,.T.);
#537=EDGE_CURVE('',#727,#726,#41,.T.);
#538=EDGE_CURVE('',#715,#728,#858,.T.);
#539=EDGE_CURVE('',#717,#729,#859,.T.);
#540=EDGE_CURVE('',#730,#729,#860,.T.);
#541=EDGE_CURVE('',#713,#730,#861,.T.);
#542=EDGE_CURVE('',#712,#731,#862,.T.);
#543=EDGE_CURVE('',#731,#728,#863,.T.);
#544=EDGE_CURVE('',#732,#733,#42,.T.);
#545=EDGE_CURVE('',#733,#719,#864,.T.);
#546=EDGE_CURVE('',#732,#718,#865,.T.);
#547=EDGE_CURVE('',#734,#735,#43,.T.);
#548=EDGE_CURVE('',#735,#723,#866,.T.);
#549=EDGE_CURVE('',#734,#722,#867,.T.);
#550=EDGE_CURVE('',#736,#737,#44,.T.);
#551=EDGE_CURVE('',#737,#738,#868,.T.);
#552=EDGE_CURVE('',#739,#738,#45,.T.);
#553=EDGE_CURVE('',#736,#739,#869,.T.);
#554=EDGE_CURVE('',#740,#741,#46,.T.);
#555=EDGE_CURVE('',#741,#742,#870,.T.);
#556=EDGE_CURVE('',#743,#742,#47,.T.);
#557=EDGE_CURVE('',#740,#743,#871,.T.);
#558=EDGE_CURVE('',#744,#725,#872,.T.);
#559=EDGE_CURVE('',#744,#745,#48,.T.);
#560=EDGE_CURVE('',#745,#724,#873,.T.);
#561=EDGE_CURVE('',#746,#727,#874,.T.);
#562=EDGE_CURVE('',#746,#747,#49,.T.);
#563=EDGE_CURVE('',#747,#726,#875,.T.);
#564=EDGE_CURVE('',#748,#749,#876,.T.);
#565=EDGE_CURVE('',#748,#750,#50,.T.);
#566=EDGE_CURVE('',#750,#751,#877,.T.);
#567=EDGE_CURVE('',#749,#751,#51,.T.);
#568=EDGE_CURVE('',#752,#753,#878,.T.);
#569=EDGE_CURVE('',#752,#754,#52,.T.);
#570=EDGE_CURVE('',#754,#755,#879,.T.);
#571=EDGE_CURVE('',#753,#755,#53,.T.);
#572=EDGE_CURVE('',#756,#716,#880,.T.);
#573=EDGE_CURVE('',#756,#757,#881,.F.);
#574=EDGE_CURVE('',#757,#717,#882,.T.);
#575=EDGE_CURVE('',#758,#716,#883,.T.);
#576=EDGE_CURVE('',#759,#758,#884,.T.);
#577=EDGE_CURVE('',#759,#756,#885,.T.);
#578=EDGE_CURVE('',#760,#758,#886,.T.);
#579=EDGE_CURVE('',#761,#760,#887,.T.);
#580=EDGE_CURVE('',#761,#759,#888,.T.);
#581=EDGE_CURVE('',#760,#710,#889,.T.);
#582=EDGE_CURVE('',#762,#710,#890,.T.);
#583=EDGE_CURVE('',#761,#762,#891,.T.);
#584=EDGE_CURVE('',#763,#713,#892,.T.);
#585=EDGE_CURVE('',#763,#762,#893,.F.);
#586=EDGE_CURVE('',#764,#730,#894,.T.);
#587=EDGE_CURVE('',#763,#764,#895,.T.);
#588=EDGE_CURVE('',#765,#729,#896,.T.);
#589=EDGE_CURVE('',#764,#765,#897,.T.);
#590=EDGE_CURVE('',#766,#766,#54,.F.);
#591=EDGE_CURVE('',#767,#767,#55,.T.);
#592=EDGE_CURVE('',#768,#768,#56,.T.);
#593=EDGE_CURVE('',#769,#769,#57,.T.);
#594=EDGE_CURVE('',#770,#770,#58,.T.);
#595=EDGE_CURVE('',#757,#765,#898,.T.);
#596=EDGE_CURVE('',#771,#771,#59,.F.);
#597=EDGE_CURVE('',#762,#756,#899,.T.);
#598=EDGE_CURVE('',#772,#773,#900,.T.);
#599=EDGE_CURVE('',#774,#772,#901,.T.);
#600=EDGE_CURVE('',#774,#775,#902,.T.);
#601=EDGE_CURVE('',#775,#773,#903,.T.);
#602=EDGE_CURVE('',#750,#748,#60,.T.);
#603=EDGE_CURVE('',#754,#752,#61,.T.);
#604=EDGE_CURVE('',#737,#736,#62,.T.);
#605=EDGE_CURVE('',#741,#740,#63,.T.);
#606=EDGE_CURVE('',#776,#777,#904,.T.);
#607=EDGE_CURVE('',#778,#777,#905,.T.);
#608=EDGE_CURVE('',#779,#778,#906,.T.);
#609=EDGE_CURVE('',#779,#776,#907,.T.);
#610=EDGE_CURVE('',#757,#763,#908,.T.);
#611=EDGE_CURVE('',#735,#734,#64,.T.);
#612=EDGE_CURVE('',#733,#732,#65,.T.);
#613=EDGE_CURVE('',#747,#746,#66,.T.);
#614=EDGE_CURVE('',#745,#744,#67,.T.);
#615=EDGE_CURVE('',#780,#781,#909,.T.);
#616=EDGE_CURVE('',#781,#782,#910,.T.);
#617=EDGE_CURVE('',#783,#782,#911,.T.);
#618=EDGE_CURVE('',#780,#783,#912,.T.);
#619=EDGE_CURVE('',#784,#785,#913,.T.);
#620=EDGE_CURVE('',#784,#711,#914,.T.);
#621=EDGE_CURVE('',#786,#714,#915,.T.);
#622=EDGE_CURVE('',#787,#786,#916,.T.);
#623=EDGE_CURVE('',#787,#709,#917,.T.);
#624=EDGE_CURVE('',#785,#708,#918,.T.);
#625=EDGE_CURVE('',#755,#753,#68,.T.);
#626=EDGE_CURVE('',#751,#749,#69,.T.);
#627=EDGE_CURVE('',#742,#743,#70,.T.);
#628=EDGE_CURVE('',#738,#739,#71,.T.);
#629=EDGE_CURVE('',#669,#788,#919,.T.);
#630=EDGE_CURVE('',#704,#668,#920,.T.);
#631=EDGE_CURVE('',#701,#705,#921,.T.);
#632=EDGE_CURVE('',#696,#700,#922,.T.);
#633=EDGE_CURVE('',#789,#697,#923,.T.);
#634=EDGE_CURVE('',#778,#789,#924,.T.);
#635=EDGE_CURVE('',#777,#788,#925,.T.);
#636=EDGE_CURVE('',#671,#788,#926,.T.);
#637=EDGE_CURVE('',#776,#790,#927,.T.);
#638=EDGE_CURVE('',#790,#675,#928,.T.);
#639=EDGE_CURVE('',#674,#670,#929,.T.);
#640=EDGE_CURVE('',#676,#790,#930,.T.);
#641=EDGE_CURVE('',#779,#791,#931,.T.);
#642=EDGE_CURVE('',#791,#688,#932,.T.);
#643=EDGE_CURVE('',#687,#685,#933,.T.);
#644=EDGE_CURVE('',#684,#680,#934,.T.);
#645=EDGE_CURVE('',#679,#677,#935,.T.);
#646=EDGE_CURVE('',#694,#789,#936,.T.);
#647=EDGE_CURVE('',#691,#693,#937,.T.);
#648=EDGE_CURVE('',#791,#690,#938,.T.);
#649=EDGE_CURVE('',#773,#782,#939,.T.);
#650=EDGE_CURVE('',#775,#783,#940,.T.);
#651=EDGE_CURVE('',#774,#780,#941,.T.);
#652=EDGE_CURVE('',#772,#781,#942,.T.);
#653=EDGE_CURVE('',#792,#793,#943,.T.);
#654=EDGE_CURVE('',#792,#786,#944,.F.);
#655=EDGE_CURVE('',#793,#728,#945,.T.);
#656=EDGE_CURVE('',#784,#794,#946,.F.);
#657=EDGE_CURVE('',#794,#795,#947,.T.);
#658=EDGE_CURVE('',#795,#731,#948,.T.);
#659=EDGE_CURVE('',#795,#793,#949,.T.);
#660=EDGE_CURVE('',#796,#707,#950,.T.);
#661=EDGE_CURVE('',#796,#792,#951,.T.);
#662=EDGE_CURVE('',#794,#797,#952,.T.);
#663=EDGE_CURVE('',#797,#706,#953,.T.);
#664=EDGE_CURVE('',#787,#796,#954,.F.);
#665=EDGE_CURVE('',#797,#785,#955,.F.);
#666=VERTEX_POINT('',#1933);
#667=VERTEX_POINT('',#1934);
#668=VERTEX_POINT('',#1936);
#669=VERTEX_POINT('',#1938);
#670=VERTEX_POINT('',#1942);
#671=VERTEX_POINT('',#1944);
#672=VERTEX_POINT('',#1948);
#673=VERTEX_POINT('',#1949);
#674=VERTEX_POINT('',#1951);
#675=VERTEX_POINT('',#1953);
#676=VERTEX_POINT('',#1957);
#677=VERTEX_POINT('',#1958);
#678=VERTEX_POINT('',#1963);
#679=VERTEX_POINT('',#1964);
#680=VERTEX_POINT('',#1966);
#681=VERTEX_POINT('',#1968);
#682=VERTEX_POINT('',#1972);
#683=VERTEX_POINT('',#1973);
#684=VERTEX_POINT('',#1978);
#685=VERTEX_POINT('',#1979);
#686=VERTEX_POINT('',#1984);
#687=VERTEX_POINT('',#1985);
#688=VERTEX_POINT('',#1987);
#689=VERTEX_POINT('',#1989);
#690=VERTEX_POINT('',#1993);
#691=VERTEX_POINT('',#1994);
#692=VERTEX_POINT('',#1999);
#693=VERTEX_POINT('',#2000);
#694=VERTEX_POINT('',#2002);
#695=VERTEX_POINT('',#2004);
#696=VERTEX_POINT('',#2008);
#697=VERTEX_POINT('',#2010);
#698=VERTEX_POINT('',#2014);
#699=VERTEX_POINT('',#2015);
#700=VERTEX_POINT('',#2017);
#701=VERTEX_POINT('',#2019);
#702=VERTEX_POINT('',#2023);
#703=VERTEX_POINT('',#2025);
#704=VERTEX_POINT('',#2029);
#705=VERTEX_POINT('',#2031);
#706=VERTEX_POINT('',#2035);
#707=VERTEX_POINT('',#2036);
#708=VERTEX_POINT('',#2038);
#709=VERTEX_POINT('',#2040);
#710=VERTEX_POINT('',#2044);
#711=VERTEX_POINT('',#2045);
#712=VERTEX_POINT('',#2047);
#713=VERTEX_POINT('',#2049);
#714=VERTEX_POINT('',#2053);
#715=VERTEX_POINT('',#2054);
#716=VERTEX_POINT('',#2056);
#717=VERTEX_POINT('',#2058);
#718=VERTEX_POINT('',#2062);
#719=VERTEX_POINT('',#2063);
#720=VERTEX_POINT('',#2066);
#721=VERTEX_POINT('',#2068);
#722=VERTEX_POINT('',#2070);
#723=VERTEX_POINT('',#2071);
#724=VERTEX_POINT('',#2074);
#725=VERTEX_POINT('',#2075);
#726=VERTEX_POINT('',#2078);
#727=VERTEX_POINT('',#2079);
#728=VERTEX_POINT('',#2082);
#729=VERTEX_POINT('',#2084);
#730=VERTEX_POINT('',#2086);
#731=VERTEX_POINT('',#2089);
#732=VERTEX_POINT('',#2093);
#733=VERTEX_POINT('',#2094);
#734=VERTEX_POINT('',#2099);
#735=VERTEX_POINT('',#2100);
#736=VERTEX_POINT('',#2105);
#737=VERTEX_POINT('',#2106);
#738=VERTEX_POINT('',#2108);
#739=VERTEX_POINT('',#2110);
#740=VERTEX_POINT('',#2114);
#741=VERTEX_POINT('',#2115);
#742=VERTEX_POINT('',#2117);
#743=VERTEX_POINT('',#2119);
#744=VERTEX_POINT('',#2123);
#745=VERTEX_POINT('',#2125);
#746=VERTEX_POINT('',#2129);
#747=VERTEX_POINT('',#2131);
#748=VERTEX_POINT('',#2135);
#749=VERTEX_POINT('',#2136);
#750=VERTEX_POINT('',#2138);
#751=VERTEX_POINT('',#2140);
#752=VERTEX_POINT('',#2144);
#753=VERTEX_POINT('',#2145);
#754=VERTEX_POINT('',#2147);
#755=VERTEX_POINT('',#2149);
#756=VERTEX_POINT('',#2153);
#757=VERTEX_POINT('',#2155);
#758=VERTEX_POINT('',#2159);
#759=VERTEX_POINT('',#2161);
#760=VERTEX_POINT('',#2165);
#761=VERTEX_POINT('',#2167);
#762=VERTEX_POINT('',#2172);
#763=VERTEX_POINT('',#2176);
#764=VERTEX_POINT('',#2180);
#765=VERTEX_POINT('',#2184);
#766=VERTEX_POINT('',#2188);
#767=VERTEX_POINT('',#2191);
#768=VERTEX_POINT('',#2193);
#769=VERTEX_POINT('',#2196);
#770=VERTEX_POINT('',#2198);
#771=VERTEX_POINT('',#2203);
#772=VERTEX_POINT('',#2207);
#773=VERTEX_POINT('',#2208);
#774=VERTEX_POINT('',#2210);
#775=VERTEX_POINT('',#2212);
#776=VERTEX_POINT('',#2220);
#777=VERTEX_POINT('',#2221);
#778=VERTEX_POINT('',#2223);
#779=VERTEX_POINT('',#2225);
#780=VERTEX_POINT('',#2235);
#781=VERTEX_POINT('',#2236);
#782=VERTEX_POINT('',#2238);
#783=VERTEX_POINT('',#2240);
#784=VERTEX_POINT('',#2243);
#785=VERTEX_POINT('',#2244);
#786=VERTEX_POINT('',#2247);
#787=VERTEX_POINT('',#2249);
#788=VERTEX_POINT('',#2266);
#789=VERTEX_POINT('',#2271);
#790=VERTEX_POINT('',#2277);
#791=VERTEX_POINT('',#2283);
#792=VERTEX_POINT('',#2301);
#793=VERTEX_POINT('',#2302);
#794=VERTEX_POINT('',#2307);
#795=VERTEX_POINT('',#2309);
#796=VERTEX_POINT('',#2315);
#797=VERTEX_POINT('',#2318);
#798=LINE('',#1932,#956);
#799=LINE('',#1935,#957);
#800=LINE('',#1937,#958);
#801=LINE('',#1939,#959);
#802=LINE('',#1941,#960);
#803=LINE('',#1943,#961);
#804=LINE('',#1945,#962);
#805=LINE('',#1947,#963);
#806=LINE('',#1950,#964);
#807=LINE('',#1952,#965);
#808=LINE('',#1954,#966);
#809=LINE('',#1956,#967);
#810=LINE('',#1959,#968);
#811=LINE('',#1960,#969);
#812=LINE('',#1962,#970);
#813=LINE('',#1965,#971);
#814=LINE('',#1967,#972);
#815=LINE('',#1969,#973);
#816=LINE('',#1971,#974);
#817=LINE('',#1974,#975);
#818=LINE('',#1975,#976);
#819=LINE('',#1977,#977);
#820=LINE('',#1980,#978);
#821=LINE('',#1981,#979);
#822=LINE('',#1983,#980);
#823=LINE('',#1986,#981);
#824=LINE('',#1988,#982);
#825=LINE('',#1990,#983);
#826=LINE('',#1992,#984);
#827=LINE('',#1995,#985);
#828=LINE('',#1996,#986);
#829=LINE('',#1998,#987);
#830=LINE('',#2001,#988);
#831=LINE('',#2003,#989);
#832=LINE('',#2005,#990);
#833=LINE('',#2007,#991);
#834=LINE('',#2009,#992);
#835=LINE('',#2011,#993);
#836=LINE('',#2013,#994);
#837=LINE('',#2016,#995);
#838=LINE('',#2018,#996);
#839=LINE('',#2020,#997);
#840=LINE('',#2022,#998);
#841=LINE('',#2024,#999);
#842=LINE('',#2026,#1000);
#843=LINE('',#2028,#1001);
#844=LINE('',#2030,#1002);
#845=LINE('',#2032,#1003);
#846=LINE('',#2034,#1004);
#847=LINE('',#2037,#1005);
#848=LINE('',#2039,#1006);
#849=LINE('',#2041,#1007);
#850=LINE('',#2043,#1008);
#851=LINE('',#2046,#1009);
#852=LINE('',#2048,#1010);
#853=LINE('',#2050,#1011);
#854=LINE('',#2052,#1012);
#855=LINE('',#2055,#1013);
#856=LINE('',#2057,#1014);
#857=LINE('',#2059,#1015);
#858=LINE('',#2081,#1016);
#859=LINE('',#2083,#1017);
#860=LINE('',#2085,#1018);
#861=LINE('',#2087,#1019);
#862=LINE('',#2088,#1020);
#863=LINE('',#2090,#1021);
#864=LINE('',#2095,#1022);
#865=LINE('',#2096,#1023);
#866=LINE('',#2101,#1024);
#867=LINE('',#2102,#1025);
#868=LINE('',#2107,#1026);
#869=LINE('',#2111,#1027);
#870=LINE('',#2116,#1028);
#871=LINE('',#2120,#1029);
#872=LINE('',#2122,#1030);
#873=LINE('',#2126,#1031);
#874=LINE('',#2128,#1032);
#875=LINE('',#2132,#1033);
#876=LINE('',#2134,#1034);
#877=LINE('',#2139,#1035);
#878=LINE('',#2143,#1036);
#879=LINE('',#2148,#1037);
#880=LINE('',#2152,#1038);
#881=LINE('',#2154,#1039);
#882=LINE('',#2156,#1040);
#883=LINE('',#2158,#1041);
#884=LINE('',#2160,#1042);
#885=LINE('',#2162,#1043);
#886=LINE('',#2164,#1044);
#887=LINE('',#2166,#1045);
#888=LINE('',#2168,#1046);
#889=LINE('',#2170,#1047);
#890=LINE('',#2171,#1048);
#891=LINE('',#2173,#1049);
#892=LINE('',#2175,#1050);
#893=LINE('',#2177,#1051);
#894=LINE('',#2179,#1052);
#895=LINE('',#2181,#1053);
#896=LINE('',#2183,#1054);
#897=LINE('',#2185,#1055);
#898=LINE('',#2200,#1056);
#899=LINE('',#2205,#1057);
#900=LINE('',#2206,#1058);
#901=LINE('',#2209,#1059);
#902=LINE('',#2211,#1060);
#903=LINE('',#2213,#1061);
#904=LINE('',#2219,#1062);
#905=LINE('',#2222,#1063);
#906=LINE('',#2224,#1064);
#907=LINE('',#2226,#1065);
#908=LINE('',#2227,#1066);
#909=LINE('',#2234,#1067);
#910=LINE('',#2237,#1068);
#911=LINE('',#2239,#1069);
#912=LINE('',#2241,#1070);
#913=LINE('',#2242,#1071);
#914=LINE('',#2245,#1072);
#915=LINE('',#2246,#1073);
#916=LINE('',#2248,#1074);
#917=LINE('',#2250,#1075);
#918=LINE('',#2251,#1076);
#919=LINE('',#2265,#1077);
#920=LINE('',#2267,#1078);
#921=LINE('',#2268,#1079);
#922=LINE('',#2269,#1080);
#923=LINE('',#2270,#1081);
#924=LINE('',#2272,#1082);
#925=LINE('',#2273,#1083);
#926=LINE('',#2275,#1084);
#927=LINE('',#2276,#1085);
#928=LINE('',#2278,#1086);
#929=LINE('',#2279,#1087);
#930=LINE('',#2281,#1088);
#931=LINE('',#2282,#1089);
#932=LINE('',#2284,#1090);
#933=LINE('',#2285,#1091);
#934=LINE('',#2286,#1092);
#935=LINE('',#2287,#1093);
#936=LINE('',#2289,#1094);
#937=LINE('',#2290,#1095);
#938=LINE('',#2291,#1096);
#939=LINE('',#2293,#1097);
#940=LINE('',#2294,#1098);
#941=LINE('',#2296,#1099);
#942=LINE('',#2298,#1100);
#943=LINE('',#2300,#1101);
#944=LINE('',#2303,#1102);
#945=LINE('',#2304,#1103);
#946=LINE('',#2306,#1104);
#947=LINE('',#2308,#1105);
#948=LINE('',#2310,#1106);
#949=LINE('',#2312,#1107);
#950=LINE('',#2314,#1108);
#951=LINE('',#2316,#1109);
#952=LINE('',#2317,#1110);
#953=LINE('',#2319,#1111);
#954=LINE('',#2321,#1112);
#955=LINE('',#2323,#1113);
#956=VECTOR('',#1560,1.);
#957=VECTOR('',#1561,1.);
#958=VECTOR('',#1562,1.);
#959=VECTOR('',#1563,1.);
#960=VECTOR('',#1566,1.);
#961=VECTOR('',#1567,1.);
#962=VECTOR('',#1568,1.);
#963=VECTOR('',#1571,1.);
#964=VECTOR('',#1572,1.);
#965=VECTOR('',#1573,1.);
#966=VECTOR('',#1574,1.);
#967=VECTOR('',#1577,1.);
#968=VECTOR('',#1578,1.);
#969=VECTOR('',#1579,1.);
#970=VECTOR('',#1582,1.);
#971=VECTOR('',#1583,1.);
#972=VECTOR('',#1584,1.);
#973=VECTOR('',#1585,1.);
#974=VECTOR('',#1588,1.);
#975=VECTOR('',#1589,1.);
#976=VECTOR('',#1590,1.);
#977=VECTOR('',#1593,1.);
#978=VECTOR('',#1594,1.);
#979=VECTOR('',#1595,1.);
#980=VECTOR('',#1598,1.);
#981=VECTOR('',#1599,1.);
#982=VECTOR('',#1600,1.);
#983=VECTOR('',#1601,1.);
#984=VECTOR('',#1604,1.);
#985=VECTOR('',#1605,1.);
#986=VECTOR('',#1606,1.);
#987=VECTOR('',#1609,1.);
#988=VECTOR('',#1610,1.);
#989=VECTOR('',#1611,1.);
#990=VECTOR('',#1612,1.);
#991=VECTOR('',#1615,1.);
#992=VECTOR('',#1616,1.);
#993=VECTOR('',#1617,1.);
#994=VECTOR('',#1620,1.);
#995=VECTOR('',#1621,1.);
#996=VECTOR('',#1622,1.);
#997=VECTOR('',#1623,1.);
#998=VECTOR('',#1626,1.);
#999=VECTOR('',#1627,1.);
#1000=VECTOR('',#1628,1.);
#1001=VECTOR('',#1631,1.);
#1002=VECTOR('',#1632,1.);
#1003=VECTOR('',#1633,1.);
#1004=VECTOR('',#1636,1.);
#1005=VECTOR('',#1637,1.);
#1006=VECTOR('',#1638,1.);
#1007=VECTOR('',#1639,1.);
#1008=VECTOR('',#1642,1.);
#1009=VECTOR('',#1643,1.);
#1010=VECTOR('',#1644,1.);
#1011=VECTOR('',#1645,1.);
#1012=VECTOR('',#1648,1.);
#1013=VECTOR('',#1649,1.);
#1014=VECTOR('',#1650,1.);
#1015=VECTOR('',#1651,1.);
#1016=VECTOR('',#1674,1.);
#1017=VECTOR('',#1675,1.);
#1018=VECTOR('',#1676,1.);
#1019=VECTOR('',#1677,1.);
#1020=VECTOR('',#1678,1.);
#1021=VECTOR('',#1679,1.);
#1022=VECTOR('',#1684,1.);
#1023=VECTOR('',#1685,1.);
#1024=VECTOR('',#1690,1.);
#1025=VECTOR('',#1691,1.);
#1026=VECTOR('',#1696,1.);
#1027=VECTOR('',#1699,1.);
#1028=VECTOR('',#1704,1.);
#1029=VECTOR('',#1707,1.);
#1030=VECTOR('',#1710,1.);
#1031=VECTOR('',#1713,1.);
#1032=VECTOR('',#1716,1.);
#1033=VECTOR('',#1719,1.);
#1034=VECTOR('',#1722,1.);
#1035=VECTOR('',#1725,1.);
#1036=VECTOR('',#1730,1.);
#1037=VECTOR('',#1733,1.);
#1038=VECTOR('',#1738,1.);
#1039=VECTOR('',#1739,1.);
#1040=VECTOR('',#1740,1.);
#1041=VECTOR('',#1743,1.);
#1042=VECTOR('',#1744,1.);
#1043=VECTOR('',#1745,1.);
#1044=VECTOR('',#1748,1.);
#1045=VECTOR('',#1749,1.);
#1046=VECTOR('',#1750,1.);
#1047=VECTOR('',#1753,1.);
#1048=VECTOR('',#1754,1.);
#1049=VECTOR('',#1755,1.);
#1050=VECTOR('',#1758,1.);
#1051=VECTOR('',#1759,1.);
#1052=VECTOR('',#1762,1.);
#1053=VECTOR('',#1763,1.);
#1054=VECTOR('',#1766,1.);
#1055=VECTOR('',#1767,1.);
#1056=VECTOR('',#1786,1.);
#1057=VECTOR('',#1793,1.);
#1058=VECTOR('',#1794,1.);
#1059=VECTOR('',#1795,1.);
#1060=VECTOR('',#1796,1.);
#1061=VECTOR('',#1797,1.);
#1062=VECTOR('',#1808,1.);
#1063=VECTOR('',#1809,1.);
#1064=VECTOR('',#1810,1.);
#1065=VECTOR('',#1811,1.);
#1066=VECTOR('',#1812,1.);
#1067=VECTOR('',#1825,1.);
#1068=VECTOR('',#1826,1.);
#1069=VECTOR('',#1827,1.);
#1070=VECTOR('',#1828,1.);
#1071=VECTOR('',#1829,1.);
#1072=VECTOR('',#1830,1.);
#1073=VECTOR('',#1831,1.);
#1074=VECTOR('',#1832,1.);
#1075=VECTOR('',#1833,1.);
#1076=VECTOR('',#1834,1.);
#1077=VECTOR('',#1861,1.);
#1078=VECTOR('',#1862,1.);
#1079=VECTOR('',#1863,1.);
#1080=VECTOR('',#1864,1.);
#1081=VECTOR('',#1865,1.);
#1082=VECTOR('',#1866,1.);
#1083=VECTOR('',#1867,1.);
#1084=VECTOR('',#1870,1.);
#1085=VECTOR('',#1871,1.);
#1086=VECTOR('',#1872,1.);
#1087=VECTOR('',#1873,1.);
#1088=VECTOR('',#1876,1.);
#1089=VECTOR('',#1877,1.);
#1090=VECTOR('',#1878,1.);
#1091=VECTOR('',#1879,1.);
#1092=VECTOR('',#1880,1.);
#1093=VECTOR('',#1881,1.);
#1094=VECTOR('',#1884,1.);
#1095=VECTOR('',#1885,1.);
#1096=VECTOR('',#1886,1.);
#1097=VECTOR('',#1889,1.);
#1098=VECTOR('',#1890,1.);
#1099=VECTOR('',#1893,1.);
#1100=VECTOR('',#1896,1.);
#1101=VECTOR('',#1899,1.);
#1102=VECTOR('',#1900,1.);
#1103=VECTOR('',#1901,1.);
#1104=VECTOR('',#1904,1.);
#1105=VECTOR('',#1905,1.);
#1106=VECTOR('',#1906,1.);
#1107=VECTOR('',#1909,1.);
#1108=VECTOR('',#1912,1.);
#1109=VECTOR('',#1913,1.);
#1110=VECTOR('',#1914,1.);
#1111=VECTOR('',#1915,1.);
#1112=VECTOR('',#1918,1.);
#1113=VECTOR('',#1921,1.);
#1114=EDGE_LOOP('',(#72,#73,#74,#75));
#1115=EDGE_LOOP('',(#76,#77,#78,#79));
#1116=EDGE_LOOP('',(#80,#81,#82,#83));
#1117=EDGE_LOOP('',(#84,#85,#86,#87));
#1118=EDGE_LOOP('',(#88,#89,#90,#91));
#1119=EDGE_LOOP('',(#92,#93,#94,#95));
#1120=EDGE_LOOP('',(#96,#97,#98,#99));
#1121=EDGE_LOOP('',(#100,#101,#102,#103));
#1122=EDGE_LOOP('',(#104,#105,#106,#107));
#1123=EDGE_LOOP('',(#108,#109,#110,#111));
#1124=EDGE_LOOP('',(#112,#113,#114,#115));
#1125=EDGE_LOOP('',(#116,#117,#118,#119));
#1126=EDGE_LOOP('',(#120,#121,#122,#123));
#1127=EDGE_LOOP('',(#124,#125,#126,#127));
#1128=EDGE_LOOP('',(#128,#129,#130,#131));
#1129=EDGE_LOOP('',(#132,#133,#134,#135));
#1130=EDGE_LOOP('',(#136,#137,#138,#139));
#1131=EDGE_LOOP('',(#140,#141));
#1132=EDGE_LOOP('',(#142));
#1133=EDGE_LOOP('',(#143));
#1134=EDGE_LOOP('',(#144,#145));
#1135=EDGE_LOOP('',(#146,#147));
#1136=EDGE_LOOP('',(#148,#149));
#1137=EDGE_LOOP('',(#150,#151,#152,#153,#154,#155,#156,#157));
#1138=EDGE_LOOP('',(#158,#159,#160,#161));
#1139=EDGE_LOOP('',(#162,#163,#164,#165));
#1140=EDGE_LOOP('',(#166,#167,#168,#169));
#1141=EDGE_LOOP('',(#170,#171,#172,#173));
#1142=EDGE_LOOP('',(#174,#175,#176,#177));
#1143=EDGE_LOOP('',(#178,#179,#180,#181));
#1144=EDGE_LOOP('',(#182,#183,#184,#185));
#1145=EDGE_LOOP('',(#186,#187,#188,#189));
#1146=EDGE_LOOP('',(#190,#191,#192,#193));
#1147=EDGE_LOOP('',(#194,#195,#196,#197));
#1148=EDGE_LOOP('',(#198,#199,#200,#201));
#1149=EDGE_LOOP('',(#202,#203,#204,#205));
#1150=EDGE_LOOP('',(#206,#207,#208,#209));
#1151=EDGE_LOOP('',(#210,#211,#212,#213));
#1152=EDGE_LOOP('',(#214,#215,#216,#217));
#1153=EDGE_LOOP('',(#218));
#1154=EDGE_LOOP('',(#219));
#1155=EDGE_LOOP('',(#220));
#1156=EDGE_LOOP('',(#221));
#1157=EDGE_LOOP('',(#222));
#1158=EDGE_LOOP('',(#223));
#1159=EDGE_LOOP('',(#224,#225,#226,#227));
#1160=EDGE_LOOP('',(#228));
#1161=EDGE_LOOP('',(#229));
#1162=EDGE_LOOP('',(#230,#231,#232,#233));
#1163=EDGE_LOOP('',(#234,#235,#236,#237));
#1164=EDGE_LOOP('',(#238,#239));
#1165=EDGE_LOOP('',(#240,#241));
#1166=EDGE_LOOP('',(#242,#243));
#1167=EDGE_LOOP('',(#244,#245));
#1168=EDGE_LOOP('',(#246));
#1169=EDGE_LOOP('',(#247));
#1170=EDGE_LOOP('',(#248,#249,#250,#251));
#1171=EDGE_LOOP('',(#252,#253,#254,#255));
#1172=EDGE_LOOP('',(#256,#257));
#1173=EDGE_LOOP('',(#258));
#1174=EDGE_LOOP('',(#259));
#1175=EDGE_LOOP('',(#260,#261));
#1176=EDGE_LOOP('',(#262,#263));
#1177=EDGE_LOOP('',(#264,#265));
#1178=EDGE_LOOP('',(#266,#267,#268,#269));
#1179=EDGE_LOOP('',(#270,#271,#272,#273));
#1180=EDGE_LOOP('',(#274,#275,#276,#277,#278,#279,#280,#281,#282,#283,#284,
#285));
#1181=EDGE_LOOP('',(#286,#287));
#1182=EDGE_LOOP('',(#288,#289));
#1183=EDGE_LOOP('',(#290,#291));
#1184=EDGE_LOOP('',(#292,#293));
#1185=EDGE_LOOP('',(#294));
#1186=EDGE_LOOP('',(#295));
#1187=EDGE_LOOP('',(#296,#297,#298,#299));
#1188=EDGE_LOOP('',(#300,#301,#302,#303));
#1189=EDGE_LOOP('',(#304,#305,#306,#307));
#1190=EDGE_LOOP('',(#308,#309,#310,#311));
#1191=EDGE_LOOP('',(#312,#313,#314,#315));
#1192=EDGE_LOOP('',(#316,#317,#318,#319));
#1193=EDGE_LOOP('',(#320,#321,#322,#323));
#1194=EDGE_LOOP('',(#324,#325,#326,#327));
#1195=EDGE_LOOP('',(#328,#329,#330,#331,#332,#333,#334,#335,#336,#337,#338,
#339));
#1196=EDGE_LOOP('',(#340,#341,#342,#343,#344,#345,#346,#347));
#1197=EDGE_LOOP('',(#348,#349,#350,#351,#352,#353,#354,#355,#356,#357,#358,
#359));
#1198=EDGE_LOOP('',(#360,#361,#362,#363,#364,#365,#366,#367));
#1199=EDGE_LOOP('',(#368,#369,#370,#371));
#1200=EDGE_LOOP('',(#372,#373,#374,#375));
#1201=EDGE_LOOP('',(#376,#377,#378,#379));
#1202=EDGE_LOOP('',(#380,#381,#382,#383,#384,#385));
#1203=EDGE_LOOP('',(#386,#387,#388,#389,#390,#391));
#1204=EDGE_LOOP('',(#392,#393,#394,#395));
#1205=EDGE_LOOP('',(#396,#397,#398,#399));
#1206=EDGE_LOOP('',(#400,#401,#402,#403));
#1207=EDGE_LOOP('',(#404,#405,#406,#407));
#1208=EDGE_LOOP('',(#408,#409,#410,#411));
#1209=EDGE_LOOP('',(#412,#413,#414,#415));
#1210=EDGE_LOOP('',(#416,#417,#418,#419));
#1211=EDGE_LOOP('',(#420,#421,#422,#423,#424,#425,#426,#427));
#1212=EDGE_LOOP('',(#428,#429,#430,#431));
#1213=EDGE_LOOP('',(#432,#433,#434,#435));
#1214=EDGE_LOOP('',(#436,#437,#438,#439));
#1215=EDGE_LOOP('',(#440,#441,#442,#443));
#1216=EDGE_LOOP('',(#444,#445,#446,#447));
#1217=EDGE_LOOP('',(#448,#449,#450,#451,#452,#453,#454,#455,#456,#457,#458,
#459,#460,#461,#462,#463,#464,#465,#466,#467));
#1218=FACE_BOUND('',#1114,.T.);
#1219=FACE_BOUND('',#1115,.T.);
#1220=FACE_BOUND('',#1116,.T.);
#1221=FACE_BOUND('',#1117,.T.);
#1222=FACE_BOUND('',#1118,.T.);
#1223=FACE_BOUND('',#1119,.T.);
#1224=FACE_BOUND('',#1120,.T.);
#1225=FACE_BOUND('',#1121,.T.);
#1226=FACE_BOUND('',#1122,.T.);
#1227=FACE_BOUND('',#1123,.T.);
#1228=FACE_BOUND('',#1124,.T.);
#1229=FACE_BOUND('',#1125,.T.);
#1230=FACE_BOUND('',#1126,.T.);
#1231=FACE_BOUND('',#1127,.T.);
#1232=FACE_BOUND('',#1128,.T.);
#1233=FACE_BOUND('',#1129,.T.);
#1234=FACE_BOUND('',#1130,.T.);
#1235=FACE_BOUND('',#1131,.T.);
#1236=FACE_BOUND('',#1132,.T.);
#1237=FACE_BOUND('',#1133,.T.);
#1238=FACE_BOUND('',#1134,.T.);
#1239=FACE_BOUND('',#1135,.T.);
#1240=FACE_BOUND('',#1136,.T.);
#1241=FACE_BOUND('',#1137,.T.);
#1242=FACE_BOUND('',#1138,.T.);
#1243=FACE_BOUND('',#1139,.T.);
#1244=FACE_BOUND('',#1140,.T.);
#1245=FACE_BOUND('',#1141,.T.);
#1246=FACE_BOUND('',#1142,.T.);
#1247=FACE_BOUND('',#1143,.T.);
#1248=FACE_BOUND('',#1144,.T.);
#1249=FACE_BOUND('',#1145,.T.);
#1250=FACE_BOUND('',#1146,.T.);
#1251=FACE_BOUND('',#1147,.T.);
#1252=FACE_BOUND('',#1148,.T.);
#1253=FACE_BOUND('',#1149,.T.);
#1254=FACE_BOUND('',#1150,.T.);
#1255=FACE_BOUND('',#1151,.T.);
#1256=FACE_BOUND('',#1152,.T.);
#1257=FACE_BOUND('',#1153,.T.);
#1258=FACE_BOUND('',#1154,.T.);
#1259=FACE_BOUND('',#1155,.T.);
#1260=FACE_BOUND('',#1156,.T.);
#1261=FACE_BOUND('',#1157,.T.);
#1262=FACE_BOUND('',#1158,.T.);
#1263=FACE_BOUND('',#1159,.T.);
#1264=FACE_BOUND('',#1160,.T.);
#1265=FACE_BOUND('',#1161,.T.);
#1266=FACE_BOUND('',#1162,.T.);
#1267=FACE_BOUND('',#1163,.T.);
#1268=FACE_BOUND('',#1164,.T.);
#1269=FACE_BOUND('',#1165,.T.);
#1270=FACE_BOUND('',#1166,.T.);
#1271=FACE_BOUND('',#1167,.T.);
#1272=FACE_BOUND('',#1168,.T.);
#1273=FACE_BOUND('',#1169,.T.);
#1274=FACE_BOUND('',#1170,.T.);
#1275=FACE_BOUND('',#1171,.T.);
#1276=FACE_BOUND('',#1172,.T.);
#1277=FACE_BOUND('',#1173,.T.);
#1278=FACE_BOUND('',#1174,.T.);
#1279=FACE_BOUND('',#1175,.T.);
#1280=FACE_BOUND('',#1176,.T.);
#1281=FACE_BOUND('',#1177,.T.);
#1282=FACE_BOUND('',#1178,.T.);
#1283=FACE_BOUND('',#1179,.T.);
#1284=FACE_BOUND('',#1180,.T.);
#1285=FACE_BOUND('',#1181,.T.);
#1286=FACE_BOUND('',#1182,.T.);
#1287=FACE_BOUND('',#1183,.T.);
#1288=FACE_BOUND('',#1184,.T.);
#1289=FACE_BOUND('',#1185,.T.);
#1290=FACE_BOUND('',#1186,.T.);
#1291=FACE_BOUND('',#1187,.T.);
#1292=FACE_BOUND('',#1188,.T.);
#1293=FACE_BOUND('',#1189,.T.);
#1294=FACE_BOUND('',#1190,.T.);
#1295=FACE_BOUND('',#1191,.T.);
#1296=FACE_BOUND('',#1192,.T.);
#1297=FACE_BOUND('',#1193,.T.);
#1298=FACE_BOUND('',#1194,.T.);
#1299=FACE_BOUND('',#1195,.T.);
#1300=FACE_BOUND('',#1196,.T.);
#1301=FACE_BOUND('',#1197,.T.);
#1302=FACE_BOUND('',#1198,.T.);
#1303=FACE_BOUND('',#1199,.T.);
#1304=FACE_BOUND('',#1200,.T.);
#1305=FACE_BOUND('',#1201,.T.);
#1306=FACE_BOUND('',#1202,.T.);
#1307=FACE_BOUND('',#1203,.T.);
#1308=FACE_BOUND('',#1204,.T.);
#1309=FACE_BOUND('',#1205,.T.);
#1310=FACE_BOUND('',#1206,.T.);
#1311=FACE_BOUND('',#1207,.T.);
#1312=FACE_BOUND('',#1208,.T.);
#1313=FACE_BOUND('',#1209,.T.);
#1314=FACE_BOUND('',#1210,.T.);
#1315=FACE_BOUND('',#1211,.T.);
#1316=FACE_BOUND('',#1212,.T.);
#1317=FACE_BOUND('',#1213,.T.);
#1318=FACE_BOUND('',#1214,.T.);
#1319=FACE_BOUND('',#1215,.T.);
#1320=FACE_BOUND('',#1216,.T.);
#1321=FACE_BOUND('',#1217,.T.);
#1322=PLANE('',#1449);
#1323=PLANE('',#1450);
#1324=PLANE('',#1451);
#1325=PLANE('',#1452);
#1326=PLANE('',#1453);
#1327=PLANE('',#1454);
#1328=PLANE('',#1455);
#1329=PLANE('',#1456);
#1330=PLANE('',#1457);
#1331=PLANE('',#1458);
#1332=PLANE('',#1459);
#1333=PLANE('',#1460);
#1334=PLANE('',#1461);
#1335=PLANE('',#1462);
#1336=PLANE('',#1463);
#1337=PLANE('',#1464);
#1338=PLANE('',#1465);
#1339=PLANE('',#1466);
#1340=PLANE('',#1497);
#1341=PLANE('',#1498);
#1342=PLANE('',#1499);
#1343=PLANE('',#1500);
#1344=PLANE('',#1501);
#1345=PLANE('',#1502);
#1346=PLANE('',#1503);
#1347=PLANE('',#1512);
#1348=PLANE('',#1515);
#1349=PLANE('',#1520);
#1350=PLANE('',#1525);
#1351=PLANE('',#1526);
#1352=PLANE('',#1539);
#1353=PLANE('',#1540);
#1354=PLANE('',#1541);
#1355=PLANE('',#1542);
#1356=PLANE('',#1543);
#1357=PLANE('',#1544);
#1358=PLANE('',#1545);
#1359=PLANE('',#1546);
#1360=PLANE('',#1547);
#1361=PLANE('',#1548);
#1362=PLANE('',#1549);
#1363=PLANE('',#1550);
#1364=PLANE('',#1551);
#1365=PLANE('',#1552);
#1366=PLANE('',#1553);
#1367=PLANE('',#1554);
#1368=PLANE('',#1555);
#1369=ADVANCED_FACE('',(#1218),#1322,.T.);
#1370=ADVANCED_FACE('',(#1219),#1323,.F.);
#1371=ADVANCED_FACE('',(#1220),#1324,.T.);
#1372=ADVANCED_FACE('',(#1221),#1325,.T.);
#1373=ADVANCED_FACE('',(#1222),#1326,.F.);
#1374=ADVANCED_FACE('',(#1223),#1327,.T.);
#1375=ADVANCED_FACE('',(#1224),#1328,.T.);
#1376=ADVANCED_FACE('',(#1225),#1329,.F.);
#1377=ADVANCED_FACE('',(#1226),#1330,.T.);
#1378=ADVANCED_FACE('',(#1227),#1331,.F.);
#1379=ADVANCED_FACE('',(#1228),#1332,.F.);
#1380=ADVANCED_FACE('',(#1229),#1333,.T.);
#1381=ADVANCED_FACE('',(#1230),#1334,.F.);
#1382=ADVANCED_FACE('',(#1231),#1335,.F.);
#1383=ADVANCED_FACE('',(#1232),#1336,.F.);
#1384=ADVANCED_FACE('',(#1233),#1337,.T.);
#1385=ADVANCED_FACE('',(#1234),#1338,.T.);
#1386=ADVANCED_FACE('',(#1235,#1236,#1237,#1238,#1239,#1240,#1241),#1339,
 .F.);
#1387=ADVANCED_FACE('',(#1242),#12,.F.);
#1388=ADVANCED_FACE('',(#1243),#13,.F.);
#1389=ADVANCED_FACE('',(#1244),#14,.F.);
#1390=ADVANCED_FACE('',(#1245),#15,.F.);
#1391=ADVANCED_FACE('',(#1246),#16,.F.);
#1392=ADVANCED_FACE('',(#1247),#17,.F.);
#1393=ADVANCED_FACE('',(#1248),#18,.F.);
#1394=ADVANCED_FACE('',(#1249),#19,.F.);
#1395=ADVANCED_FACE('',(#1250),#1340,.T.);
#1396=ADVANCED_FACE('',(#1251),#1341,.T.);
#1397=ADVANCED_FACE('',(#1252),#1342,.T.);
#1398=ADVANCED_FACE('',(#1253),#1343,.F.);
#1399=ADVANCED_FACE('',(#1254),#1344,.T.);
#1400=ADVANCED_FACE('',(#1255),#1345,.F.);
#1401=ADVANCED_FACE('',(#1256),#1346,.F.);
#1402=ADVANCED_FACE('',(#1257,#1258),#20,.F.);
#1403=ADVANCED_FACE('',(#1259,#1260),#21,.F.);
#1404=ADVANCED_FACE('',(#1261,#1262),#22,.F.);
#1405=ADVANCED_FACE('',(#1263),#1347,.T.);
#1406=ADVANCED_FACE('',(#1264,#1265),#23,.F.);
#1407=ADVANCED_FACE('',(#1266,#1267,#1268,#1269,#1270,#1271,#1272,#1273),
#1348,.T.);
#1408=ADVANCED_FACE('',(#1274,#1275,#1276,#1277,#1278,#1279,#1280,#1281),
#1349,.T.);
#1409=ADVANCED_FACE('',(#1282),#1350,.F.);
#1410=ADVANCED_FACE('',(#1283,#1284,#1285,#1286,#1287,#1288,#1289,#1290),
#1351,.F.);
#1411=ADVANCED_FACE('',(#1291),#24,.F.);
#1412=ADVANCED_FACE('',(#1292),#25,.F.);
#1413=ADVANCED_FACE('',(#1293),#26,.F.);
#1414=ADVANCED_FACE('',(#1294),#27,.F.);
#1415=ADVANCED_FACE('',(#1295),#28,.F.);
#1416=ADVANCED_FACE('',(#1296),#29,.F.);
#1417=ADVANCED_FACE('',(#1297),#30,.F.);
#1418=ADVANCED_FACE('',(#1298),#31,.F.);
#1419=ADVANCED_FACE('',(#1299),#1352,.F.);
#1420=ADVANCED_FACE('',(#1300),#1353,.T.);
#1421=ADVANCED_FACE('',(#1301),#1354,.T.);
#1422=ADVANCED_FACE('',(#1302),#1355,.F.);
#1423=ADVANCED_FACE('',(#1303),#1356,.T.);
#1424=ADVANCED_FACE('',(#1304),#1357,.T.);
#1425=ADVANCED_FACE('',(#1305),#1358,.F.);
#1426=ADVANCED_FACE('',(#1306),#1359,.F.);
#1427=ADVANCED_FACE('',(#1307),#1360,.T.);
#1428=ADVANCED_FACE('',(#1308),#1361,.T.);
#1429=ADVANCED_FACE('',(#1309,#1310,#1311,#1312,#1313,#1314,#1315),#1362,
 .F.);
#1430=ADVANCED_FACE('',(#1316),#1363,.T.);
#1431=ADVANCED_FACE('',(#1317),#1364,.F.);
#1432=ADVANCED_FACE('',(#1318),#1365,.F.);
#1433=ADVANCED_FACE('',(#1319),#1366,.F.);
#1434=ADVANCED_FACE('',(#1320),#1367,.F.);
#1435=ADVANCED_FACE('',(#1321),#1368,.T.);
#1436=CLOSED_SHELL('',(#1369,#1370,#1371,#1372,#1373,#1374,#1375,#1376,
#1377,#1378,#1379,#1380,#1381,#1382,#1383,#1384,#1385,#1386,#1387,#1388,
#1389,#1390,#1391,#1392,#1393,#1394,#1395,#1396,#1397,#1398,#1399,#1400,
#1401,#1402,#1403,#1404,#1405,#1406,#1407,#1408,#1409,#1410,#1411,#1412,
#1413,#1414,#1415,#1416,#1417,#1418,#1419,#1420,#1421,#1422,#1423,#1424,
#1425,#1426,#1427,#1428,#1429,#1430,#1431,#1432,#1433,#1434,#1435));
#1437=STYLED_ITEM('',(#1438),#1445);
#1438=PRESENTATION_STYLE_ASSIGNMENT((#1439));
#1439=SURFACE_STYLE_USAGE(.BOTH.,#1440);
#1440=SURFACE_SIDE_STYLE('',(#1441));
#1441=SURFACE_STYLE_FILL_AREA(#1442);
#1442=FILL_AREA_STYLE('',(#1443));
#1443=FILL_AREA_STYLE_COLOUR('',#1444);
#1444=COLOUR_RGB('',0.768627450980392,0.886274509803922,0.952941176470588);
#1445=MANIFOLD_SOLID_BREP('MP3_COVER_Top',#1436);
#1446=SHAPE_DEFINITION_REPRESENTATION(#2334,#1447);
#1447=SHAPE_REPRESENTATION('MP3_COVER_Top',(#1448),#2329);
#1448=AXIS2_PLACEMENT_3D('',#1930,#1556,#1557);
#1449=AXIS2_PLACEMENT_3D('',#1931,#1558,#1559);
#1450=AXIS2_PLACEMENT_3D('',#1940,#1564,#1565);
#1451=AXIS2_PLACEMENT_3D('',#1946,#1569,#1570);
#1452=AXIS2_PLACEMENT_3D('',#1955,#1575,#1576);
#1453=AXIS2_PLACEMENT_3D('',#1961,#1580,#1581);
#1454=AXIS2_PLACEMENT_3D('',#1970,#1586,#1587);
#1455=AXIS2_PLACEMENT_3D('',#1976,#1591,#1592);
#1456=AXIS2_PLACEMENT_3D('',#1982,#1596,#1597);
#1457=AXIS2_PLACEMENT_3D('',#1991,#1602,#1603);
#1458=AXIS2_PLACEMENT_3D('',#1997,#1607,#1608);
#1459=AXIS2_PLACEMENT_3D('',#2006,#1613,#1614);
#1460=AXIS2_PLACEMENT_3D('',#2012,#1618,#1619);
#1461=AXIS2_PLACEMENT_3D('',#2021,#1624,#1625);
#1462=AXIS2_PLACEMENT_3D('',#2027,#1629,#1630);
#1463=AXIS2_PLACEMENT_3D('',#2033,#1634,#1635);
#1464=AXIS2_PLACEMENT_3D('',#2042,#1640,#1641);
#1465=AXIS2_PLACEMENT_3D('',#2051,#1646,#1647);
#1466=AXIS2_PLACEMENT_3D('',#2060,#1652,#1653);
#1467=AXIS2_PLACEMENT_3D('',#2061,#1654,#1655);
#1468=AXIS2_PLACEMENT_3D('',#2064,#1656,#1657);
#1469=AXIS2_PLACEMENT_3D('',#2065,#1658,#1659);
#1470=AXIS2_PLACEMENT_3D('',#2067,#1660,#1661);
#1471=AXIS2_PLACEMENT_3D('',#2069,#1662,#1663);
#1472=AXIS2_PLACEMENT_3D('',#2072,#1664,#1665);
#1473=AXIS2_PLACEMENT_3D('',#2073,#1666,#1667);
#1474=AXIS2_PLACEMENT_3D('',#2076,#1668,#1669);
#1475=AXIS2_PLACEMENT_3D('',#2077,#1670,#1671);
#1476=AXIS2_PLACEMENT_3D('',#2080,#1672,#1673);
#1477=AXIS2_PLACEMENT_3D('',#2091,#1680,#1681);
#1478=AXIS2_PLACEMENT_3D('',#2092,#1682,#1683);
#1479=AXIS2_PLACEMENT_3D('',#2097,#1686,#1687);
#1480=AXIS2_PLACEMENT_3D('',#2098,#1688,#1689);
#1481=AXIS2_PLACEMENT_3D('',#2103,#1692,#1693);
#1482=AXIS2_PLACEMENT_3D('',#2104,#1694,#1695);
#1483=AXIS2_PLACEMENT_3D('',#2109,#1697,#1698);
#1484=AXIS2_PLACEMENT_3D('',#2112,#1700,#1701);
#1485=AXIS2_PLACEMENT_3D('',#2113,#1702,#1703);
#1486=AXIS2_PLACEMENT_3D('',#2118,#1705,#1706);
#1487=AXIS2_PLACEMENT_3D('',#2121,#1708,#1709);
#1488=AXIS2_PLACEMENT_3D('',#2124,#1711,#1712);
#1489=AXIS2_PLACEMENT_3D('',#2127,#1714,#1715);
#1490=AXIS2_PLACEMENT_3D('',#2130,#1717,#1718);
#1491=AXIS2_PLACEMENT_3D('',#2133,#1720,#1721);
#1492=AXIS2_PLACEMENT_3D('',#2137,#1723,#1724);
#1493=AXIS2_PLACEMENT_3D('',#2141,#1726,#1727);
#1494=AXIS2_PLACEMENT_3D('',#2142,#1728,#1729);
#1495=AXIS2_PLACEMENT_3D('',#2146,#1731,#1732);
#1496=AXIS2_PLACEMENT_3D('',#2150,#1734,#1735);
#1497=AXIS2_PLACEMENT_3D('',#2151,#1736,#1737);
#1498=AXIS2_PLACEMENT_3D('',#2157,#1741,#1742);
#1499=AXIS2_PLACEMENT_3D('',#2163,#1746,#1747);
#1500=AXIS2_PLACEMENT_3D('',#2169,#1751,#1752);
#1501=AXIS2_PLACEMENT_3D('',#2174,#1756,#1757);
#1502=AXIS2_PLACEMENT_3D('',#2178,#1760,#1761);
#1503=AXIS2_PLACEMENT_3D('',#2182,#1764,#1765);
#1504=AXIS2_PLACEMENT_3D('',#2186,#1768,#1769);
#1505=AXIS2_PLACEMENT_3D('',#2187,#1770,#1771);
#1506=AXIS2_PLACEMENT_3D('',#2189,#1772,#1773);
#1507=AXIS2_PLACEMENT_3D('',#2190,#1774,#1775);
#1508=AXIS2_PLACEMENT_3D('',#2192,#1776,#1777);
#1509=AXIS2_PLACEMENT_3D('',#2194,#1778,#1779);
#1510=AXIS2_PLACEMENT_3D('',#2195,#1780,#1781);
#1511=AXIS2_PLACEMENT_3D('',#2197,#1782,#1783);
#1512=AXIS2_PLACEMENT_3D('',#2199,#1784,#1785);
#1513=AXIS2_PLACEMENT_3D('',#2201,#1787,#1788);
#1514=AXIS2_PLACEMENT_3D('',#2202,#1789,#1790);
#1515=AXIS2_PLACEMENT_3D('',#2204,#1791,#1792);
#1516=AXIS2_PLACEMENT_3D('',#2214,#1798,#1799);
#1517=AXIS2_PLACEMENT_3D('',#2215,#1800,#1801);
#1518=AXIS2_PLACEMENT_3D('',#2216,#1802,#1803);
#1519=AXIS2_PLACEMENT_3D('',#2217,#1804,#1805);
#1520=AXIS2_PLACEMENT_3D('',#2218,#1806,#1807);
#1521=AXIS2_PLACEMENT_3D('',#2228,#1813,#1814);
#1522=AXIS2_PLACEMENT_3D('',#2229,#1815,#1816);
#1523=AXIS2_PLACEMENT_3D('',#2230,#1817,#1818);
#1524=AXIS2_PLACEMENT_3D('',#2231,#1819,#1820);
#1525=AXIS2_PLACEMENT_3D('',#2232,#1821,#1822);
#1526=AXIS2_PLACEMENT_3D('',#2233,#1823,#1824);
#1527=AXIS2_PLACEMENT_3D('',#2252,#1835,#1836);
#1528=AXIS2_PLACEMENT_3D('',#2253,#1837,#1838);
#1529=AXIS2_PLACEMENT_3D('',#2254,#1839,#1840);
#1530=AXIS2_PLACEMENT_3D('',#2255,#1841,#1842);
#1531=AXIS2_PLACEMENT_3D('',#2256,#1843,#1844);
#1532=AXIS2_PLACEMENT_3D('',#2257,#1845,#1846);
#1533=AXIS2_PLACEMENT_3D('',#2258,#1847,#1848);
#1534=AXIS2_PLACEMENT_3D('',#2259,#1849,#1850);
#1535=AXIS2_PLACEMENT_3D('',#2260,#1851,#1852);
#1536=AXIS2_PLACEMENT_3D('',#2261,#1853,#1854);
#1537=AXIS2_PLACEMENT_3D('',#2262,#1855,#1856);
#1538=AXIS2_PLACEMENT_3D('',#2263,#1857,#1858);
#1539=AXIS2_PLACEMENT_3D('',#2264,#1859,#1860);
#1540=AXIS2_PLACEMENT_3D('',#2274,#1868,#1869);
#1541=AXIS2_PLACEMENT_3D('',#2280,#1874,#1875);
#1542=AXIS2_PLACEMENT_3D('',#2288,#1882,#1883);
#1543=AXIS2_PLACEMENT_3D('',#2292,#1887,#1888);
#1544=AXIS2_PLACEMENT_3D('',#2295,#1891,#1892);
#1545=AXIS2_PLACEMENT_3D('',#2297,#1894,#1895);
#1546=AXIS2_PLACEMENT_3D('',#2299,#1897,#1898);
#1547=AXIS2_PLACEMENT_3D('',#2305,#1902,#1903);
#1548=AXIS2_PLACEMENT_3D('',#2311,#1907,#1908);
#1549=AXIS2_PLACEMENT_3D('',#2313,#1910,#1911);
#1550=AXIS2_PLACEMENT_3D('',#2320,#1916,#1917);
#1551=AXIS2_PLACEMENT_3D('',#2322,#1919,#1920);
#1552=AXIS2_PLACEMENT_3D('',#2324,#1922,#1923);
#1553=AXIS2_PLACEMENT_3D('',#2325,#1924,#1925);
#1554=AXIS2_PLACEMENT_3D('',#2326,#1926,#1927);
#1555=AXIS2_PLACEMENT_3D('',#2327,#1928,#1929);
#1556=DIRECTION('',(0.,0.,1.));
#1557=DIRECTION('',(1.,0.,0.));
#1558=DIRECTION('',(-1.,0.,0.));
#1559=DIRECTION('',(0.,0.,1.));
#1560=DIRECTION('',(0.,0.,1.));
#1561=DIRECTION('',(0.,-1.,0.));
#1562=DIRECTION('',(0.,0.,1.));
#1563=DIRECTION('',(0.,-1.,0.));
#1564=DIRECTION('',(0.,-1.,0.));
#1565=DIRECTION('',(0.,0.,-1.));
#1566=DIRECTION('',(1.,0.,0.));
#1567=DIRECTION('',(1.,0.,0.));
#1568=DIRECTION('',(0.,0.,1.));
#1569=DIRECTION('',(2.55106393526001E-16,-1.,0.));
#1570=DIRECTION('',(1.,2.55106393526001E-16,0.));
#1571=DIRECTION('',(0.,0.,1.));
#1572=DIRECTION('',(1.,2.55106393526001E-16,0.));
#1573=DIRECTION('',(0.,0.,1.));
#1574=DIRECTION('',(1.,2.55106393526001E-16,0.));
#1575=DIRECTION('',(-1.,0.,0.));
#1576=DIRECTION('',(0.,0.,1.));
#1577=DIRECTION('',(0.,0.,1.));
#1578=DIRECTION('',(0.,-1.,0.));
#1579=DIRECTION('',(0.,-1.,0.));
#1580=DIRECTION('',(-1.,0.,0.));
#1581=DIRECTION('',(0.,0.,1.));
#1582=DIRECTION('',(0.,-1.,0.));
#1583=DIRECTION('',(0.,0.,1.));
#1584=DIRECTION('',(0.,-1.,0.));
#1585=DIRECTION('',(0.,0.,1.));
#1586=DIRECTION('',(0.,-1.,0.));
#1587=DIRECTION('',(0.,0.,-1.));
#1588=DIRECTION('',(0.,0.,1.));
#1589=DIRECTION('',(1.,0.,0.));
#1590=DIRECTION('',(1.,0.,0.));
#1591=DIRECTION('',(-1.,0.,0.));
#1592=DIRECTION('',(0.,0.,1.));
#1593=DIRECTION('',(0.,0.,1.));
#1594=DIRECTION('',(0.,-1.,0.));
#1595=DIRECTION('',(0.,-1.,0.));
#1596=DIRECTION('',(-1.,0.,0.));
#1597=DIRECTION('',(0.,0.,1.));
#1598=DIRECTION('',(0.,-1.,0.));
#1599=DIRECTION('',(0.,0.,1.));
#1600=DIRECTION('',(0.,-1.,0.));
#1601=DIRECTION('',(0.,0.,1.));
#1602=DIRECTION('',(2.55106393526001E-16,-1.,0.));
#1603=DIRECTION('',(1.,2.55106393526001E-16,0.));
#1604=DIRECTION('',(0.,0.,1.));
#1605=DIRECTION('',(1.,2.55106393526001E-16,0.));
#1606=DIRECTION('',(1.,2.55106393526001E-16,0.));
#1607=DIRECTION('',(0.,-1.,0.));
#1608=DIRECTION('',(0.,0.,-1.));
#1609=DIRECTION('',(1.,0.,0.));
#1610=DIRECTION('',(0.,0.,1.));
#1611=DIRECTION('',(1.,0.,0.));
#1612=DIRECTION('',(0.,0.,1.));
#1613=DIRECTION('',(-1.,0.,0.));
#1614=DIRECTION('',(0.,0.,1.));
#1615=DIRECTION('',(0.,-1.,0.));
#1616=DIRECTION('',(0.,-1.,0.));
#1617=DIRECTION('',(0.,0.,1.));
#1618=DIRECTION('',(-1.,0.,0.));
#1619=DIRECTION('',(0.,0.,1.));
#1620=DIRECTION('',(0.,0.,1.));
#1621=DIRECTION('',(0.,-1.,0.));
#1622=DIRECTION('',(0.,0.,1.));
#1623=DIRECTION('',(0.,-1.,0.));
#1624=DIRECTION('',(0.,-1.,0.));
#1625=DIRECTION('',(0.,0.,-1.));
#1626=DIRECTION('',(1.,0.,0.));
#1627=DIRECTION('',(1.,0.,0.));
#1628=DIRECTION('',(0.,0.,1.));
#1629=DIRECTION('',(-1.,0.,0.));
#1630=DIRECTION('',(0.,0.,1.));
#1631=DIRECTION('',(0.,-1.,0.));
#1632=DIRECTION('',(0.,-1.,0.));
#1633=DIRECTION('',(0.,0.,1.));
#1634=DIRECTION('',(2.78111980116522E-16,-1.,0.));
#1635=DIRECTION('',(1.,2.78111980116522E-16,0.));
#1636=DIRECTION('',(1.,2.78111980116522E-16,0.));
#1637=DIRECTION('',(0.,0.,1.));
#1638=DIRECTION('',(1.,0.,0.));
#1639=DIRECTION('',(0.,0.,1.));
#1640=DIRECTION('',(0.,0.832050294337843,-0.55470019622523));
#1641=DIRECTION('',(-1.,0.,0.));
#1642=DIRECTION('',(1.,0.,0.));
#1643=DIRECTION('',(-5.77381594549372E-17,0.55470019622523,0.832050294337843));
#1644=DIRECTION('',(-1.,0.,0.));
#1645=DIRECTION('',(1.1455374434772E-16,-0.55470019622523,-0.832050294337843));
#1646=DIRECTION('',(0.,0.832050294337843,-0.55470019622523));
#1647=DIRECTION('',(-1.,0.,0.));
#1648=DIRECTION('',(0.,0.55470019622523,0.832050294337843));
#1649=DIRECTION('',(1.,0.,0.));
#1650=DIRECTION('',(-1.93507034187446E-16,0.55470019622523,0.832050294337843));
#1651=DIRECTION('',(-1.,0.,0.));
#1652=DIRECTION('',(0.,0.,1.));
#1653=DIRECTION('',(1.,0.,0.));
#1654=DIRECTION('',(0.,0.,1.));
#1655=DIRECTION('',(1.,0.,0.));
#1656=DIRECTION('',(0.,0.,1.));
#1657=DIRECTION('',(1.,0.,0.));
#1658=DIRECTION('',(0.,0.,1.));
#1659=DIRECTION('',(1.,0.,0.));
#1660=DIRECTION('',(0.,0.,1.));
#1661=DIRECTION('',(1.,0.,0.));
#1662=DIRECTION('',(0.,0.,1.));
#1663=DIRECTION('',(1.,0.,0.));
#1664=DIRECTION('',(0.,0.,1.));
#1665=DIRECTION('',(1.,0.,0.));
#1666=DIRECTION('',(0.,0.,1.));
#1667=DIRECTION('',(1.,0.,0.));
#1668=DIRECTION('',(0.,0.,1.));
#1669=DIRECTION('',(1.,0.,0.));
#1670=DIRECTION('',(0.,0.,1.));
#1671=DIRECTION('',(1.,0.,0.));
#1672=DIRECTION('',(0.,0.,1.));
#1673=DIRECTION('',(1.,0.,0.));
#1674=DIRECTION('',(0.,-1.,0.));
#1675=DIRECTION('',(3.48849766962901E-16,-1.,0.));
#1676=DIRECTION('',(1.,4.13029399042096E-16,0.));
#1677=DIRECTION('',(2.06514699521048E-16,-1.,0.));
#1678=DIRECTION('',(1.04088947232846E-16,-1.,0.));
#1679=DIRECTION('',(1.,4.34549968932066E-16,0.));
#1680=DIRECTION('',(0.,0.,-1.));
#1681=DIRECTION('',(-1.,0.,0.));
#1682=DIRECTION('',(0.,0.,1.));
#1683=DIRECTION('',(1.,0.,0.));
#1684=DIRECTION('',(0.,0.,-1.));
#1685=DIRECTION('',(0.,0.,-1.));
#1686=DIRECTION('',(0.,0.,-1.));
#1687=DIRECTION('',(-1.,0.,0.));
#1688=DIRECTION('',(0.,0.,1.));
#1689=DIRECTION('',(1.,0.,0.));
#1690=DIRECTION('',(0.,0.,-1.));
#1691=DIRECTION('',(0.,0.,-1.));
#1692=DIRECTION('',(0.,0.,-1.));
#1693=DIRECTION('',(-1.,0.,0.));
#1694=DIRECTION('',(0.,0.,1.));
#1695=DIRECTION('',(1.,0.,0.));
#1696=DIRECTION('',(0.,0.,-1.));
#1697=DIRECTION('',(0.,0.,1.));
#1698=DIRECTION('',(1.,0.,0.));
#1699=DIRECTION('',(0.,0.,-1.));
#1700=DIRECTION('',(0.,0.,-1.));
#1701=DIRECTION('',(-1.,0.,0.));
#1702=DIRECTION('',(0.,0.,1.));
#1703=DIRECTION('',(1.,0.,0.));
#1704=DIRECTION('',(0.,0.,-1.));
#1705=DIRECTION('',(0.,0.,1.));
#1706=DIRECTION('',(1.,0.,0.));
#1707=DIRECTION('',(0.,0.,-1.));
#1708=DIRECTION('',(0.,0.,-1.));
#1709=DIRECTION('',(-1.,0.,0.));
#1710=DIRECTION('',(0.,0.,-1.));
#1711=DIRECTION('',(0.,0.,1.));
#1712=DIRECTION('',(1.,0.,0.));
#1713=DIRECTION('',(0.,0.,-1.));
#1714=DIRECTION('',(0.,0.,-1.));
#1715=DIRECTION('',(-1.,0.,0.));
#1716=DIRECTION('',(0.,0.,-1.));
#1717=DIRECTION('',(0.,0.,1.));
#1718=DIRECTION('',(1.,0.,0.));
#1719=DIRECTION('',(0.,0.,-1.));
#1720=DIRECTION('',(0.,0.,-1.));
#1721=DIRECTION('',(-1.,0.,0.));
#1722=DIRECTION('',(0.,0.,-1.));
#1723=DIRECTION('',(0.,0.,1.));
#1724=DIRECTION('',(1.,0.,0.));
#1725=DIRECTION('',(0.,0.,-1.));
#1726=DIRECTION('',(0.,0.,1.));
#1727=DIRECTION('',(1.,0.,0.));
#1728=DIRECTION('',(0.,0.,-1.));
#1729=DIRECTION('',(-1.,0.,0.));
#1730=DIRECTION('',(0.,0.,-1.));
#1731=DIRECTION('',(0.,0.,1.));
#1732=DIRECTION('',(1.,0.,0.));
#1733=DIRECTION('',(0.,0.,-1.));
#1734=DIRECTION('',(0.,0.,1.));
#1735=DIRECTION('',(1.,0.,0.));
#1736=DIRECTION('',(1.,3.488497669629E-16,0.));
#1737=DIRECTION('',(-3.48849766962901E-16,1.,0.));
#1738=DIRECTION('',(0.,0.,-1.));
#1739=DIRECTION('',(-1.93507034187446E-16,0.55470019622523,0.832050294337843));
#1740=DIRECTION('',(0.,0.,-1.));
#1741=DIRECTION('',(1.,2.96417131783709E-16,0.));
#1742=DIRECTION('',(-2.96417131783709E-16,1.,0.));
#1743=DIRECTION('',(2.96417131783709E-16,-1.,0.));
#1744=DIRECTION('',(0.,0.,-1.));
#1745=DIRECTION('',(2.96417131783709E-16,-1.,0.));
#1746=DIRECTION('',(0.,1.,0.));
#1747=DIRECTION('',(0.,0.,1.));
#1748=DIRECTION('',(1.,0.,0.));
#1749=DIRECTION('',(0.,0.,-1.));
#1750=DIRECTION('',(1.,0.,0.));
#1751=DIRECTION('',(1.,1.85260707364818E-16,0.));
#1752=DIRECTION('',(-1.85260707364818E-16,1.,0.));
#1753=DIRECTION('',(1.85260707364818E-16,-1.,0.));
#1754=DIRECTION('',(0.,0.,-1.));
#1755=DIRECTION('',(1.85260707364818E-16,-1.,0.));
#1756=DIRECTION('',(-1.,-2.06514699521048E-16,0.));
#1757=DIRECTION('',(2.06514699521048E-16,-1.,0.));
#1758=DIRECTION('',(0.,0.,-1.));
#1759=DIRECTION('',(1.1455374434772E-16,-0.55470019622523,-0.832050294337843));
#1760=DIRECTION('',(1.,2.06514699521048E-16,0.));
#1761=DIRECTION('',(-2.06514699521048E-16,1.,0.));
#1762=DIRECTION('',(0.,0.,-1.));
#1763=DIRECTION('',(2.06514699521048E-16,-1.,0.));
#1764=DIRECTION('',(-4.13029399042096E-16,1.,0.));
#1765=DIRECTION('',(-1.,-4.13029399042096E-16,0.));
#1766=DIRECTION('',(0.,0.,-1.));
#1767=DIRECTION('',(1.,4.13029399042096E-16,0.));
#1768=DIRECTION('',(0.,0.,-1.));
#1769=DIRECTION('',(-1.,0.,0.));
#1770=DIRECTION('',(0.,0.,1.));
#1771=DIRECTION('',(1.,0.,0.));
#1772=DIRECTION('',(0.,0.,-1.));
#1773=DIRECTION('',(-1.,0.,0.));
#1774=DIRECTION('',(0.,0.,1.));
#1775=DIRECTION('',(1.,0.,0.));
#1776=DIRECTION('',(0.,0.,1.));
#1777=DIRECTION('',(1.,0.,0.));
#1778=DIRECTION('',(0.,0.,-1.));
#1779=DIRECTION('',(-1.,0.,0.));
#1780=DIRECTION('',(0.,0.,1.));
#1781=DIRECTION('',(1.,0.,0.));
#1782=DIRECTION('',(0.,0.,1.));
#1783=DIRECTION('',(1.,0.,0.));
#1784=DIRECTION('',(1.,3.48849766962901E-16,0.));
#1785=DIRECTION('',(-3.48849766962901E-16,1.,0.));
#1786=DIRECTION('',(3.48849766962901E-16,-1.,0.));
#1787=DIRECTION('',(0.,0.,-1.));
#1788=DIRECTION('',(-1.,0.,0.));
#1789=DIRECTION('',(0.,0.,1.));
#1790=DIRECTION('',(1.,0.,0.));
#1791=DIRECTION('',(0.,0.,1.));
#1792=DIRECTION('',(1.,0.,0.));
#1793=DIRECTION('',(1.,0.,0.));
#1794=DIRECTION('',(-1.,0.,0.));
#1795=DIRECTION('',(0.,1.,0.));
#1796=DIRECTION('',(-1.,0.,0.));
#1797=DIRECTION('',(0.,1.,0.));
#1798=DIRECTION('',(0.,0.,1.));
#1799=DIRECTION('',(1.,0.,0.));
#1800=DIRECTION('',(0.,0.,1.));
#1801=DIRECTION('',(1.,0.,0.));
#1802=DIRECTION('',(0.,0.,1.));
#1803=DIRECTION('',(1.,0.,0.));
#1804=DIRECTION('',(0.,0.,1.));
#1805=DIRECTION('',(1.,0.,0.));
#1806=DIRECTION('',(0.,0.,1.));
#1807=DIRECTION('',(1.,0.,0.));
#1808=DIRECTION('',(-1.19020478626196E-16,1.,0.));
#1809=DIRECTION('',(-1.,0.,0.));
#1810=DIRECTION('',(0.,1.,0.));
#1811=DIRECTION('',(-1.,-3.11796703198446E-16,0.));
#1812=DIRECTION('',(-1.,0.,0.));
#1813=DIRECTION('',(0.,0.,1.));
#1814=DIRECTION('',(1.,0.,0.));
#1815=DIRECTION('',(0.,0.,1.));
#1816=DIRECTION('',(1.,0.,0.));
#1817=DIRECTION('',(0.,0.,1.));
#1818=DIRECTION('',(1.,0.,0.));
#1819=DIRECTION('',(0.,0.,1.));
#1820=DIRECTION('',(1.,0.,0.));
#1821=DIRECTION('',(0.,0.832050294337843,-0.55470019622523));
#1822=DIRECTION('',(-1.,0.,0.));
#1823=DIRECTION('',(0.,0.,1.));
#1824=DIRECTION('',(1.,0.,0.));
#1825=DIRECTION('',(0.,1.,0.));
#1826=DIRECTION('',(-1.,0.,0.));
#1827=DIRECTION('',(0.,1.,0.));
#1828=DIRECTION('',(-1.,0.,0.));
#1829=DIRECTION('',(1.,0.,0.));
#1830=DIRECTION('',(0.,-1.,0.));
#1831=DIRECTION('',(0.,-1.,0.));
#1832=DIRECTION('',(1.,0.,0.));
#1833=DIRECTION('',(0.,-1.,0.));
#1834=DIRECTION('',(0.,-1.,0.));
#1835=DIRECTION('',(0.,0.,1.));
#1836=DIRECTION('',(1.,0.,0.));
#1837=DIRECTION('',(0.,0.,1.));
#1838=DIRECTION('',(1.,0.,0.));
#1839=DIRECTION('',(0.,0.,1.));
#1840=DIRECTION('',(1.,0.,0.));
#1841=DIRECTION('',(0.,0.,1.));
#1842=DIRECTION('',(1.,0.,0.));
#1843=DIRECTION('',(0.,0.,-1.));
#1844=DIRECTION('',(-1.,0.,0.));
#1845=DIRECTION('',(0.,0.,-1.));
#1846=DIRECTION('',(-1.,0.,0.));
#1847=DIRECTION('',(0.,0.,-1.));
#1848=DIRECTION('',(-1.,0.,0.));
#1849=DIRECTION('',(0.,0.,-1.));
#1850=DIRECTION('',(-1.,0.,0.));
#1851=DIRECTION('',(0.,0.,-1.));
#1852=DIRECTION('',(-1.,0.,0.));
#1853=DIRECTION('',(0.,0.,-1.));
#1854=DIRECTION('',(-1.,0.,0.));
#1855=DIRECTION('',(0.,0.,-1.));
#1856=DIRECTION('',(-1.,0.,0.));
#1857=DIRECTION('',(0.,0.,-1.));
#1858=DIRECTION('',(-1.,0.,0.));
#1859=DIRECTION('',(0.,1.,0.));
#1860=DIRECTION('',(0.,0.,1.));
#1861=DIRECTION('',(-1.,0.,0.));
#1862=DIRECTION('',(-1.,0.,0.));
#1863=DIRECTION('',(-1.,0.,0.));
#1864=DIRECTION('',(-1.,0.,0.));
#1865=DIRECTION('',(-1.,0.,0.));
#1866=DIRECTION('',(0.,0.,-1.));
#1867=DIRECTION('',(0.,0.,-1.));
#1868=DIRECTION('',(1.,1.19020478626196E-16,0.));
#1869=DIRECTION('',(-1.19020478626196E-16,1.,0.));
#1870=DIRECTION('',(-1.19020478626196E-16,1.,0.));
#1871=DIRECTION('',(0.,0.,-1.));
#1872=DIRECTION('',(-1.19020478626196E-16,1.,0.));
#1873=DIRECTION('',(-1.19020478626196E-16,1.,0.));
#1874=DIRECTION('',(-3.11796703198446E-16,1.,0.));
#1875=DIRECTION('',(-1.,-3.11796703198446E-16,0.));
#1876=DIRECTION('',(-1.,-3.11796703198446E-16,0.));
#1877=DIRECTION('',(0.,0.,-1.));
#1878=DIRECTION('',(-1.,-3.11796703198446E-16,0.));
#1879=DIRECTION('',(-1.,-3.11796703198446E-16,0.));
#1880=DIRECTION('',(-1.,-3.11796703198446E-16,0.));
#1881=DIRECTION('',(-1.,-3.11796703198446E-16,0.));
#1882=DIRECTION('',(1.,0.,0.));
#1883=DIRECTION('',(0.,0.,-1.));
#1884=DIRECTION('',(0.,1.,0.));
#1885=DIRECTION('',(0.,1.,0.));
#1886=DIRECTION('',(0.,1.,0.));
#1887=DIRECTION('',(1.,0.,0.));
#1888=DIRECTION('',(0.,0.,-1.));
#1889=DIRECTION('',(0.,0.,-1.));
#1890=DIRECTION('',(0.,0.,-1.));
#1891=DIRECTION('',(0.,1.,0.));
#1892=DIRECTION('',(0.,0.,1.));
#1893=DIRECTION('',(0.,0.,-1.));
#1894=DIRECTION('',(1.,0.,0.));
#1895=DIRECTION('',(0.,0.,-1.));
#1896=DIRECTION('',(0.,0.,-1.));
#1897=DIRECTION('',(-1.,0.,0.));
#1898=DIRECTION('',(0.,0.,1.));
#1899=DIRECTION('',(0.,-1.,0.));
#1900=DIRECTION('',(0.,-0.707106781186548,-0.707106781186548));
#1901=DIRECTION('',(0.,0.,1.));
#1902=DIRECTION('',(-1.,-1.04088947232846E-16,0.));
#1903=DIRECTION('',(1.04088947232846E-16,-1.,0.));
#1904=DIRECTION('',(-7.36020004349141E-17,0.707106781186548,0.707106781186548));
#1905=DIRECTION('',(1.04088947232846E-16,-1.,0.));
#1906=DIRECTION('',(0.,0.,1.));
#1907=DIRECTION('',(4.34549968932066E-16,-1.,0.));
#1908=DIRECTION('',(1.,4.34549968932066E-16,0.));
#1909=DIRECTION('',(1.,4.34549968932066E-16,0.));
#1910=DIRECTION('',(0.,0.,1.));
#1911=DIRECTION('',(1.,0.,0.));
#1912=DIRECTION('',(0.,-1.,0.));
#1913=DIRECTION('',(1.,0.,0.));
#1914=DIRECTION('',(1.,0.,0.));
#1915=DIRECTION('',(0.,-1.,0.));
#1916=DIRECTION('',(-1.,0.,0.));
#1917=DIRECTION('',(0.,0.,1.));
#1918=DIRECTION('',(0.,0.707106781186548,0.707106781186548));
#1919=DIRECTION('',(-1.,0.,0.));
#1920=DIRECTION('',(0.,0.,1.));
#1921=DIRECTION('',(0.,-0.707106781186548,-0.707106781186548));
#1922=DIRECTION('',(0.,-0.707106781186548,0.707106781186548));
#1923=DIRECTION('',(1.,0.,0.));
#1924=DIRECTION('',(0.,-0.707106781186548,0.707106781186548));
#1925=DIRECTION('',(1.,0.,0.));
#1926=DIRECTION('',(0.,1.,0.));
#1927=DIRECTION('',(0.,0.,1.));
#1928=DIRECTION('',(0.,0.,1.));
#1929=DIRECTION('',(1.,0.,0.));
#1930=CARTESIAN_POINT('',(0.,0.,0.));
#1931=CARTESIAN_POINT('',(0.026,0.026025,0.0048));
#1932=CARTESIAN_POINT('',(0.026,0.01925,0.0048));
#1933=CARTESIAN_POINT('',(0.026,0.01925,0.0048));
#1934=CARTESIAN_POINT('',(0.026,0.01925,0.01));
#1935=CARTESIAN_POINT('',(0.026,0.026025,0.01));
#1936=CARTESIAN_POINT('',(0.026,0.0328,0.01));
#1937=CARTESIAN_POINT('',(0.026,0.0328,0.0048));
#1938=CARTESIAN_POINT('',(0.026,0.0328,0.0048));
#1939=CARTESIAN_POINT('',(0.026,0.026025,0.0048));
#1940=CARTESIAN_POINT('',(0.0192,0.01925,0.0048));
#1941=CARTESIAN_POINT('',(0.0192,0.01925,0.01));
#1942=CARTESIAN_POINT('',(0.0124,0.01925,0.01));
#1943=CARTESIAN_POINT('',(0.0192,0.01925,0.0048));
#1944=CARTESIAN_POINT('',(0.0124,0.01925,0.0048));
#1945=CARTESIAN_POINT('',(0.0124,0.01925,0.0048));
#1946=CARTESIAN_POINT('',(0.0192,0.01725,0.0048));
#1947=CARTESIAN_POINT('',(0.026,0.01725,0.0048));
#1948=CARTESIAN_POINT('',(0.026,0.01725,0.0048));
#1949=CARTESIAN_POINT('',(0.026,0.01725,0.01));
#1950=CARTESIAN_POINT('',(0.0192,0.01725,0.01));
#1951=CARTESIAN_POINT('',(0.0124,0.01725,0.01));
#1952=CARTESIAN_POINT('',(0.0124,0.01725,0.0048));
#1953=CARTESIAN_POINT('',(0.0124,0.01725,0.0048));
#1954=CARTESIAN_POINT('',(0.0192,0.01725,0.0048));
#1955=CARTESIAN_POINT('',(0.026,0.01045,0.0048));
#1956=CARTESIAN_POINT('',(0.026,0.00365,0.0048));
#1957=CARTESIAN_POINT('',(0.026,0.00365,0.0048));
#1958=CARTESIAN_POINT('',(0.026,0.00365,0.01));
#1959=CARTESIAN_POINT('',(0.026,0.01045,0.01));
#1960=CARTESIAN_POINT('',(0.026,0.01045,0.0048));
#1961=CARTESIAN_POINT('',(0.02895,0.01045,0.0048));
#1962=CARTESIAN_POINT('',(0.02895,0.01045,0.01));
#1963=CARTESIAN_POINT('',(0.02895,0.01725,0.01));
#1964=CARTESIAN_POINT('',(0.02895,0.00365,0.01));
#1965=CARTESIAN_POINT('',(0.02895,0.00365,0.0048));
#1966=CARTESIAN_POINT('',(0.02895,0.00365,0.0048));
#1967=CARTESIAN_POINT('',(0.02895,0.01045,0.0048));
#1968=CARTESIAN_POINT('',(0.02895,0.01725,0.0048));
#1969=CARTESIAN_POINT('',(0.02895,0.01725,0.0048));
#1970=CARTESIAN_POINT('',(0.03535,0.01725,0.0048));
#1971=CARTESIAN_POINT('',(0.04175,0.01725,0.0048));
#1972=CARTESIAN_POINT('',(0.04175,0.01725,0.0048));
#1973=CARTESIAN_POINT('',(0.04175,0.01725,0.01));
#1974=CARTESIAN_POINT('',(0.03535,0.01725,0.01));
#1975=CARTESIAN_POINT('',(0.03535,0.01725,0.0048));
#1976=CARTESIAN_POINT('',(0.04175,0.01045,0.0048));
#1977=CARTESIAN_POINT('',(0.04175,0.00365,0.0048));
#1978=CARTESIAN_POINT('',(0.04175,0.00365,0.0048));
#1979=CARTESIAN_POINT('',(0.04175,0.00365,0.01));
#1980=CARTESIAN_POINT('',(0.04175,0.01045,0.01));
#1981=CARTESIAN_POINT('',(0.04175,0.01045,0.0048));
#1982=CARTESIAN_POINT('',(0.0447,0.01045,0.0048));
#1983=CARTESIAN_POINT('',(0.0447,0.01045,0.01));
#1984=CARTESIAN_POINT('',(0.0447,0.01725,0.01));
#1985=CARTESIAN_POINT('',(0.0447,0.00365,0.01));
#1986=CARTESIAN_POINT('',(0.0447,0.00365,0.0048));
#1987=CARTESIAN_POINT('',(0.0447,0.00365,0.0048));
#1988=CARTESIAN_POINT('',(0.0447,0.01045,0.0048));
#1989=CARTESIAN_POINT('',(0.0447,0.01725,0.0048));
#1990=CARTESIAN_POINT('',(0.0447,0.01725,0.0048));
#1991=CARTESIAN_POINT('',(0.0515,0.01725,0.0048));
#1992=CARTESIAN_POINT('',(0.0583,0.01725,0.0048));
#1993=CARTESIAN_POINT('',(0.0583,0.01725,0.0048));
#1994=CARTESIAN_POINT('',(0.0583,0.01725,0.01));
#1995=CARTESIAN_POINT('',(0.0515,0.01725,0.01));
#1996=CARTESIAN_POINT('',(0.0515,0.01725,0.0048));
#1997=CARTESIAN_POINT('',(0.0515,0.01925,0.0048));
#1998=CARTESIAN_POINT('',(0.0515,0.01925,0.01));
#1999=CARTESIAN_POINT('',(0.0447,0.01925,0.01));
#2000=CARTESIAN_POINT('',(0.0583,0.01925,0.01));
#2001=CARTESIAN_POINT('',(0.0583,0.01925,0.0048));
#2002=CARTESIAN_POINT('',(0.0583,0.01925,0.0048));
#2003=CARTESIAN_POINT('',(0.0515,0.01925,0.0048));
#2004=CARTESIAN_POINT('',(0.0447,0.01925,0.0048));
#2005=CARTESIAN_POINT('',(0.0447,0.01925,0.0048));
#2006=CARTESIAN_POINT('',(0.0447,0.026025,0.0048));
#2007=CARTESIAN_POINT('',(0.0447,0.026025,0.01));
#2008=CARTESIAN_POINT('',(0.0447,0.0328,0.01));
#2009=CARTESIAN_POINT('',(0.0447,0.026025,0.0048));
#2010=CARTESIAN_POINT('',(0.0447,0.0328,0.0048));
#2011=CARTESIAN_POINT('',(0.0447,0.0328,0.0048));
#2012=CARTESIAN_POINT('',(0.04175,0.026025,0.0048));
#2013=CARTESIAN_POINT('',(0.04175,0.01925,0.0048));
#2014=CARTESIAN_POINT('',(0.04175,0.01925,0.0048));
#2015=CARTESIAN_POINT('',(0.04175,0.01925,0.01));
#2016=CARTESIAN_POINT('',(0.04175,0.026025,0.01));
#2017=CARTESIAN_POINT('',(0.04175,0.0328,0.01));
#2018=CARTESIAN_POINT('',(0.04175,0.0328,0.0048));
#2019=CARTESIAN_POINT('',(0.04175,0.0328,0.0048));
#2020=CARTESIAN_POINT('',(0.04175,0.026025,0.0048));
#2021=CARTESIAN_POINT('',(0.03535,0.01925,0.0048));
#2022=CARTESIAN_POINT('',(0.03535,0.01925,0.01));
#2023=CARTESIAN_POINT('',(0.02895,0.01925,0.01));
#2024=CARTESIAN_POINT('',(0.03535,0.01925,0.0048));
#2025=CARTESIAN_POINT('',(0.02895,0.01925,0.0048));
#2026=CARTESIAN_POINT('',(0.02895,0.01925,0.0048));
#2027=CARTESIAN_POINT('',(0.02895,0.026025,0.0048));
#2028=CARTESIAN_POINT('',(0.02895,0.026025,0.01));
#2029=CARTESIAN_POINT('',(0.02895,0.0328,0.01));
#2030=CARTESIAN_POINT('',(0.02895,0.026025,0.0048));
#2031=CARTESIAN_POINT('',(0.02895,0.0328,0.0048));
#2032=CARTESIAN_POINT('',(0.02895,0.0328,0.0048));
#2033=CARTESIAN_POINT('',(0.03535,0.0349815596342088,0.0048));
#2034=CARTESIAN_POINT('',(0.03535,0.0349815596342088,0.0048));
#2035=CARTESIAN_POINT('',(0.01647,0.0349815596342088,0.0048));
#2036=CARTESIAN_POINT('',(0.05447,0.0349815596342088,0.0048));
#2037=CARTESIAN_POINT('',(0.01647,0.0349815596342088,0.0048));
#2038=CARTESIAN_POINT('',(0.01647,0.0349815596342088,0.013));
#2039=CARTESIAN_POINT('',(0.03545,0.0349815596342088,0.013));
#2040=CARTESIAN_POINT('',(0.05447,0.0349815596342088,0.013));
#2041=CARTESIAN_POINT('',(0.05447,0.0349815596342088,0.0048));
#2042=CARTESIAN_POINT('',(0.0724,0.0329815596342087,0.01));
#2043=CARTESIAN_POINT('',(0.03545,0.0349815596342088,0.013));
#2044=CARTESIAN_POINT('',(-0.002,0.0349815596342088,0.013));
#2045=CARTESIAN_POINT('',(0.0104,0.0349815596342088,0.013));
#2046=CARTESIAN_POINT('',(0.0104,0.0329815596342087,0.01));
#2047=CARTESIAN_POINT('',(0.0104,0.0329815596342087,0.01));
#2048=CARTESIAN_POINT('',(0.0734,0.0329815596342087,0.01));
#2049=CARTESIAN_POINT('',(-0.002,0.0329815596342087,0.01));
#2050=CARTESIAN_POINT('',(-0.002,0.0329815596342087,0.01));
#2051=CARTESIAN_POINT('',(0.0724,0.0329815596342087,0.01));
#2052=CARTESIAN_POINT('',(0.0603,0.0329815596342087,0.01));
#2053=CARTESIAN_POINT('',(0.0603,0.0349815596342088,0.013));
#2054=CARTESIAN_POINT('',(0.0603,0.0329815596342087,0.01));
#2055=CARTESIAN_POINT('',(0.03545,0.0349815596342088,0.013));
#2056=CARTESIAN_POINT('',(0.0729,0.0349815596342088,0.013));
#2057=CARTESIAN_POINT('',(0.0729,0.0277843966135612,0.00220425546902875));
#2058=CARTESIAN_POINT('',(0.0729,0.0329815596342087,0.01));
#2059=CARTESIAN_POINT('',(0.0734,0.0329815596342087,0.01));
#2060=CARTESIAN_POINT('',(0.03545,0.0375,0.01));
#2061=CARTESIAN_POINT('',(0.0689256552363356,0.000391501247587031,0.01));
#2062=CARTESIAN_POINT('',(0.0687,-0.0026,0.01));
#2063=CARTESIAN_POINT('',(0.0689633163059272,-0.00260826235040492,0.01));
#2064=CARTESIAN_POINT('',(0.0687000000000084,-0.00679999999999957,0.01));
#2065=CARTESIAN_POINT('',(0.0687,-0.0068,0.01));
#2066=CARTESIAN_POINT('',(0.0715,-0.0068,0.01));
#2067=CARTESIAN_POINT('',(0.0022,-0.0068,0.01));
#2068=CARTESIAN_POINT('',(0.005,-0.0068,0.01));
#2069=CARTESIAN_POINT('',(0.00939150124758675,-0.00702565523633558,0.01));
#2070=CARTESIAN_POINT('',(0.0064,-0.0068,0.01));
#2071=CARTESIAN_POINT('',(0.00639173764959508,-0.00706331630592722,0.01));
#2072=CARTESIAN_POINT('',(0.00220000000000003,-0.00680000000000038,0.01));
#2073=CARTESIAN_POINT('',(0.0687000000000084,-0.00679999999999957,0.01));
#2074=CARTESIAN_POINT('',(0.0645,-0.00679999999999952,0.01));
#2075=CARTESIAN_POINT('',(0.064508262350405,-0.00706331630592757,0.01));
#2076=CARTESIAN_POINT('',(0.0615084987524,-0.007025655236336,0.01));
#2077=CARTESIAN_POINT('',(0.00220000000000003,-0.00680000000000038,0.01));
#2078=CARTESIAN_POINT('',(0.0022,-0.0026,0.01));
#2079=CARTESIAN_POINT('',(0.0019366836940728,-0.00260826235040493,0.01));
#2080=CARTESIAN_POINT('',(0.0019743447636644,0.000391501247587077,0.01));
#2081=CARTESIAN_POINT('',(0.0603,0.0375,0.01));
#2082=CARTESIAN_POINT('',(0.0603,0.00165,0.01));
#2083=CARTESIAN_POINT('',(0.0729,0.0130907798171044,0.01));
#2084=CARTESIAN_POINT('',(0.0729,-0.011,0.01));
#2085=CARTESIAN_POINT('',(0.0708,-0.011,0.01));
#2086=CARTESIAN_POINT('',(-0.002,-0.011,0.01));
#2087=CARTESIAN_POINT('',(-0.002,-0.0089,0.01));
#2088=CARTESIAN_POINT('',(0.0104,0.0375,0.01));
#2089=CARTESIAN_POINT('',(0.0104,0.00165,0.01));
#2090=CARTESIAN_POINT('',(0.03545,0.00165,0.01));
#2091=CARTESIAN_POINT('',(0.0689256552363356,0.000391501247587031,0.012));
#2092=CARTESIAN_POINT('',(0.0689256552363356,0.000391501247587031,0.012));
#2093=CARTESIAN_POINT('',(0.0687,-0.0026,0.012));
#2094=CARTESIAN_POINT('',(0.0689633163059272,-0.00260826235040492,0.012));
#2095=CARTESIAN_POINT('',(0.0689633163059272,-0.00260826235040492,0.012));
#2096=CARTESIAN_POINT('',(0.0687,-0.0026,0.012));
#2097=CARTESIAN_POINT('',(0.00939150124758675,-0.00702565523633558,0.012));
#2098=CARTESIAN_POINT('',(0.00939150124758675,-0.00702565523633558,0.012));
#2099=CARTESIAN_POINT('',(0.0064,-0.0068,0.012));
#2100=CARTESIAN_POINT('',(0.00639173764959508,-0.00706331630592722,0.012));
#2101=CARTESIAN_POINT('',(0.00639173764959508,-0.00706331630592722,0.012));
#2102=CARTESIAN_POINT('',(0.0064,-0.0068,0.012));
#2103=CARTESIAN_POINT('',(0.00198093871577345,0.0746080086641564,0.015));
#2104=CARTESIAN_POINT('',(0.00198093871577345,0.0746080086641564,0.015));
#2105=CARTESIAN_POINT('',(0.00219999999999968,0.0776,0.015));
#2106=CARTESIAN_POINT('',(0.00194438106085881,0.0776077859121996,0.015));
#2107=CARTESIAN_POINT('',(0.00194438106085881,0.0776077859121996,0.015));
#2108=CARTESIAN_POINT('',(0.00194438106085881,0.0776077859121996,0.013));
#2109=CARTESIAN_POINT('',(0.00198093871577345,0.0746080086641564,0.013));
#2110=CARTESIAN_POINT('',(0.00219999999999968,0.0776,0.013));
#2111=CARTESIAN_POINT('',(0.00219999999999968,0.0776,0.015));
#2112=CARTESIAN_POINT('',(0.0615084987524131,0.0820256552363356,0.015));
#2113=CARTESIAN_POINT('',(0.0615084987524131,0.0820256552363356,0.015));
#2114=CARTESIAN_POINT('',(0.0645,0.0818,0.015));
#2115=CARTESIAN_POINT('',(0.0645082623504049,0.0820633163059273,0.015));
#2116=CARTESIAN_POINT('',(0.0645082623504049,0.0820633163059273,0.015));
#2117=CARTESIAN_POINT('',(0.0645082623504049,0.0820633163059273,0.013));
#2118=CARTESIAN_POINT('',(0.0615084987524131,0.0820256552363356,0.013));
#2119=CARTESIAN_POINT('',(0.0645,0.0818,0.013));
#2120=CARTESIAN_POINT('',(0.0645,0.0818,0.015));
#2121=CARTESIAN_POINT('',(0.0615084987524,-0.007025655236336,0.012));
#2122=CARTESIAN_POINT('',(0.064508262350405,-0.00706331630592766,0.012));
#2123=CARTESIAN_POINT('',(0.064508262350405,-0.00706331630592766,0.012));
#2124=CARTESIAN_POINT('',(0.0615084987524,-0.007025655236336,0.012));
#2125=CARTESIAN_POINT('',(0.0645,-0.00679999999999957,0.012));
#2126=CARTESIAN_POINT('',(0.0645,-0.00679999999999957,0.012));
#2127=CARTESIAN_POINT('',(0.0019743447636644,0.000391501247587077,0.012));
#2128=CARTESIAN_POINT('',(0.0019366836940728,-0.00260826235040493,0.012));
#2129=CARTESIAN_POINT('',(0.0019366836940728,-0.00260826235040493,0.012));
#2130=CARTESIAN_POINT('',(0.0019743447636644,0.000391501247587077,0.012));
#2131=CARTESIAN_POINT('',(0.00220000000000003,-0.0026,0.012));
#2132=CARTESIAN_POINT('',(0.00220000000000003,-0.0026,0.012));
#2133=CARTESIAN_POINT('',(0.00939150124758725,0.0820256552363356,0.015));
#2134=CARTESIAN_POINT('',(0.00639173764959507,0.0820633163059272,0.015));
#2135=CARTESIAN_POINT('',(0.00639173764959507,0.0820633163059272,0.015));
#2136=CARTESIAN_POINT('',(0.00639173764959507,0.0820633163059272,0.013));
#2137=CARTESIAN_POINT('',(0.00939150124758725,0.0820256552363356,0.015));
#2138=CARTESIAN_POINT('',(0.0064,0.0818,0.015));
#2139=CARTESIAN_POINT('',(0.0064,0.0818,0.015));
#2140=CARTESIAN_POINT('',(0.0064,0.0818,0.013));
#2141=CARTESIAN_POINT('',(0.00939150124758725,0.0820256552363356,0.013));
#2142=CARTESIAN_POINT('',(0.0689252331484512,0.0746084669433864,0.015));
#2143=CARTESIAN_POINT('',(0.0689628235790344,0.0776082314273921,0.015));
#2144=CARTESIAN_POINT('',(0.0689628235790344,0.0776082314273921,0.015));
#2145=CARTESIAN_POINT('',(0.0689628235790344,0.0776082314273921,0.013));
#2146=CARTESIAN_POINT('',(0.0689252331484512,0.0746084669433864,0.015));
#2147=CARTESIAN_POINT('',(0.0687,0.0776,0.015));
#2148=CARTESIAN_POINT('',(0.0687,0.0776,0.015));
#2149=CARTESIAN_POINT('',(0.0687,0.0776,0.013));
#2150=CARTESIAN_POINT('',(0.0689252331484512,0.0746084669433864,0.013));
#2151=CARTESIAN_POINT('',(0.0729,0.0277843966135612,0.00420425546902875));
#2152=CARTESIAN_POINT('',(0.0729,0.0349815596342088,0.015));
#2153=CARTESIAN_POINT('',(0.0729,0.0349815596342088,0.015));
#2154=CARTESIAN_POINT('',(0.0729,0.0277843966135612,0.00420425546902875));
#2155=CARTESIAN_POINT('',(0.0729,0.0329815596342087,0.012));
#2156=CARTESIAN_POINT('',(0.0729,0.0329815596342087,0.012));
#2157=CARTESIAN_POINT('',(0.0729,0.0583907798171044,0.015));
#2158=CARTESIAN_POINT('',(0.0729,0.0583907798171044,0.013));
#2159=CARTESIAN_POINT('',(0.0729,0.086,0.013));
#2160=CARTESIAN_POINT('',(0.0729,0.086,0.015));
#2161=CARTESIAN_POINT('',(0.0729,0.086,0.015));
#2162=CARTESIAN_POINT('',(0.0729,0.0583907798171044,0.015));
#2163=CARTESIAN_POINT('',(9.99999999999925E-5,0.086,0.015));
#2164=CARTESIAN_POINT('',(9.99999999999925E-5,0.086,0.013));
#2165=CARTESIAN_POINT('',(-0.002,0.086,0.013));
#2166=CARTESIAN_POINT('',(-0.002,0.086,0.015));
#2167=CARTESIAN_POINT('',(-0.002,0.086,0.015));
#2168=CARTESIAN_POINT('',(9.99999999999925E-5,0.086,0.015));
#2169=CARTESIAN_POINT('',(-0.002,0.0583907798171044,0.015));
#2170=CARTESIAN_POINT('',(-0.002,0.0583907798171044,0.013));
#2171=CARTESIAN_POINT('',(-0.002,0.0349815596342088,0.015));
#2172=CARTESIAN_POINT('',(-0.002,0.0349815596342088,0.015));
#2173=CARTESIAN_POINT('',(-0.002,0.0583907798171044,0.015));
#2174=CARTESIAN_POINT('',(-0.002,0.0329815596342087,0.012));
#2175=CARTESIAN_POINT('',(-0.002,0.0329815596342087,0.012));
#2176=CARTESIAN_POINT('',(-0.002,0.0329815596342087,0.012));
#2177=CARTESIAN_POINT('',(-0.002,0.0329815596342087,0.012));
#2178=CARTESIAN_POINT('',(-0.002,-0.0089,0.012));
#2179=CARTESIAN_POINT('',(-0.002,-0.011,0.012));
#2180=CARTESIAN_POINT('',(-0.002,-0.011,0.012));
#2181=CARTESIAN_POINT('',(-0.002,-0.0089,0.012));
#2182=CARTESIAN_POINT('',(0.0708,-0.011,0.012));
#2183=CARTESIAN_POINT('',(0.0729,-0.011,0.012));
#2184=CARTESIAN_POINT('',(0.0729,-0.011,0.012));
#2185=CARTESIAN_POINT('',(0.0708,-0.011,0.012));
#2186=CARTESIAN_POINT('',(0.0022,-0.0068,0.012));
#2187=CARTESIAN_POINT('',(0.0022,-0.0068,0.012));
#2188=CARTESIAN_POINT('',(0.005,-0.0068,0.012));
#2189=CARTESIAN_POINT('',(0.0687,0.0818,0.015));
#2190=CARTESIAN_POINT('',(0.0687,0.0818,0.015));
#2191=CARTESIAN_POINT('',(0.0715,0.0818,0.015));
#2192=CARTESIAN_POINT('',(0.0687,0.0818,0.013));
#2193=CARTESIAN_POINT('',(0.0715,0.0818,0.013));
#2194=CARTESIAN_POINT('',(0.0022,0.0818,0.015));
#2195=CARTESIAN_POINT('',(0.0022,0.0818,0.015));
#2196=CARTESIAN_POINT('',(0.005,0.0818,0.015));
#2197=CARTESIAN_POINT('',(0.0022,0.0818,0.013));
#2198=CARTESIAN_POINT('',(0.005,0.0818,0.013));
#2199=CARTESIAN_POINT('',(0.0729,0.0130907798171044,0.012));
#2200=CARTESIAN_POINT('',(0.0729,0.0130907798171044,0.012));
#2201=CARTESIAN_POINT('',(0.0687,-0.0068,0.012));
#2202=CARTESIAN_POINT('',(0.0687,-0.0068,0.012));
#2203=CARTESIAN_POINT('',(0.0715,-0.0068,0.012));
#2204=CARTESIAN_POINT('',(0.03545,0.0375,0.015));
#2205=CARTESIAN_POINT('',(0.03545,0.0349815596342088,0.015));
#2206=CARTESIAN_POINT('',(0.03545,0.05863,0.015));
#2207=CARTESIAN_POINT('',(0.04947,0.05863,0.015));
#2208=CARTESIAN_POINT('',(0.02147,0.05863,0.015));
#2209=CARTESIAN_POINT('',(0.04947,0.0375,0.015));
#2210=CARTESIAN_POINT('',(0.04947,0.03623,0.015));
#2211=CARTESIAN_POINT('',(0.03545,0.03623,0.015));
#2212=CARTESIAN_POINT('',(0.02147,0.03623,0.015));
#2213=CARTESIAN_POINT('',(0.02147,0.0375,0.015));
#2214=CARTESIAN_POINT('',(0.00220000000000104,0.0818,0.015));
#2215=CARTESIAN_POINT('',(0.0687,0.0818000000000041,0.015));
#2216=CARTESIAN_POINT('',(0.00220000000000104,0.0818,0.015));
#2217=CARTESIAN_POINT('',(0.0687,0.0818000000000041,0.015));
#2218=CARTESIAN_POINT('',(0.03545,0.0375,0.012));
#2219=CARTESIAN_POINT('',(0.0124,0.0375,0.012));
#2220=CARTESIAN_POINT('',(0.0124,0.00365,0.012));
#2221=CARTESIAN_POINT('',(0.0124,0.0328,0.012));
#2222=CARTESIAN_POINT('',(0.03545,0.0328,0.012));
#2223=CARTESIAN_POINT('',(0.0583,0.0328,0.012));
#2224=CARTESIAN_POINT('',(0.0583,0.0375,0.012));
#2225=CARTESIAN_POINT('',(0.0583,0.00365,0.012));
#2226=CARTESIAN_POINT('',(0.03545,0.00365,0.012));
#2227=CARTESIAN_POINT('',(-0.0015,0.0329815596342087,0.012));
#2228=CARTESIAN_POINT('',(0.00220000000000003,-0.00680000000000038,0.012));
#2229=CARTESIAN_POINT('',(0.0687000000000084,-0.00679999999999957,0.012));
#2230=CARTESIAN_POINT('',(0.00220000000000003,-0.00680000000000038,0.012));
#2231=CARTESIAN_POINT('',(0.0687000000000084,-0.00679999999999957,0.012));
#2232=CARTESIAN_POINT('',(-0.0015,0.0329815596342087,0.012));
#2233=CARTESIAN_POINT('',(0.03545,0.0375,0.013));
#2234=CARTESIAN_POINT('',(0.04947,0.0375,0.013));
#2235=CARTESIAN_POINT('',(0.04947,0.03623,0.013));
#2236=CARTESIAN_POINT('',(0.04947,0.05863,0.013));
#2237=CARTESIAN_POINT('',(0.03545,0.05863,0.013));
#2238=CARTESIAN_POINT('',(0.02147,0.05863,0.013));
#2239=CARTESIAN_POINT('',(0.02147,0.0375,0.013));
#2240=CARTESIAN_POINT('',(0.02147,0.03623,0.013));
#2241=CARTESIAN_POINT('',(0.03545,0.03623,0.013));
#2242=CARTESIAN_POINT('',(0.03545,0.046,0.013));
#2243=CARTESIAN_POINT('',(0.0104,0.046,0.013));
#2244=CARTESIAN_POINT('',(0.01647,0.046,0.013));
#2245=CARTESIAN_POINT('',(0.0104,0.0375,0.013));
#2246=CARTESIAN_POINT('',(0.0603,0.0375,0.013));
#2247=CARTESIAN_POINT('',(0.0603,0.046,0.013));
#2248=CARTESIAN_POINT('',(0.03545,0.046,0.013));
#2249=CARTESIAN_POINT('',(0.05447,0.046,0.013));
#2250=CARTESIAN_POINT('',(0.05447,0.0375,0.013));
#2251=CARTESIAN_POINT('',(0.01647,0.0375,0.013));
#2252=CARTESIAN_POINT('',(0.0687,0.0818000000000041,0.013));
#2253=CARTESIAN_POINT('',(0.00220000000000104,0.0818,0.013));
#2254=CARTESIAN_POINT('',(0.0687,0.0818000000000041,0.013));
#2255=CARTESIAN_POINT('',(0.00220000000000104,0.0818,0.013));
#2256=CARTESIAN_POINT('',(0.0687,0.0818000000000041,0.015));
#2257=CARTESIAN_POINT('',(0.00220000000000104,0.0818,0.015));
#2258=CARTESIAN_POINT('',(0.0687,0.0818000000000041,0.015));
#2259=CARTESIAN_POINT('',(0.00220000000000104,0.0818,0.015));
#2260=CARTESIAN_POINT('',(0.00220000000000003,-0.00680000000000038,0.012));
#2261=CARTESIAN_POINT('',(0.0687000000000084,-0.00679999999999957,0.012));
#2262=CARTESIAN_POINT('',(0.00220000000000003,-0.00680000000000038,0.012));
#2263=CARTESIAN_POINT('',(0.0687000000000084,-0.00679999999999957,0.012));
#2264=CARTESIAN_POINT('',(0.03535,0.0328,0.0499));
#2265=CARTESIAN_POINT('',(0.03545,0.0328,0.0048));
#2266=CARTESIAN_POINT('',(0.0124,0.0328,0.0048));
#2267=CARTESIAN_POINT('',(0.03545,0.0328,0.01));
#2268=CARTESIAN_POINT('',(0.03545,0.0328,0.0048));
#2269=CARTESIAN_POINT('',(0.03545,0.0328,0.01));
#2270=CARTESIAN_POINT('',(0.03545,0.0328,0.0048));
#2271=CARTESIAN_POINT('',(0.0583,0.0328,0.0048));
#2272=CARTESIAN_POINT('',(0.0583,0.0328,0.0499));
#2273=CARTESIAN_POINT('',(0.0124,0.0328,0.0499));
#2274=CARTESIAN_POINT('',(0.0124,0.018225,0.0499));
#2275=CARTESIAN_POINT('',(0.0124,0.0375,0.0048));
#2276=CARTESIAN_POINT('',(0.0124,0.00365,0.0499));
#2277=CARTESIAN_POINT('',(0.0124,0.00365,0.0048));
#2278=CARTESIAN_POINT('',(0.0124,0.0375,0.0048));
#2279=CARTESIAN_POINT('',(0.0124,0.0375,0.01));
#2280=CARTESIAN_POINT('',(0.03535,0.00365,0.0499));
#2281=CARTESIAN_POINT('',(0.03545,0.00365,0.0048));
#2282=CARTESIAN_POINT('',(0.0583,0.00365,0.0499));
#2283=CARTESIAN_POINT('',(0.0583,0.00365,0.0048));
#2284=CARTESIAN_POINT('',(0.03545,0.00365,0.0048));
#2285=CARTESIAN_POINT('',(0.03545,0.00365,0.01));
#2286=CARTESIAN_POINT('',(0.03545,0.00365,0.0048));
#2287=CARTESIAN_POINT('',(0.03545,0.00365,0.01));
#2288=CARTESIAN_POINT('',(0.0583,0.018225,0.0499));
#2289=CARTESIAN_POINT('',(0.0583,0.0375,0.0048));
#2290=CARTESIAN_POINT('',(0.0583,0.0375,0.01));
#2291=CARTESIAN_POINT('',(0.0583,0.0375,0.0048));
#2292=CARTESIAN_POINT('',(0.02147,0.05093,0.0499));
#2293=CARTESIAN_POINT('',(0.02147,0.05863,0.0499));
#2294=CARTESIAN_POINT('',(0.02147,0.03623,0.0499));
#2295=CARTESIAN_POINT('',(0.03547,0.03623,0.0499));
#2296=CARTESIAN_POINT('',(0.04947,0.03623,0.0499));
#2297=CARTESIAN_POINT('',(0.04947,0.05093,0.0499));
#2298=CARTESIAN_POINT('',(0.04947,0.05863,0.0499));
#2299=CARTESIAN_POINT('',(0.0603,0.0183157798171044,0.0048));
#2300=CARTESIAN_POINT('',(0.0603,0.0183157798171044,0.0048));
#2301=CARTESIAN_POINT('',(0.0603,0.0378,0.0048));
#2302=CARTESIAN_POINT('',(0.0603,0.00165,0.0048));
#2303=CARTESIAN_POINT('',(0.0603,0.0378,0.0048));
#2304=CARTESIAN_POINT('',(0.0603,0.00165,0.0048));
#2305=CARTESIAN_POINT('',(0.0104,0.0183157798171043,0.0048));
#2306=CARTESIAN_POINT('',(0.0104,0.0280578899085522,-0.00494211009144783));
#2307=CARTESIAN_POINT('',(0.0104,0.0378,0.0048));
#2308=CARTESIAN_POINT('',(0.0104,0.0183157798171043,0.0048));
#2309=CARTESIAN_POINT('',(0.0104,0.00165,0.0048));
#2310=CARTESIAN_POINT('',(0.0104,0.00165,0.0048));
#2311=CARTESIAN_POINT('',(0.03535,0.00165,0.0048));
#2312=CARTESIAN_POINT('',(0.03535,0.00165,0.0048));
#2313=CARTESIAN_POINT('',(0.03545,0.0119907798171044,0.0048));
#2314=CARTESIAN_POINT('',(0.05447,0.0404907798171044,0.0048));
#2315=CARTESIAN_POINT('',(0.05447,0.0378,0.0048));
#2316=CARTESIAN_POINT('',(0.03545,0.0378,0.0048));
#2317=CARTESIAN_POINT('',(0.03545,0.0378,0.0048));
#2318=CARTESIAN_POINT('',(0.01647,0.0378,0.0048));
#2319=CARTESIAN_POINT('',(0.01647,0.0404907798171044,0.0048));
#2320=CARTESIAN_POINT('',(0.05447,0.0404907798171044,0.0048));
#2321=CARTESIAN_POINT('',(0.05447,0.0391453899085522,0.00614538990855218));
#2322=CARTESIAN_POINT('',(0.01647,0.0404907798171044,0.0048));
#2323=CARTESIAN_POINT('',(0.01647,0.0378,0.0048));
#2324=CARTESIAN_POINT('',(0.03545,0.0378,0.0048));
#2325=CARTESIAN_POINT('',(0.03545,0.0378,0.0048));
#2326=CARTESIAN_POINT('',(0.03547,0.05863,0.0499));
#2327=CARTESIAN_POINT('',(0.03545,0.0109907798171044,0.01));
#2328=MECHANICAL_DESIGN_GEOMETRIC_PRESENTATION_REPRESENTATION('',(#1437),
#2329);
#2329=(
GEOMETRIC_REPRESENTATION_CONTEXT(3)
GLOBAL_UNCERTAINTY_ASSIGNED_CONTEXT((#2330))
GLOBAL_UNIT_ASSIGNED_CONTEXT((#2333,#2332,#2331))
REPRESENTATION_CONTEXT('MP3_COVER_Top','TOP_LEVEL_ASSEMBLY_PART')
);
#2330=UNCERTAINTY_MEASURE_WITH_UNIT(LENGTH_MEASURE(1.E-8),#2333,
'DISTANCE_ACCURACY_VALUE','Maximum Tolerance applied to model');
#2331=(
NAMED_UNIT(*)
SI_UNIT($,.STERADIAN.)
SOLID_ANGLE_UNIT()
);
#2332=(
NAMED_UNIT(*)
PLANE_ANGLE_UNIT()
SI_UNIT($,.RADIAN.)
);
#2333=(
LENGTH_UNIT()
NAMED_UNIT(*)
SI_UNIT($,.METRE.)
);
#2334=PRODUCT_DEFINITION_SHAPE('','',#2335);
#2335=PRODUCT_DEFINITION('','',#2337,#2336);
#2336=PRODUCT_DEFINITION_CONTEXT('',#2343,'design');
#2337=PRODUCT_DEFINITION_FORMATION_WITH_SPECIFIED_SOURCE('','',#2339,
 .NOT_KNOWN.);
#2338=PRODUCT_RELATED_PRODUCT_CATEGORY('','',(#2339));
#2339=PRODUCT('MP3_COVER_Top','MP3_COVER_Top','MP3_COVER_Top',(#2341));
#2340=PRODUCT_CATEGORY('','');
#2341=PRODUCT_CONTEXT('',#2343,'mechanical');
#2342=APPLICATION_PROTOCOL_DEFINITION('international standard',
'ap242_managed_model_based_3d_engineering',2020,#2343);
#2343=APPLICATION_CONTEXT('managed model based 3d engineering');
ENDSEC;
END-ISO-10303-21;
